<?xml version="1.0" encoding="utf-8"?>
<!-- Generator: Adobe Illustrator 20.1.0, SVG Export Plug-In . SVG Version: 6.00 Build 0)  -->
<svg version="1.1" id="Layer_1" xmlns="http://www.w3.org/2000/svg" xmlns:xlink="http://www.w3.org/1999/xlink" x="0px" y="0px"
	 viewBox="0 0 455 220" style="enable-background:new 0 0 455 220;" xml:space="preserve">
<style type="text/css">
	.st0{fill:#22A44A;}
	.st1{fill:#62AFE0;}
	.st2{fill:#97212A;}
	.st3{fill:#FFFFFF;}
	.st4{fill:#E9F4F2;}
	.st5{fill:#2074AC;}
	.st6{opacity:0.1;fill:#FFF69C;enable-background:new    ;}
	.st7{opacity:0.3;fill:#FFF69C;enable-background:new    ;}
	.st8{fill:#FFF69C;}
	.st9{fill:#AADFF8;}
</style>
<g>
	<g>
		<path class="st0" d="M108.1,72.1c0,0,36.3-23,65-24.8c28.7,0-15.3,17.2-15.3,17.2s24.8-5.7,34.5,7.7c9.5,13.4-13.4,7.7-13.4,7.7
			s21,5.7,24.8,13.4c2,7.7-11.5,5.7-11.5,5.7s13.4,7.7,13.4,13.4c0,5.7,0,7.7,0,7.7s17.2,9.5,7.7,13.4
			C205.6,135.2,108.1,72.1,108.1,72.1z"/>
		<path class="st0" d="M117.7,202.2c0,0,32.5,17.2,59.3,15.3c24.8-2-13.4-13.4-13.4-13.4s21,2,28.7-9.5c7.7-13.4-11.5-5.7-11.5-5.7
			s19.2-5.7,19.2-13.4c2-7.7-9.5-3.8-9.5-3.8s11.5-7.7,11.5-13.4c0-5.7,0-7.7,0-7.7s13.4-9.5,5.7-11.5
			C196.1,137.1,117.7,202.2,117.7,202.2z"/>
		<path class="st1" d="M234.4,129.5c0,0-5.7,9.5-17.2,3.8c-11.5-5.7-28.7-38.2-47.8-53.5c-19.2-13.4-47.8-21-72.7-5.7
			c-24.8,15.3-19.2,21-11.5,28.7c7.7,9.5,34.5,63.2,30.6,67c-2,3.8-49.7,15.3-49.7,21c0,3.8,32.5,21,63.2,15.3
			c30.6-5.7,70.7-44,80.3-51.7c11.5-7.7,7.7-3.8,23,7.7c15.3,11.5,19.2,23,19.2,23s28.7-17.2,19.2-47.8
			c-9.5-34.5-24.8-30.6-24.8-30.6L234.4,129.5z"/>
		<circle class="st2" cx="113.9" cy="98.8" r="11.5"/>
		<circle class="st3" cx="113.9" cy="98.8" r="7.7"/>
		<path class="st4" d="M62.2,100.8c0,0-9.5,21-5.7,34.5c0,0,3.8-19.2,9.5-23c0,0-5.7,21,0,30.6c0,0,2-21,7.7-24.8c0,0-3.8,23,0,32.5
			c0,0,2-15.3,7.7-23c0,0-2,19.2,0,24.8c2,5.6,5.7-17.2,5.7-17.2s2,15.3,3.8,15.3c2,0,2-7.7,2-7.7S71.8,100.8,62.2,100.8z"/>
		<path class="st4" d="M56.5,186.8c0,0,3.8-26.8,17.2-32.5c0,0-7.7,19.2-5.7,26.8c0,0,7.7-21,15.3-23c0,0-9.5,17.2-7.7,24.8
			c0,0,7.7-21,15.3-24.8c0,0-5.7,11.5-5.7,21c0,0,7.7-13.4,11.5-17.2c3.8-2-3.8,15.3-3.8,15.3s5.7-9.5,7.7-7.7c2,0-2,7.7-2,7.7
			S64.2,190.7,56.5,186.8z"/>
		<path class="st5" d="M117.7,173.5c0,0-3.8-30.2-26.8-68.9c-11.5-21-15.3-22.9-23-21c-7.7,1.8-13.4,9.5-7.7,15.3s51.7,65,49.7,68.9
			c-2,3.8-38.2,7.7-49.7,11.5c-9.5,3.8-15.3,15.3-3.8,19.2c11.5,2,45.9-15.3,53.5-17.2C117.7,177.3,119.6,181.2,117.7,173.5z"/>
		<path class="st5" d="M77.5,89.3c0,0,5.7-36.3,2-51.7C73.7,22.3,45,29.9,45,29.9l-3.8-3.8c0,0,19.2-15.3,40.2-3.8s0,68.9,0,68.9
			L77.5,89.3z"/>
		<path class="st5" d="M125.4,141c0,0-2-21,23-24.8v44C150.2,160,127.2,160,125.4,141z"/>
		<circle class="st6" cx="33.5" cy="33.8" r="30.6"/>
		<circle class="st7" cx="33.5" cy="33.8" r="21"/>
		<circle class="st8" cx="33.5" cy="33.8" r="13.4"/>
	</g>
	<circle class="st9" cx="161.7" cy="133.3" r="5.7"/>
	<circle class="st9" cx="175.1" cy="146.7" r="5.7"/>
	<circle class="st9" cx="182.7" cy="129.5" r="3.8"/>
	<circle class="st9" cx="159.8" cy="150.5" r="3.8"/>
	<circle class="st9" cx="111.9" cy="119.9" r="3.8"/>
	<circle class="st9" cx="144.4" cy="108.5" r="3.8"/>
	<circle class="st9" cx="131.1" cy="169.7" r="3.8"/>
	<circle class="st9" cx="201.9" cy="144.8" r="3.8"/>
	<circle class="st9" cx="150.2" cy="179.2" r="3.8"/>
</g>
</svg>
