<?xml version="1.0" encoding="utf-8"?>
<!-- Generator: Adobe Illustrator 20.1.0, SVG Export Plug-In . SVG Version: 6.00 Build 0)  -->
<svg version="1.1" id="Layer_1" xmlns="http://www.w3.org/2000/svg" xmlns:xlink="http://www.w3.org/1999/xlink" x="0px" y="0px"
	 viewBox="0 0 671 220" style="enable-background:new 0 0 671 220;" xml:space="preserve">
<style type="text/css">
	.st0{fill:#C0D8C5;}
	.st1{fill:#C9E2CE;}
	.st2{fill:#D4F1DE;}
	.st3{fill:#2E3F4A;}
	.st4{fill:#AAD8B9;}
</style>
<g>
	<g>
		<g>
			<g>
				<path class="st0" d="M608.5,58.1V26.8c0,0-0.7-17.4-8-19.6c-10.9-3.6-25.4,0.7-30.5,0c-4.4-0.7-13.8-2.9-17.4-5.8
					c-4.4-2.9-7.3-0.7-6.5,0.7C554.7,35.6,581.6,50.8,608.5,58.1z"/>
			</g>
		</g>
		<g>
			<g>
				<path class="st1" d="M607.7,58.1V26.8c0,0,0.7-17.4,8-19.6c10.9-2.9,25.4,2.2,31.2,0.7c4.4-0.7,13.8-2.2,17.4-5.1
					c4.4-2.9,7.3-0.7,6.5,1.5C661.5,37.7,634.6,51.5,607.7,58.1z"/>
			</g>
		</g>
	</g>
	<g>
		<path class="st1" d="M9.5,170.6c1.5-3.6,8.7-2.9,8.7-2.9s-6.5-0.7-9.4-0.7c-3.6-0.7-9.4-3.6-8.7-11.6c1.5-8,12.3-5.1,13.1-8
			c1.5-7.3-12.3-21.8-4.4-39.2c26.9-62.4,114-50.1,154.6-58.8c31.2-6.5,88.6-26.1,123.4-25.4c118.3,1.5,175.7,68.2,236.7,63.9
			c69.7-5.1,76.2-49.4,76.2-49.4c2.9-12.3,21.8-11.6,20.3-0.7c-5.8,51.5-43.6,114.7-135.8,153.9c-43.6,18.9-153.2,29-200.4,28.3
			c-33.4-0.7-97.3-18.9-130-22.5c-22.5-2.2-68.2,4.4-90,0.7c-24.7-3.6-37-10.2-47.2-16.7C11,177.9,8.8,172,9.5,170.6z"/>
	</g>
	<g>
		<path class="st2" d="M214.2,163.3c0,0,16,55.2,94.4,29.8c22.5-7.3-2.2-8.7-12.3-19.6c-5.8-6.5-18.9-38.5-42.8-35.6
			C229.5,140.8,214.2,163.3,214.2,163.3z"/>
	</g>
	<g>
		<g>
			<circle class="st3" cx="98.8" cy="142.3" r="6.5"/>
		</g>
	</g>
	<path class="st4" d="M85.7,149.5c-19.6,21.8-71.9,16.7-72.6,16.7s-1.5,0.7-1.5,1.5c2.9,0,6.5,0.7,6.5,0.7s-3.6,0-6.5,0.7
		c0,0.7,0.7,0.7,1.5,0.7c0.7,0,6.5,0.7,14.5,0.7c17.4,0,47.2-2.9,61-18.2c0.7-0.7,0.7-2.2,0-2.2C87.2,148.8,86.5,148.8,85.7,149.5z"
		/>
</g>
</svg>
