<?xml version="1.0" encoding="utf-8"?>
<!-- Generator: Adobe Illustrator 20.1.0, SVG Export Plug-In . SVG Version: 6.00 Build 0)  -->
<svg version="1.1" id="Layer_1" xmlns="http://www.w3.org/2000/svg" xmlns:xlink="http://www.w3.org/1999/xlink" x="0px" y="0px"
	 viewBox="0 0 455 220" style="enable-background:new 0 0 455 220;" xml:space="preserve">
<style type="text/css">
	.st0{fill:#585D90;}
	.st1{fill:#4F5381;}
	.st2{fill:#A2A5C8;}
	.st3{fill:#474B75;}
	.st4{fill:#2E3F4A;}
	.st5{fill:#9094CB;}
</style>
<g>
	<g>
		<g>
			<g>
				<path class="st0" d="M390,62.6l10.7-15.8c0,0,11.3-8.8,17-5c5.7,3.8,19.8,13.4,23.2,14c3.7,0.6,10.1,0.2,13.2-0.7
					c0.9-0.1,1.8,0.4,0.7,1.3C434.8,73,412.7,71.2,390,62.6z"/>
			</g>
		</g>
		<g>
			<g>
				<path class="st1" d="M390.7,63.1l10.7-15.8c0,0,4-13.8-1.6-17.7c-5.7-3.8-19.7-13.4-21.5-16.4c-1.9-3.3-3.9-9.3-4.2-12.5
					c-0.2-0.9-1.1-1.4-1.5-0.2C364.6,25.3,374.4,45.1,390.7,63.1z"/>
			</g>
		</g>
	</g>
	<g>
		<g>
			<path class="st1" d="M236.2,66c19.7,0.3,57.8-1.2,58.9-0.5c1.9,1.2-0.6,3.6-0.6,4.7c-0.2,3.6,8.9,7.3,18.7,8.1
				C316.3,82.1,260.2,73.7,236.2,66z"/>
		</g>
	</g>
	<g>
		<g>
			<path class="st0" d="M4.4,83.8c0-1.3-0.7-2.8,1.7-3.9c19.4-9.5,42.3-12.2,65.7-19.3c7.5-2.3,28.7-0.8,28.7-0.8s43.1-6.3,67.1-4.8
				c22,1.4,143.1,25.3,168.3,26.2c18.5,1.4,44.1-12,51.4-21.2c5-6.5,12.5-5.9,10,1.9c-11.8,21.2-82.4,86-138.1,90.7
				c-83.9,7.2-187.4-39.6-200.8-43.3c-9.3-2.6-38-6.4-49.9-12.1c-4.9-2.3-8.9-6.9-7.5-10.3C1.5,85.7,4.4,83.8,4.4,83.8z"/>
		</g>
	</g>
	<g>
		<g>
			<path class="st2" d="M386.5,75.9c-13.4,11-60.6,46.4-127.2,57.1c-29.6,4.7-74.6-2-97.1-11.5c-6.9-2.9-17.7-10.6-27.6-11.8
				c-11.4-1.4-40.9,1.2-48.4-4.2c-3-2.2-5.9-5.8-6.2-11.8c-0.4-7.4-6-10.4-12.1-11.7C63,80.9,9.2,83.5,4.4,83.7c0,0,0,0,0,0.1
				c0,0-2.9,1.9-3.3,2.9c-1.4,3.4,1.6,7.3,6.2,10c10.8,6.2,36,16.4,45.2,19.6c14.2,4.9,122.9,43.4,206.7,36.2
				C305.4,148.5,361.8,103.4,386.5,75.9z"/>
		</g>
	</g>
	<path class="st3" d="M4.4,83.8c0,0-0.3,0.2-0.7,0.5c0.1,0.1,0.2,0.1,0.3,0.1c0,0,11-0.4,27.4-1c8.2-0.2,17.8-0.6,28.1-0.8
		c2.6,0,5.2-0.1,7.8,0c2.6,0.2,5.1,0.9,7.2,2.4c2.1,1.4,3.7,3.6,4.4,6.1c0.3,1.2,0.4,2.6,0.5,4c0.1,1.3,0.5,2.8,1,4.1
		c1,2.7,2.9,5,5.1,6.7c2.4,1.7,5.2,2.2,7.9,2.7c5.4,0.8,10.7,1,15.9,1.1c5.1,0,10.1,0,14.8,0.1c4.7,0.1,9.2,0,13.1,1
		c3.9,0.9,7.4,2.4,10.5,3.7c3.1,1.3,5.7,2.6,7.8,3.7c4.3,2.1,6.7,3.5,6.7,3.5s-2.3-1.5-6.5-3.8c-2.1-1.1-4.7-2.5-7.7-3.9
		c-3-1.4-6.5-2.9-10.6-4c-4.1-1.1-8.6-1-13.3-1.1c-4.7,0-9.7-0.1-14.8-0.1c-5.1-0.1-10.4-0.3-15.7-1.1c-2.6-0.5-5.3-1-7.4-2.6
		c-2.1-1.6-3.8-3.7-4.7-6.2c-0.2-0.6-0.5-1.2-0.6-1.9c-0.2-0.6-0.3-1.3-0.3-2c-0.2-1.3-0.2-2.7-0.6-4.1c-0.7-2.8-2.5-5.3-4.8-6.9
		c-2.3-1.6-5.1-2.4-7.8-2.6c-2.7-0.1-5.3-0.1-7.9-0.1c-10.3,0.2-19.9,0.5-28.1,0.7c-14.8,0.6-25.1,0.9-27,1
		C4.4,83.3,4.4,83.5,4.4,83.8z"/>
	<g>
		<g>
			<g>
				<circle class="st4" cx="88.4" cy="98.1" r="2.4"/>
			</g>
		</g>
	</g>
	<g>
		<g>
			<path class="st1" d="M14.9,76.6c0.2,0.8-0.6,1.3-1.9,1.7c-1.3,0.4-2.6,0.6-2.9-0.2c-0.2-0.8,0.6-1.8,1.9-2.2
				C13.4,75.4,14.6,75.8,14.9,76.6z"/>
		</g>
	</g>
	<g>
		<g>
			<path class="st1" d="M17.2,80.1c0.2,0.7-0.4,1.3-1.5,1.5c-1,0.2-2.2,0-2.3-0.7c-0.2-0.7,0.6-1.4,1.6-1.6
				C16.1,79.1,17.1,79.5,17.2,80.1z"/>
		</g>
		<g>
			<path class="st1" d="M28.7,76.9c0.1,0.6-0.4,1.2-1.4,1.5c-1,0.2-2,0-2.2-0.6c-0.1-0.6,0.5-1.3,1.5-1.6
				C27.6,76,28.5,76.3,28.7,76.9z"/>
		</g>
		<g>
			<path class="st1" d="M39.1,75.4c0.1,0.6-0.4,1.2-1.3,1.4c-0.9,0.2-1.9,0-2.1-0.6c-0.1-0.6,0.5-1.2,1.4-1.5
				C38.1,74.5,38.9,74.8,39.1,75.4z"/>
		</g>
		<g>
			<path class="st1" d="M48.9,74.5c0.1,0.5-0.4,1.1-1.2,1.3c-0.9,0.2-1.8,0-1.9-0.6c-0.1-0.6,0.5-1.2,1.3-1.4S48.8,74,48.9,74.5z"/>
		</g>
		<g>
			<path class="st1" d="M58.7,73.1c0.1,0.5-0.3,1-1.1,1.2c-0.8,0.2-1.7,0-1.8-0.5c-0.1-0.5,0.4-1.1,1.3-1.3
				C57.8,72.4,58.6,72.6,58.7,73.1z"/>
		</g>
		<g>
			<path class="st1" d="M69,70.1c0.1,0.5-0.3,0.9-1.1,1.1c-0.8,0.2-1.6,0-1.7-0.5c-0.1-0.5,0.4-1,1.2-1.2
				C68.1,69.4,68.8,69.7,69,70.1z"/>
		</g>
	</g>
	<g>
		<g>
			<path class="st1" d="M23.9,73.4c0.3,0.9-0.7,1.4-2.2,1.9c-1.5,0.5-3,0.7-3.3-0.2c-0.3-0.9,0.7-2,2.2-2.5
				C22.1,72.2,23.6,72.5,23.9,73.4z"/>
		</g>
	</g>
	<g>
		<g>
			<path class="st1" d="M34.4,70.4c0.3,0.9-0.7,1.4-2.4,1.9c-1.6,0.5-3.2,0.8-3.5-0.1c-0.3-0.9,0.8-2,2.4-2.5
				C32.6,69.2,34.1,69.5,34.4,70.4z"/>
		</g>
	</g>
	<g>
		<g>
			<path class="st1" d="M44.6,67.6c0.2,0.8-0.6,1.2-2,1.6c-1.4,0.4-2.7,0.6-2.9-0.1c-0.2-0.8,0.7-1.7,2.1-2.1
				C43.1,66.6,44.4,66.9,44.6,67.6z"/>
		</g>
	</g>
	<g>
		<g>
			<path class="st1" d="M55.1,65.1c0.2,0.7-0.6,1.1-1.9,1.4c-1.3,0.3-2.5,0.5-2.7-0.2c-0.2-0.7,0.7-1.6,2-1.9
				C53.7,64.1,54.9,64.4,55.1,65.1z"/>
		</g>
	</g>
	<g>
		<g>
			<path class="st1" d="M65.2,62.6c0.2,0.7-0.6,1.1-1.9,1.4c-1.3,0.3-2.5,0.5-2.7-0.2c-0.2-0.7,0.7-1.6,2-1.9
				C63.8,61.6,65,61.9,65.2,62.6z"/>
		</g>
	</g>
	<g>
		<g>
			<path class="st5" d="M63.7,86.8c0,0,0.3,1.1,1.3,3c1,1.9,2.6,4.8,5.2,7.9c2.7,3,6.6,6.2,11.5,9.1c4.8,2.9,11.3,4.5,18.2,5.2
				c7,0.8,14.7,0.8,22.8,1.1c4.1,0.2,8.2,0.4,12.5,1.2c4.2,0.8,8.3,2.4,12.3,4.4c4,2,7.9,4.2,12,6.1c4.1,1.9,8.4,3.7,12.8,5
				c8.9,2.7,18.2,4.3,27.5,5.6c9.3,1.2,18.7,2.2,28,2.1c9.3-0.1,18.4-0.8,27.1-2c17.5-2.5,33.5-6.7,46.9-11.2
				c3.4-1.1,6.5-2.4,9.5-3.5c3-1.2,5.8-2.4,8.4-3.5c5.2-2.4,9.7-4.6,13.3-6.6c3.7-1.9,6.4-3.7,8.3-4.8c1.9-1.1,2.9-1.7,2.9-1.7
				s-1,0.6-2.9,1.8c-1.9,1.1-4.6,2.9-8.3,4.8c-3.6,2-8.1,4.2-13.3,6.7c-2.6,1.1-5.5,2.3-8.4,3.6c-3,1.1-6.1,2.5-9.5,3.6
				c-6.7,2.4-14,4.6-21.9,6.6c-7.9,1.9-16.3,3.6-25.1,4.8c-8.8,1.2-17.9,2-27.2,2c-9.3,0-18.7-0.9-28.1-2.2
				c-9.3-1.3-18.7-2.9-27.6-5.6c-4.4-1.4-8.7-3.1-12.9-5c-4.1-1.9-8.1-4.1-12-6c-4-1.9-8-3.5-12.2-4.3c-4.2-0.8-8.3-0.9-12.4-1.1
				c-8.1-0.2-15.8-0.2-22.8-1c-7.1-0.7-13.5-2.3-18.6-5.3c-5-2.9-9-6.1-11.8-9.2c-2.7-3.2-4.3-6.1-5.4-8.1c-1-2-1.4-3.2-1.4-3.2l0,0
				c-0.1-0.3,0.1-0.6,0.4-0.7C63.3,86.3,63.6,86.4,63.7,86.8L63.7,86.8z"/>
		</g>
		<g>
			<path class="st5" d="M49.3,87c0.2-0.1,0.5,0.1,0.6,0.3c0,0,0.1,0.1,0.2,0.2c0.1,0.1,0.6,1.1,1.6,2.8c1.3,1.9,3.4,4.6,6.6,7.5
				c3.2,2.9,7.7,6,13.1,9c5.4,3,12.2,5,19.6,6.3c7.5,1.4,15.7,2.1,24.3,3.1c4.5,0.5,9.1,1.1,13.8,2.1c3.8,0.8,7.5,2,11.2,3.4
				c0.9,0.3,1.8,0.7,2.6,1c3.3,1.3,6.6,2.7,9.9,4.1c1.3,0.5,2.6,1.1,3.9,1.6c3,1.1,6,2.2,9.1,3.2c1.8,0.6,3.6,1.1,5.5,1.6
				c7.3,1.9,14.8,3.2,22.3,4.3c2.9,0.4,5.7,0.8,8.6,1.1c6.6,0.8,13.2,1.4,19.8,1.8c3.9,0.2,7.7,0.2,11.5,0.1
				c5.4-0.1,10.7-0.6,15.9-1.2c4.8-0.6,9.6-1.4,14.2-2.3c3.8-0.8,7.4-1.6,11-2.6c7.8-2.1,15.1-4.5,21.8-7c6.4-2.4,12.3-5,17.7-7.5
				c3.6-1.7,6.9-3.4,10-5c1.1-0.6,2.2-1.2,3.3-1.8c2-1.1,3.8-2.1,5.5-3.1c1-0.6,1.9-1.1,2.8-1.7c1.3-0.8,2.2-1.4,2.9-1.8
				c0.7-0.3,1.1-0.4,1.3-0.3c1-0.3,1.8-0.5,2.3-0.6c0.5-0.1,0.8-0.2,1.2-0.3c1.2-0.5,2-0.9,2.4-1c1.1-0.6,1.5-0.8,1.2-0.5
				c-0.3,0.3-1.4,1-3.2,2.1c-2.4,1.6-5.5,3.7-9.4,6c-1.8,1.1-3.7,2.2-5.8,3.4c-2.9,1.6-6,3.2-9.4,4.9c-3.1,1.4-6.3,2.9-9.7,4.4
				c-3.1,1.2-6.2,2.5-9.6,3.7c-6.8,2.4-14.1,4.7-22,6.6c-8.1,1.9-16.6,3.4-25.4,4.4c-3,0.3-6,0.6-9,0.8c-6.1,0.4-12.3,0.6-18.5,0.5
				c-5.8-0.1-11.6-0.5-17.4-1.1c-3.7-0.4-7.4-0.8-11.1-1.3c-8.3-1.1-16.5-2.5-24.5-4.5c-1.2-0.3-2.4-0.6-3.5-0.9
				c-4.5-1.3-8.9-2.8-13.2-4.5c-4.6-1.8-9-3.7-13.4-5.5c-4.4-1.8-8.8-3.3-13.3-4.2c-4.5-0.9-9-1.4-13.3-1.9
				c-8.7-0.9-16.9-1.6-24.4-2.9c-7.5-1.3-14.4-3.3-19.9-6.3c-5.5-3-10-6.1-13.3-9.1c-3.2-3-5.3-5.6-6.7-7.6c0-0.1-0.1-0.1-0.1-0.2
				c-0.6-0.8-1-1.5-1.3-2c-0.3-0.4-0.4-0.7-0.5-0.8c-0.1-0.2-0.1-0.3-0.1-0.3l0,0c0-0.1,0-0.2,0-0.3C48.9,87.2,49.1,87.1,49.3,87z"
				/>
		</g>
		<g>
			<path class="st5" d="M35.7,87.7c0.2,0,0.3,0,0.4,0.2c0,0,0.1,0.1,0.4,0.4c0.3,0.2,0.9,1.1,2,2.5c1.7,1.8,4.3,4.4,8,7.2
				c3.8,2.8,8.7,5.8,14.6,8.8c5.9,3.1,13.1,5.5,21,7.4c7.9,1.9,16.6,3.4,25.9,5.1c4.9,0.9,9.9,1.8,15.1,3c4.2,1,8.3,2.2,12.5,3.5
				c1,0.3,2,0.6,3,1c3.7,1.2,7.4,2.5,11.2,3.8c1.5,0.5,3,1,4.5,1.4c3.4,1.1,6.8,2.1,10.2,3c2,0.5,4,1.1,6.1,1.5
				c8.1,1.8,16.4,3.1,24.8,4.1c3.2,0.4,6.3,0.7,9.5,1.1c7.3,0.8,14.6,1.4,21.8,1.7c4.3,0.2,8.5,0.1,12.7,0c6-0.3,11.8-0.9,17.5-1.8
				c5.3-0.9,10.5-2,15.5-3.2c4.1-1.1,8.1-2.3,12-3.5c8.4-2.8,16.3-6.1,23.4-9.4c6.9-3.3,13.2-6.7,18.8-9.9c3.9-2.2,7.4-4.5,10.6-6.4
				c1.2-0.8,2.3-1.5,3.4-2.2c2.1-1.4,4.1-2.7,5.8-3.9c1.1-0.8,2-1.5,2.9-2.1c1.6-1.2,2.6-2,3-2.2c0.5-0.2,0.4,0.1-0.3,0.9
				c0.2,0.3,0,0.8-0.5,1.5c0,0.2-0.1,0.4-0.3,0.7c0.1,0.3-0.2,0.7-0.9,1.5c0.3-0.1,0.2,0.2-0.5,0.7c-0.6,0.5-1.8,1.3-3.4,2.5
				c-2.9,2.1-6.4,4.5-10.6,7.1c-2.1,1.3-4.3,2.7-6.6,4c-3.3,1.9-6.8,3.9-10.6,5.8c-3.5,1.7-7.2,3.5-11,5.2c-3.1,1.3-6.3,2.6-9.7,3.8
				c-6.9,2.5-14.3,4.7-22.1,6.6c-8.2,1.9-16.9,3.2-25.8,4c-3,0.3-6.1,0.5-9.2,0.6c-6.2,0.2-12.4,0.2-18.8,0
				c-5.9-0.2-11.7-0.7-17.6-1.2c-3.7-0.4-7.5-0.8-11.2-1.2c-8.4-1.1-16.7-2.4-24.8-4.4c-1.2-0.3-2.4-0.6-3.6-0.9
				c-4.6-1.2-9.1-2.5-13.5-4c-5-1.6-9.9-3.3-14.7-4.9c-4.8-1.6-9.6-3.1-14.4-4.2c-4.8-1.1-9.6-1.9-14.2-2.7c-9.2-1.6-18-3-25.9-4.9
				c-8-1.9-15.3-4.2-21.2-7.4c-6-3-11-6.1-14.8-8.9c-3.8-2.8-6.4-5.4-8.1-7.2c-0.1-0.1-0.1-0.1-0.2-0.2c-0.8-0.8-1.3-1.5-1.7-2
				c-0.4-0.4-0.6-0.7-0.6-0.8c-0.1-0.1-0.1-0.2-0.1-0.3c0,0,0,0,0,0c0-0.1,0-0.3,0.1-0.4C35.2,87.7,35.4,87.6,35.7,87.7z"/>
		</g>
		<g>
			<path class="st5" d="M22,88.3c0.1,0,0.2,0,0.2,0.1c0,0,0.2,0.2,0.7,0.6c0.4,0.4,1.2,1.2,2.3,2.3c2,1.8,5.1,4.2,9.4,6.8
				c4.3,2.6,9.8,5.6,16.2,8.7c6.4,3.2,13.9,6,22.3,8.5c8.4,2.5,17.6,4.7,27.4,7c5.3,1.3,10.8,2.5,16.4,3.9c4.5,1.1,9.1,2.4,13.8,3.7
				c1.1,0.3,2.2,0.6,3.3,0.9c4.1,1.1,8.3,2.3,12.5,3.5c1.6,0.4,3.3,0.9,5,1.3c3.7,1,7.5,1.9,11.3,2.9c2.2,0.5,4.4,1,6.7,1.5
				c8.9,1.8,18.1,3,27.2,4c3.5,0.3,6.9,0.7,10.4,1c8,0.8,16,1.4,23.9,1.6c4.7,0.1,9.3,0,13.9-0.2c6.5-0.4,12.9-1.2,19.2-2.4
				c5.8-1.1,11.4-2.5,16.8-4.2c4.5-1.4,8.8-2.9,12.9-4.5c9.1-3.6,17.5-7.7,25.1-11.9c7.4-4.1,14.1-8.4,19.9-12.3
				c4.1-2.8,7.8-5.5,11.1-7.9c1.2-0.9,2.4-1.8,3.6-2.7c2.3-1.8,4.3-3.4,6.1-4.7c1.1-0.9,2.2-1.8,3-2.5c1.9-1.6,2.9-2.5,3.2-2.6
				c0.2-0.1-0.4,0.6-1.8,2c-0.7,0.9-1.8,2.1-3.4,3.6c-0.5,0.5-1.1,1.1-1.8,1.8c-1,1.1-2.4,2.4-4.1,3.9c-0.5,0.5-1.2,1.1-2.2,1.9
				c-0.9,0.8-2.2,1.7-3.7,2.8c-3.4,2.5-7.3,5.4-11.7,8.3c-2.3,1.6-4.8,3.1-7.3,4.7c-3.7,2.3-7.6,4.5-11.8,6.8c-3.9,2-8,4.1-12.3,6
				c-3.1,1.3-6.4,2.7-9.8,3.9c-7,2.6-14.4,4.8-22.2,6.5c-8.4,1.9-17.2,3.1-26.2,3.6c-3.1,0.2-6.2,0.3-9.3,0.3
				c-6.3,0.1-12.6-0.1-19-0.5c-5.9-0.4-11.9-0.9-17.9-1.4c-3.8-0.4-7.6-0.8-11.4-1.2c-8.5-1-16.9-2.4-25.1-4.2
				c-1.2-0.3-2.4-0.6-3.7-0.8c-4.7-1.1-9.3-2.3-13.9-3.5c-5.5-1.5-10.8-3-16.1-4.4c-5.2-1.5-10.4-2.9-15.6-4.2
				c-5.2-1.3-10.2-2.4-15.2-3.5c-9.8-2.2-19-4.4-27.5-6.9c-8.5-2.4-16.1-5.2-22.6-8.4c-6.5-3.1-12-6-16.3-8.7
				c-4.3-2.7-7.5-5.1-9.6-6.9c-0.1-0.1-0.2-0.1-0.2-0.2c-0.9-0.8-1.6-1.5-2-1.9c-0.5-0.5-0.7-0.7-0.7-0.8c-0.1-0.1-0.2-0.2-0.2-0.3
				c0,0,0,0,0,0c0-0.1,0-0.3,0.1-0.4C21.5,88.2,21.8,88.2,22,88.3z"/>
		</g>
		<g>
			<path class="st5" d="M8.3,88.9c0,0,0.3,0.3,0.9,0.7c0.6,0.5,1.4,1.2,2.6,2.1c2.3,1.7,5.9,4,10.8,6.5c4.8,2.5,10.8,5.4,17.8,8.5
				c6.9,3.3,14.8,6.5,23.7,9.5c8.9,3.1,18.6,6,28.9,9c10.3,2.9,21.3,5.9,32.7,8.6c5.7,1.3,11.5,2.6,17.4,4
				c5.9,1.3,11.9,2.5,17.9,3.8c12.1,2.5,24.5,4.1,37,5.2c12.5,1,24.9,2.4,37.3,2.6c12.3,0.2,24.4-0.9,35.9-3.4
				c11.5-2.5,22.2-6.2,32-10.6c9.8-4.4,18.7-9.3,26.7-14.3c7.9-5,14.9-10,21-14.7c6-4.7,11.2-8.9,15.3-12.5c4.1-3.6,7.3-6.5,9.5-8.5
				c2.2-2,3.3-3.1,3.3-3.1s-1.1,1.1-3.3,3.1c-2.1,2-5.3,4.9-9.4,8.5c-4.1,3.6-9.2,7.9-15.2,12.6c-6.1,4.7-13,9.7-20.9,14.8
				c-7.9,5-16.8,10-26.7,14.5c-9.8,4.4-20.6,8.1-32.1,10.6c-11.5,2.5-23.7,3.6-36,3.3c-12.3-0.2-24.8-1.5-37.3-2.6
				c-12.5-1.2-24.9-2.7-37-5.3c-6-1.3-12-2.5-17.9-3.7c-5.9-1.3-11.7-2.6-17.5-3.9c-11.4-2.7-22.4-5.6-32.8-8.4
				c-10.4-2.9-20.1-5.8-29-8.8c-8.9-3-17-6.2-23.9-9.5c-7-3.2-13-6-17.9-8.5c-4.9-2.5-8.6-4.8-11-6.6c-1.2-0.9-2.1-1.6-2.7-2.1
				c-0.6-0.5-0.9-0.7-0.9-0.7c-0.2-0.2-0.3-0.6-0.1-0.8C7.7,88.8,8.1,88.7,8.3,88.9L8.3,88.9z"/>
		</g>
	</g>
	<g>
		<g>
			<path class="st0" d="M119.6,119.7c14.3,10,11.8,36.5,15.3,43.3c2.3,4.6,41.7,49.8,53.9,53.9c10.4,3.5,15.6-2.1,13.1-9.3
				c-3.1-9-23.7-30.2-24-35.8c-0.3-5.6-22.7-48.1-38-52.1C125.5,116,119.6,119.7,119.6,119.7z"/>
		</g>
	</g>
	<g>
		<g>
			<path class="st2" d="M201.8,207.6c-2.8-8.2-18.3-24.2-23.1-33.5c-3.2-4.6-10-10.4-12.3-6.4c-2.6,4.4,13.2,32.8,13.2,32.8
				c-10.3-4.3-25.7-18.8-36.1-26.4c14.9,17.9,36.1,39.8,45.3,42.8C199.1,220.4,204.3,214.8,201.8,207.6z"/>
		</g>
	</g>
</g>
</svg>
