<?xml version="1.0" encoding="utf-8"?>
<!-- Generator: Adobe Illustrator 20.1.0, SVG Export Plug-In . SVG Version: 6.00 Build 0)  -->
<svg version="1.1" id="Layer_1" xmlns="http://www.w3.org/2000/svg" xmlns:xlink="http://www.w3.org/1999/xlink" x="0px" y="0px"
	 viewBox="0 0 455 220" style="enable-background:new 0 0 455 220;" xml:space="preserve">
<style type="text/css">
	.st0{fill:#34384B;}
	.st1{fill:#2C3040;}
	.st2{fill:#EADFD2;}
	.st3{fill:#C4A061;}
	.st4{fill:#667269;}
	.st5{fill:#283640;}
	.st6{fill:#292C3B;}
</style>
<g>
	<g>
		<path class="st0" d="M160.3,35.5c16.1-3.2,24.7-18.3,37.6-24.7c11.8-6.4,29-7.5,33.3-6.4c1.1,0,1.1,2.1-1.1,3.2
			c-8.6,4.3-20.4,11.8-16.1,24.7c3.2,8.6,12.9,11.8,12.9,11.8L160.3,35.5z"/>
	</g>
	<g>
		<g>
			<path class="st0" d="M351.5,159l9.7,18.3c0,0,2.1,12.9-3.2,15c-5.4,3.2-18.3,11.8-19.3,15c-2.1,3.2-4.3,8.6-4.3,11.8
				c0,1.1-1.1,1.1-1.1,0C325.7,192.3,335.4,174.1,351.5,159z"/>
		</g>
		<g>
			<path class="st1" d="M350.4,159l9.7,18.3c0,0,8.6,8.6,14,6.4c5.4-3.2,20.4-7.5,23.6-7.5s9.7,2.1,11.8,3.2c1.1,0,1.1,0,1.1-1.1
				C393.4,158,373,154.7,350.4,159z"/>
		</g>
	</g>
	<g>
		<path class="st2" d="M32.5,104.3c0,0,3.2-11.8,6.4-17.2c11.8-21.5,75.2-67.7,165.4-49.4C332.2,63.4,359,165.5,359,165.5
			c1.1,5.4-3.2,8.6-8.6,2.1c0,0-19.3-32.2-109.6-43c-24.7-3.2-93.5,2.1-96.7,2.1c-38.7-2.1-89.2-5.4-89.2-5.4
			c-15,4.3-30.1,10.7-46.2,10.7c-7.5,0-9.7-4.3-8.6-6.4C3.5,119.3,17.4,112.9,32.5,104.3z"/>
	</g>
	<g>
		<path class="st3" d="M219.4,40.9c-5.4-1.1-9.7-2.1-15-3.2C114.1,19.4,49.7,65.6,38.9,87.1c-3.2,5.4-6.4,17.2-6.4,17.2
			c0,4.3,20.4,8.6,34.4,1.1C84,96.7,99.1,92.4,141,88.1c4.3,0,60.2-3.2,79.5-6.4V40.9H219.4z"/>
	</g>
	<g>
		<path class="st4" d="M359,165.5c0,0-24.7-94.5-139.6-124.6v39.7l0,0c2.1,22.6,106.3,45.1,131,85.9
			C355.8,174.1,360.1,170.9,359,165.5z"/>
	</g>
	<g>
		<path class="st0" d="M359,165.5c0,0-26.9-102-154.7-127.8C114.1,19.4,49.7,65.6,38.9,87.1c-3.2,5.4-6.4,17.2-6.4,17.2l0,0
			c5.4,1.1,14,2.1,29-14c18.3-17.2,46.2-37.6,93.5-37.6c33.3,0,55.9,19.3,65.5,27.9c11.8-3.2,37.6,1.1,51.6,7.5
			c60.2,29,79.5,78.4,79.5,78.4C355.8,174.1,360.1,170.9,359,165.5z"/>
	</g>
	<g>
		<path class="st0" d="M108.7,109.6c2.1,8.6,6.4,21.5,18.3,31.2c14,11.8,38.7,8.6,50.5,5.4c2.1-1.1,3.2-3.2,1.1-3.2
			c-7.5-1.1-17.2-5.4-23.6-14c-10.7-11.8-16.1-20.4-22.6-22.6C121.6,103.2,107.7,105.3,108.7,109.6z"/>
	</g>
	<g>
		<path class="st0" d="M77.6,97.8c-24.7,7.5-36.5,9.7-45.1,5.4c-15,9.7-27.9,15-32.2,20.4c-1.1,3.2,2.1,6.4,8.6,6.4
			C26,131.1,40,124.7,55,119.3l0,0C49.7,118.2,67.9,105.3,77.6,97.8z"/>
	</g>
	<g>
		<g>
			<circle class="st5" cx="74.4" cy="98.9" r="4.3"/>
		</g>
	</g>
	<g>
		<path class="st6" d="M2.4,127.9C2.4,127.9,1.3,127.9,2.4,127.9c-1.1,0-2.1-1.1-2.1-1.1c0-1.1,1.1-1.1,1.1-1.1s0,0,1.1,0
			c12.9,0,50.5-10.7,65.5-23.6c0,0,1.1,0,2.1,0c0,0,0,1.1,0,2.1C52.9,117.1,15.3,127.9,2.4,127.9z"/>
	</g>
</g>
</svg>
