<?xml version="1.0" encoding="utf-8"?>
<!-- Generator: Adobe Illustrator 20.1.0, SVG Export Plug-In . SVG Version: 6.00 Build 0)  -->
<svg version="1.1" id="Layer_1" xmlns="http://www.w3.org/2000/svg" xmlns:xlink="http://www.w3.org/1999/xlink" x="0px" y="0px"
	 viewBox="0 0 631.9 220" style="enable-background:new 0 0 631.9 220;" xml:space="preserve">
<style type="text/css">
	.st0{fill:#736157;}
	.st1{fill:#5C4E47;}
	.st2{fill:#3A322E;}
	.st3{fill:#BBBCBE;}
	.st4{fill:#A18C83;}
</style>
<g>
	<path class="st0" d="M496.9,44.3c0,0,5.9,2.4,28.3-8.2c22.4-10.6,63.6-23.6,71.9-15.3c8.2,8.2,17.7,13,5.9,20
		c-11.8,8.2-84.8,38.9-93.1,31.8C501.6,66.7,476.9,44.3,496.9,44.3z"/>
	<path class="st1" d="M37.4,73.8c-4.7-5.9-14.1-17.7-8.2-24.7c0,0-1.2,0-1.2,1.2c-4.7,3.5,0,13,5.9,21.2c5.9,8.2,5.9,9.4-1.2,16.5
		c-3.5,3.5-8.2,5.9-13,7.1c5.9,3.5,9.4-1.2,15.3-2.4c0,0,5.9-2.4,7.1-5.9C42.1,83.2,42.1,79.6,37.4,73.8z"/>
	<path class="st2" d="M53.9,79.6c-3.5-2.4-3.5,7.1-17.7-8.2c-11.8-13-5.9-22.4-7.1-21.2c-5.9,7.1,4.7,18.9,8.2,24.7
		c4.7,5.9,4.7,8.2,3.5,11.8c0,1.2-1.2,2.4-2.4,3.5c0,0,0,1.2-1.2,1.2c-3.5,3.5-1.2,8.2-1.2,8.2C50.4,90.2,57.4,82,53.9,79.6z"/>
	<path class="st1" d="M606.5,24.3c-3.5,3.5-21.2,3.5-29.5,8.2c-8.2,4.7-1.2,3.5,7.1,1.2c8.2-2.4,23.6-7.1,23.6-7.1
		S607.7,25.4,606.5,24.3z"/>
	<path class="st0" d="M626.7,27.1c-4.8-3.9-8.4-3.9-8.4-3.9s-15.7,3.9-24.1,7.8c-8.4,2.6-15.7,5.2-7.2-1.3c8.4-5.2,26.5-5.2,30.2-9
		c-1.2-1.3-2.4-1.3-4.8-2.6c-25.3,3.9-70,23.3-76,27.1c-7.2,3.9-10.9,12.9-16.9,7.8s-26.5-12.9-59.1-31
		c-32.6-16.8-109.8-10.3-148.3-9c-39.8,1.3-115.8,22-149.5,19.4c-32.6-2.6-38.6-20.7-55.5-23.3C90,6.4,68.3,15.5,58.6,19.3
		s-22.9,1.3-36.2-2.6C8,12.9-0.4,46.5,3.2,67.2C5.6,82.7,14,91.7,20.1,95.6c2.4-1.3,12.2-4.3,14.6-6.9c7.2-7.8,19.2-12.5,19.2-7.4
		c0,5.2-18.1,16.8-12.1,22c6,1.3,15.7,1.3,21.7-1.3c9.6-3.9,0,5.2,0,10.4c0,5.2,27.7,60.7,59.1,80.1c30.2,19.4,59.1,3.9,66.3-9
		c7.2-12.9,54.3-25.9,54.3-25.9s30.2,19.4,90.5-11.6c0,0,86.8-41.4,119.4-54.3c32.6-11.6,56.7-22,60.3-25.9c3.6-3.9,10.9,0,25.3-6.5
		c14.5-6.5,65.1-1.3,90.5-32.3l0,0C627.9,29.7,626.7,28.4,626.7,27.1z"/>
	<path class="st1" d="M615.9,33.7c-31.7,15.5-74.2,23.6-88.4,29.5c-14.1,5.9-21.2,2.4-24.7,5.9c-3.5,3.5-27.1,11.8-58.9,23.6
		c-31.8,10.6-116.6,49.5-116.6,49.5c-58.9,27.1-88.4,10.6-88.4,10.6s-46,11.8-53,23.6c-7.1,11.8-35.3,25.9-64.8,8.2
		s-55.4-68.3-55.4-73.1c0-4.7,8.2-13-2.4-9.4c-5.9,2.4-15.3,2.4-21.2,1.2c-5.9-4.7,11.8-15.3,11.8-20c0-4.7-3.5-4.7-5.9-4.7
		c-3.5,0-8.2-1.2-14.1-8.2S28,57.3,28,53.7s-2.4-2.4-2.4-2.4l0,0c2.4-1.2-4.7,7.1,8.2,21.2C48,87.9,48,78.5,51.5,80.8
		c3.5,2.4-3.5,10.6-17.7,18.9c0,1.2,1.2,1.2,2.4,2.4l0,0l0,0c3.5,3.5,8.2,7.1,18.9,10.6c0,0,46,135.5,152,100.2
		s149.6-67.2,196.8-89.5c37.7-17.7,69.5-30.6,93.1-40.1c4.7-1.2,50.7-9.4,78.9-21.2C601.8,51.4,614.8,39.6,615.9,33.7L615.9,33.7z"
		/>
	<path class="st2" d="M64.5,26.6c0,0,5.9-4.7,16.5-2.4c10.6,2.4,13,13,8.2,8.2c-4.7-3.5-13-5.9-21.2-2.4
		C58.6,32.5,61,27.8,64.5,26.6z"/>
	<path class="st3" d="M39.8,93.8c0,0-2.4-3.5-1.2-3.5c1.2,0,4.7,2.4,4.7,2.4S42.1,93.8,39.8,93.8z"/>
	<path class="st4" d="M588.8,21.9C570,24.3,534.6,36,524,43.1c-7.1,4.7-10.6,4.7-14.1,2.4c-10.6-10.6-28.3-21.2-42.4-25.9
		c-33-10.6-126.1-33-240.4,0c0,0-56.6,14.1-77.8,0S109.3-2.8,79.8,8.9c-28.3,11.8-33,5.9-48.3,3.5S15,16,6.8,29
		C-1.5,40.8-3.8,67.9,9.1,85.5c4.7,5.9,7.1,9.4,10.6,10.6c1.2,0,2.4-1.2,3.5-1.2C18.6,91.4,9.1,83.2,6.8,69
		c-3.5-18.9,5.9-49.5,18.9-46C39.8,26.6,51.5,29,61,25.4s30.6-11.8,47.1-9.4c10.6,1.2,16.5,9.4,28.3,15.3c0,0,15.3,10.6,22.4,18.9
		c7.1,7.1-3.5-13,3.5-11.8c31.8,2.4,107.2-17.7,146.1-17.7c38.9-1.2,113.1-7.1,144.9,8.2c31.8,15.3,51.8,23.6,57.7,28.3
		s9.4-3.5,16.5-7.1c5.9-3.5,48.3-21.2,74.2-24.7C599.4,21.9,594.7,20.7,588.8,21.9z"/>
	<path class="st1" d="M265.9,203c33.6-14.9,61.2-24.8,68.4-31c2.4-1.2,2.4-2.5,2.4-3.7c-18,3.7-69.6,28.5-90,37.2
		c-22.8,9.9-43.2-6.2-43.2-6.2l0,0c1.2,1.2,1.2,1.2,2.4,2.5C217.9,209.2,232.3,217.8,265.9,203z"/>
	<path class="st0" d="M243.6,198.8c-23,10.3-13.3-1.3-1.2-9c12.1-7.7,32.6-15.4,32.6-15.4c-10.9,1.3-21.8,0-25.4-10.3
		c-9.7-21.8-27.8-28.2-47.1-24.4c-19.3,5.1-24.2,19.2-20.5,26.9c0,0,9.7,24.4,20.5,34.6l0,0c0,0,20.5,16.7,43.5,6.4
		c20.5-9,72.5-35.9,90.7-38.5c0,0,0-1.3-1.2-1.3l0,0C319.8,162.8,265.4,187.2,243.6,198.8z"/>
	<path class="st4" d="M313.1,166.8c-9.4,1.2-23.6,5.9-36.5,8.2c0,0-20,7.1-31.8,14.1c-11.8,7.1-21.2,18.9,1.2,8.2
		c22.4-9.4,74.2-33,89.5-29.5l0,0C332,165.7,323.7,164.5,313.1,166.8z"/>
	<path class="st4" d="M191.8,153.9c0,0,3.5-10.6,14.1-11.8c11.8-1.2,21.2,2.4,23.6,5.9c1.2,3.5-7.1,0-18.9,3.5
		C198.8,155.1,189.4,160.9,191.8,153.9z"/>
</g>
</svg>
