<?xml version="1.0" encoding="utf-8"?>
<!-- Generator: Adobe Illustrator 20.1.0, SVG Export Plug-In . SVG Version: 6.00 Build 0)  -->
<svg version="1.1" id="Layer_1" xmlns="http://www.w3.org/2000/svg" xmlns:xlink="http://www.w3.org/1999/xlink" x="0px" y="0px"
	 viewBox="0 0 455 220" style="enable-background:new 0 0 455 220;" xml:space="preserve">
<style type="text/css">
	.st0{fill:#4F2B11;}
	.st1{fill:#AD7B40;}
	.st2{fill:#97212A;}
	.st3{fill:#FFFFFF;}
	.st4{fill:#F7DAAA;}
</style>
<path class="st0" d="M176.4,36.6c0,0,44.9-28.4,80.4-30.7c35.5,0-18.9,21.3-18.9,21.3s30.7-7.1,42.6,9.5
	c11.8,16.6-16.6,9.5-16.6,9.5s26,7.1,30.7,16.6c2.4,9.5-14.2,7.1-14.2,7.1S297,79.4,297,86.5c0,7.1,0,9.5,0,9.5s21.3,11.8,9.5,16.6
	C297,114.7,176.4,36.6,176.4,36.6z"/>
<path class="st0" d="M188.2,197.5c0,0,40.2,21.3,73.3,18.9c30.7-2.4-16.6-16.6-16.6-16.6s26,2.4,35.5-11.8
	c9.5-16.6-14.2-7.1-14.2-7.1s23.7-7.1,23.7-16.6c2.4-9.5-11.8-4.7-11.8-4.7s14.2-9.5,14.2-16.6c0-7.1,0-9.5,0-9.5
	s16.6-11.8,7.1-14.2C285.2,117,188.2,197.5,188.2,197.5z"/>
<path class="st1" d="M332.5,107.6c0,0-7.1,11.8-21.3,4.7c-14.2-7.1-35.5-47.3-59.1-66.2c-23.7-16.6-59.1-26-89.9-7.1
	c-30.7,18.9-23.7,26-14.2,35.5c9.5,11.8,42.6,78.1,37.8,82.8c-2.4,4.7-61.5,18.9-61.5,26c0,4.7,40.2,26,78.1,18.9
	c37.8-7.1,87.5-54.4,99.3-63.9c14.2-9.5,9.5-4.7,28.4,9.5c18.9,14.2,23.7,28.4,23.7,28.4s35.5-21.3,23.7-59.1
	c-11.8-42.6-30.7-37.8-30.7-37.8L332.5,107.6z"/>
<circle class="st2" cx="183.5" cy="69.7" r="14.2"/>
<circle class="st3" cx="183.5" cy="69.7" r="9.5"/>
<path class="st3" d="M119.6,72.1c0,0-11.8,26-7.1,42.6c0,0,4.7-23.7,11.8-28.4c0,0-7.1,26,0,37.8c0,0,2.4-26,9.5-30.7
	c0,0-4.7,28.4,0,40.2c0,0,2.4-18.9,9.5-28.4c0,0-2.4,23.7,0,30.7c2.4,7,7.1-21.3,7.1-21.3s2.4,18.9,4.7,18.9c2.4,0,2.4-9.5,2.4-9.5
	S131.5,72.1,119.6,72.1z"/>
<path class="st3" d="M112.5,178.5c0,0,4.7-33.1,21.3-40.2c0,0-9.5,23.7-7.1,33.1c0,0,9.5-26,18.9-28.4c0,0-11.8,21.3-9.5,30.7
	c0,0,9.5-26,18.9-30.7c0,0-7.1,14.2-7.1,26c0,0,9.5-16.6,14.2-21.3c4.7-2.4-4.7,18.9-4.7,18.9s7.1-11.8,9.5-9.5
	c2.4,0-2.4,9.5-2.4,9.5S122,183.3,112.5,178.5z"/>
<path class="st0" d="M188.2,162c0,0,0-35.5-33.1-85.2c-14.2-26-18.9-28.3-28.4-26c-9.5,2.3-16.6,11.8-9.5,18.9
	c7.1,7.1,63.9,80.4,61.5,85.2c-2.4,4.7-47.3,9.5-61.5,14.2c-11.8,4.7-18.9,18.9-4.7,23.7c14.2,2.4,56.8-18.9,66.2-21.3
	C188.2,166.7,190.6,171.5,188.2,162z"/>
<path class="st0" d="M197.7,121.8c0,0-2.4-26,28.4-30.7v54.4C228.4,145.4,200,145.4,197.7,121.8z"/>
<circle class="st4" cx="242.6" cy="112.3" r="7.1"/>
<circle class="st4" cx="259.2" cy="128.9" r="7.1"/>
<circle class="st4" cx="268.6" cy="107.6" r="4.7"/>
<circle class="st4" cx="240.3" cy="133.6" r="4.7"/>
<circle class="st4" cx="181.1" cy="95.8" r="4.7"/>
<circle class="st4" cx="221.3" cy="81.6" r="4.7"/>
<circle class="st4" cx="204.8" cy="157.3" r="4.7"/>
<circle class="st4" cx="292.3" cy="126.5" r="4.7"/>
<circle class="st4" cx="228.4" cy="169.1" r="4.7"/>
</svg>
