<?xml version="1.0" encoding="utf-8"?>
<!-- Generator: Adobe Illustrator 20.1.0, SVG Export Plug-In . SVG Version: 6.00 Build 0)  -->
<svg version="1.1" id="Layer_1" xmlns="http://www.w3.org/2000/svg" xmlns:xlink="http://www.w3.org/1999/xlink" x="0px" y="0px"
	 viewBox="0 0 792 41" style="enable-background:new 0 0 792 41;" xml:space="preserve">
<style type="text/css">
	.st0{fill:#14141F;}
</style>
<rect y="-14" width="792" height="55"/>
<path class="st0" d="M742.7,26c-4.5-1-33.4-0.6-38-0.6s-14.4,6.5-20,7.1c-5.6,0.6-20.2-1.8-30-1.9s-16.6-1.3-20.2,0.1
	c-3.6,1.4-8.1,2.6-10.3,2.5S608,30.4,608,30.4s-19.1,1.9-23.8,3.1c-4.7,1.2-14.9-1.6-17.5-1.6s-21.9,3.8-25,2.7
	c-1.4-0.5-3.2-0.4-5.5-0.4c-9.1,0-34.9-5.7-40.3-3.1S471,36,463,33.7s-6.6-4.6-24-2.9c-17.4,1.7-34.6,8.6-43.7,8s-72.9,1.1-80.6-1.1
	s-20.3-6.3-22.9-5.7S191.1,35.4,184,34s-21.7-3.7-27.1-0.9s-86.3,2.3-95.4-0.6s-16.6,3.1-26.9,4s-34.9-5.7-34.9-5.7v10.6h792.9V9
	C761.7,7.1,747.2,27.1,742.7,26z"/>
</svg>
