<?xml version="1.0" encoding="utf-8"?>
<!-- Generator: Adobe Illustrator 20.1.0, SVG Export Plug-In . SVG Version: 6.00 Build 0)  -->
<svg version="1.1" id="Layer_1" xmlns="http://www.w3.org/2000/svg" xmlns:xlink="http://www.w3.org/1999/xlink" x="0px" y="0px"
	 viewBox="0 0 792 612" style="enable-background:new 0 0 792 612;" xml:space="preserve">
<style type="text/css">
	.st0{fill:#14141F;}
</style>
<path class="st0" d="M791.8-0.5c-2.6,3.4-5.7,10.3-7.1,11.7c-1.4,1.4-6,9.7-6,10.6s-0.6,11.4-2.9,18.3c-2.3,6.9-6.3,14-7.1,21.7
	s-5.7,22.6-6,28.3c-0.3,5.7,0.6,23.1-2.3,26.3c-2.9,3.1-2.9,2.9-2.9,8.9c0,6-7.1,36.3-11.4,45.4c-4.3,9.1-9.4,12.6-13.1,16.3
	s-4.6,5.4-4.6,12.9s-0.3,13.4-6.6,15.7c-6.3,2.3-7.4,0.9-10,3.1s-1.1,4-6.3,5.7c-5.1,1.7-16-0.9-19.4,2.3s-5.4,9.7-5.4,13.7
	s-2.9,7.7-4.3,9.7c-1.4,2-5.4,2.9-5.4,6s0.6,14.6-2.3,14.3c-2.9-0.3-6-5.7-6.9-2c-0.9,3.7-5.7,14.9-8,15.4c-2.3,0.6-4,5.7-6.6,5.7
	s-5.4-3.1-6-0.6c-0.6,2.6-14.9,30-16.6,39.4c-1.7,9.4-3.1,21.7-4.9,21.7c-1.7,0-6.6,1.4-8.3,10.3s-0.3,14-1.7,18.6
	c-1.4,4.6-1.1,10.6-2.9,14.9c-1.7,4.3-3.7,4-5.4,4.3c-1.7,0.3-8,22.9-8,25.1c0,2.3-7.4,25.4-8.3,37.2c-0.9,11.7-2.9,18.6-3.4,22.3
	c-0.6,3.7-0.9,2.3-2.6,6.6c-1.7,4.3-1.1,4.3-2.3,8.9c-1.1,4.6,0.9,7.4-1.1,9.7c-2,2.3-4.6,1.4-4.9,3.4c-0.3,2,0.6,8.6-1.4,9.7
	c-2,1.1-4.9,0.9-4.9,5.7s-0.3,12-2.3,14.3c-2,2.3-4.3,3.1-4.9,7.7c-0.6,4.6-2,20.6-2.6,26.6s-0.9,15.7-2,21.7
	c-1.1,6,1.1,10.3-2.6,10.3c-3.7,0-4.9-2.3-14-2.3s-34.9-5.7-40.3-3.1c-5.4,2.6-24.9,4.9-32.9,2.6c-8-2.3-6.6-4.6-24-2.9
	c-17.4,1.7-34.6,8.6-43.7,8c-9.1-0.6-72.9,1.1-80.6-1.1s-20.3-6.3-22.9-5.7c-2.6,0.6-100.6,3.4-107.7,2c-7.1-1.4-21.7-3.7-27.1-0.9
	s-86.3,2.3-95.4-0.6c-9.1-2.9-16.6,3.1-26.9,4s-34.9-5.7-34.9-5.7v10.6h791.9V-0.5z"/>
</svg>
