<?xml version="1.0" encoding="utf-8"?>
<!-- Generator: Adobe Illustrator 20.1.0, SVG Export Plug-In . SVG Version: 6.00 Build 0)  -->
<svg version="1.1" id="Layer_1" xmlns="http://www.w3.org/2000/svg" xmlns:xlink="http://www.w3.org/1999/xlink" x="0px" y="0px"
	 viewBox="0 0 543.5 220" style="enable-background:new 0 0 543.5 220;" xml:space="preserve">
<style type="text/css">
	.st0{fill:#9CB1BD;}
	.st1{fill:#C8E1EE;}
	.st2{fill:#293941;}
</style>
<g>
	<path class="st0" d="M200.3,55.7c0,0,7.5-2.5,11.2-10.6c3.7-8.7,34.8-49.8,46-44.8c10.6,5-8.7,32.4,1.9,47.3
		c10.6,15.6,21.8,18.7,21.8,18.7s89,11.8,108.9,15.6c19.9,3.7,70.3,11.8,70.3,11.8s58.5-54.1,75.3-51.6
		c16.8,2.5-33.6,40.4-33.6,69.1c-0.6,28.6,18,57.9,18,57.9s-44.8-26.1-60.4-55.4c0,0-78.4,9.3-98.9,16.2c0,0-11.2,15.6-13.1,19.9
		c-1.9,5-18.7-12.4-18.7-12.4s-66,22.4-117,19.3c-51-3.1-62.8-4.4-100.8-8.7c-38-4.4-65.3-18-67.2-21.2s17.4-1.2,17.4-1.2
		s-15.6-5-29.2-5.6c-13.1-0.6-32.4-13.7-31.7-18C0.6,97.4,90.8,55.7,200.3,55.7z"/>
	<path class="st1" d="M0,104.9c0,0,62.2,14.9,90.8,13.1s22.4,21.8,102,23c79.6,1.2,70.3-12.4,117-13.7
		c46.7-1.2,117.6-30.5,154.9-19.3c0,0,21.2,5,38,49.8c0,0-29.9-25.5-43.6-44.2c0,0-67.2,4.4-103.9,15.6
		c-37.3,11.2-109.5,25.5-142.5,27.4c-33,1.9-106.4-5-133.1-14.9c-27.4-10-44.8-13.1-35.5-14.9c8.7-1.9,17.4-1.2,17.4-1.2
		s-19.3-3.1-29.2-5.6C21.8,117.3,4.4,108.6,0,104.9z"/>
	<circle class="st2" cx="42.9" cy="101.1" r="4.4"/>
	<g>
		<path class="st2" d="M118.8,92.4c0,0-8.7,26.8,2.5,45.4C121.3,137.9,120.1,114.8,118.8,92.4z"/>
		<path class="st2" d="M128.8,92.4c0,0-8.7,26.8,2.5,45.4C131.3,137.9,130,114.8,128.8,92.4z"/>
		<path class="st2" d="M138.1,92.4c0,0-8.7,26.8,2.5,45.4C140.6,137.9,139.4,114.8,138.1,92.4z"/>
	</g>
	<path class="st0" d="M222.7,131.6c0,0-11.2,20.5-14.9,40.4c-3.7,19.9,5.6,46.7,0,47.9c-5.6,1.2-55.4-50.4-64.1-88.3
		c0,0-4.4-7.5,18.7-9.3C185.4,121.1,222.7,131.6,222.7,131.6z"/>
</g>
</svg>
