<?xml version="1.0" encoding="utf-8"?>
<!-- Generator: Adobe Illustrator 20.1.0, SVG Export Plug-In . SVG Version: 6.00 Build 0)  -->
<svg version="1.1" id="Layer_1" xmlns="http://www.w3.org/2000/svg" xmlns:xlink="http://www.w3.org/1999/xlink" x="0px" y="0px"
	 viewBox="0 0 1022.8 220" style="enable-background:new 0 0 1022.8 220;" xml:space="preserve">
<style type="text/css">
	.st0{fill:#43989D;}
	.st1{fill:#57A4A7;}
	.st2{fill:#2E3F4A;}
	.st3{fill:#65BEBE;}
	.st4{fill:#B7B37F;}
	.st5{fill:#A7A374;}
</style>
<g>
	<g>
		<g>
			<path class="st0" d="M962.8,70.5c12.8-18.1,20.2-41.4,25.5-65.9c0,0,47.8,26.6,30.8,68c-4.3,6.4-11.7,9.6-11.7,9.6h-44.6
				L962.8,70.5z"/>
		</g>
		<g>
			<path class="st1" d="M962.8,95c12.8,18.1,20.2,41.4,25.5,65.9c0,0,47.8-26.6,30.8-68c-4.3-6.4-11.7-9.6-11.7-9.6h-44.6L962.8,95z
				"/>
		</g>
	</g>
	<g>
		<path class="st1" d="M312.4,99.2c-2.1-19.1,2.1-55.3,40.4-69.1c60.6-22.3,106.3,5.3,145.6-4.3c32.9-7.4,97.8-24.4,130.7-25.5
			c205.1-6.4,339,65.9,339,65.9c20.2,12.8,10.6,36.1-21.3,34c0,0-78.6,1.1-103.1,11.7c-25.5,9.6-127.5,68-213.6,76.5
			c-95.6,9.6-207.2,2.1-280.6-38.3C323.1,136.4,313.5,114.1,312.4,99.2z"/>
	</g>
	<g>
		<g>
			<circle class="st2" cx="361.3" cy="99.2" r="6.4"/>
		</g>
	</g>
	<g>
		<path class="st3" d="M531.4,138.6c-59.5,0-114.8,8.5-160.5,22.3c72.3,30.8,172.2,36.1,258.2,27.6c27.6-3.2,57.4-10.6,85-20.2
			C664.2,149.2,601.5,138.6,531.4,138.6z"/>
	</g>
	<g>
		<path class="st1" d="M546.2,137.5c0,0-4.3,32.9,12.8,58.4c15.9,24.4,70.1,26.6,88.2,22.3c3.2-1.1,4.3-3.2,1.1-4.3
			c-9.6-5.3-29.8-18.1-35.1-31.9c-11.7-38.3-37.2-28.7-48.9-44.6C560.1,132.2,547.3,134.3,546.2,137.5z"/>
	</g>
	<g>
		<g>
			<path class="st3" d="M552.6,49.3c-2.1-4.3-8.5-8.5-12.8-8.5c-3.2,0-11.7,1.1-12.8,2.1c-4.3,1.1-7.4,4.3-8.5,8.5
				c-2.1,6.4,0,17,4.3,20.2c5.3,3.2,17,4.3,21.3,3.2c5.3-1.1,8.5-5.3,10.6-10.6C556.9,58.8,555.8,53.5,552.6,49.3z"/>
		</g>
		<g>
			<path class="st3" d="M616.4,41.8c-1.1-2.1-3.2-4.3-6.4-4.3c-1.1,0-5.3,1.1-6.4,1.1c-2.1,1.1-3.2,2.1-4.3,4.3
				c-1.1,3.2,0,7.4,2.1,9.6c2.1,1.1,7.4,2.1,9.6,1.1c2.1-1.1,4.3-2.1,5.3-4.3C618.5,47.2,617.4,44,616.4,41.8z"/>
		</g>
		<g>
			<path class="st3" d="M640.8,29.1c-1.1-2.1-3.2-4.3-6.4-4.3c-1.1,0-5.3,1.1-6.4,1.1c-2.1,1.1-3.2,2.1-4.3,4.3
				c-1.1,3.2,0,7.4,2.1,9.6c2.1,2.1,7.4,2.1,9.6,1.1c2.1-1.1,4.3-2.1,5.3-4.3C641.9,34.4,641.9,31.2,640.8,29.1z"/>
		</g>
		<g>
			<path class="st3" d="M671.6,4.6c-1.1-1.1-2.1-2.1-4.3-2.1c-1.1,0-3.2,0-4.3,1.1c-1.1,0-2.1,1.1-2.1,2.1c-1.1,2.1,0,5.3,1.1,5.3
				c2.1,1.1,5.3,1.1,6.4,1.1c1.1,0,2.1-1.1,3.2-3.2C672.7,6.8,671.6,5.7,671.6,4.6z"/>
		</g>
		<g>
			<path class="st3" d="M703.5,7.8c-1.1-2.1-3.2-4.3-5.3-4.3c-1.1,0-5.3,0-6.4,0c-2.1,0-3.2,2.1-4.3,3.2c-1.1,3.2-1.1,7.4,1.1,9.6
				c2.1,2.1,7.4,3.2,9.6,3.2s4.3-2.1,5.3-4.3C704.6,13.2,704.6,10,703.5,7.8z"/>
		</g>
		<g>
			<path class="st3" d="M659.9,38.7c-1.1-1.1-2.1-2.1-4.3-2.1c-1.1,0-3.2,0-4.3,1.1c-1.1,0-2.1,1.1-2.1,2.1c-1.1,2.1,0,5.3,1.1,5.3
				c2.1,1.1,5.3,1.1,6.4,1.1c1.1,0,2.1-1.1,3.2-3.2C661,41.8,661,40.8,659.9,38.7z"/>
		</g>
		<g>
			<path class="st3" d="M689.7,30.2c-1.1-1.1-2.1-2.1-4.3-2.1c-1.1,0-3.2,0-4.3,1.1c-1.1,0-2.1,1.1-2.1,2.1c-1.1,2.1,0,5.3,1.1,5.3
				c2.1,1.1,5.3,1.1,6.4,1.1c1.1,0,2.1-1.1,3.2-3.2C690.8,33.3,690.8,31.2,689.7,30.2z"/>
		</g>
		<g>
			<path class="st3" d="M737.5,13.2c-1.1-1.1-2.1-2.1-4.3-2.1c-1.1,0-3.2,0-4.3,1.1c-1.1,0-2.1,1.1-2.1,2.1c-1.1,2.1,0,5.3,1.1,5.3
				c2.1,1.1,5.3,1.1,6.4,1.1s2.1-1.1,3.2-3.2C738.6,15.3,738.6,14.2,737.5,13.2z"/>
		</g>
		<g>
			<path class="st3" d="M618.5,13.2c-1.1-2.1-5.3-5.3-8.5-5.3c-2.1,0-7.4,1.1-8.5,1.1c-2.1,1.1-4.3,3.2-5.3,5.3
				c-1.1,4.3,0,10.6,3.2,12.8c3.2,2.1,10.6,3.2,13.8,2.1c3.2-1.1,5.3-3.2,6.4-6.4C620.6,19.5,619.6,16.3,618.5,13.2z"/>
		</g>
		<g>
			<path class="st3" d="M581.3,15.3c-3.2-3.2-9.6-3.2-13.8-1.1c-7.4,3.2-13.8,5.3-14.9,12.8c0,4.3,4.3,12.8,8.5,13.8
				c5.3,2.1,14.9,0,19.1-2.1C591.9,33.3,584.5,18.5,581.3,15.3z"/>
		</g>
		<g>
			<path class="st3" d="M503.7,36.5c-3.2-3.2-9.6-3.2-13.8-1.1c-7.4,3.2-13.8,5.3-14.9,12.8c0,4.3,4.3,12.8,8.5,13.8
				c5.3,2.1,14.9,0,19.1-2.1C515.4,53.5,506.9,38.7,503.7,36.5z"/>
		</g>
		<g>
			<path class="st3" d="M586.6,52.5c-3.2-2.1-6.4-3.2-10.6-3.2c-4.3,1.1-7.4,3.2-8.5,6.4c-1.1,2.1,1.1,7.4,2.1,9.6
				c4.3,5.3,8.5,5.3,13.8,4.3c2.1-1.1,4.3-2.1,6.4-4.3C593,61,589.8,54.6,586.6,52.5z"/>
		</g>
		<g>
			<path class="st3" d="M460.2,34.4c-2.1-3.2-4.3-4.3-8.5-4.3c-3.2,0-7.4,1.1-8.5,3.2c-1.1,1.1-1.1,6.4,0,8.5
				c2.1,5.3,6.4,6.4,10.6,6.4c2.1,0,4.3-1.1,6.4-2.1C463.3,42.9,462.3,37.6,460.2,34.4z"/>
		</g>
		<g>
			<path class="st3" d="M641.9,4.6c-2.1-1.1-4.3-2.1-7.4-1.1c-2.1,1.1-5.3,3.2-5.3,5.3c0,1.1,1.1,5.3,2.1,6.4
				c3.2,3.2,6.4,3.2,9.6,2.1c1.1-1.1,3.2-2.1,4.3-3.2C646.1,10,644,6.8,641.9,4.6z"/>
		</g>
		<g>
			<path class="st3" d="M665.3,17.4c-2.1-1.1-4.3-2.1-7.4-1.1c-2.1,1.1-5.3,3.2-5.3,5.3c0,1.1,1.1,5.3,2.1,6.4
				c3.2,3.2,6.4,3.2,9.6,2.1c2.1-1.1,3.2-2.1,4.3-3.2C669.5,22.7,667.4,18.5,665.3,17.4z"/>
		</g>
		<g>
			<path class="st3" d="M717.3,24.8c-2.1-1.1-4.3-2.1-7.4-1.1c-2.1,1.1-5.3,3.2-5.3,5.3c0,1.1,1.1,5.3,2.1,6.4
				c3.2,3.2,6.4,3.2,9.6,2.1c2.1-1.1,3.2-2.1,4.3-3.2C721.6,30.2,719.5,25.9,717.3,24.8z"/>
		</g>
		<g>
			<path class="st3" d="M770.5,12.1c-2.1-1.1-4.3-2.1-7.4-1.1c-2.1,1.1-4.3,3.2-5.3,5.3c0,1.1,1.1,5.3,2.1,6.4
				c3.2,3.2,6.4,3.2,9.6,2.1c2.1-1.1,3.2-2.1,4.3-3.2C775.8,17.4,773.7,14.2,770.5,12.1z"/>
		</g>
		<g>
			<path class="st3" d="M800.2,22.7c-1.1-1.1-3.2-1.1-4.3-1.1c-1.1,0-3.2,2.1-3.2,3.2c0,1.1,1.1,3.2,1.1,3.2
				c2.1,2.1,4.3,2.1,5.3,1.1c1.1,0,2.1-1.1,2.1-2.1C803.4,27,801.3,23.8,800.2,22.7z"/>
		</g>
		<g>
			<path class="st3" d="M465.5,55.7c-2.1-1.1-4.3-2.1-7.4-1.1c-2.1,1.1-4.3,3.2-5.3,5.3c0,1.1,1.1,5.3,2.1,6.4
				c3.2,3.2,6.4,3.2,9.6,2.1c2.1-1.1,3.2-2.1,4.3-3.2C469.7,61,467.6,56.7,465.5,55.7z"/>
		</g>
		<g>
			<path class="st3" d="M421.9,33.3c-2.1-1.1-3.2-1.1-5.3-1.1c-2.1,0-4.3,2.1-4.3,4.3c0,1.1,1.1,4.3,1.1,5.3
				c2.1,3.2,5.3,2.1,7.4,1.1c1.1,0,2.1-2.1,3.2-3.2C425.1,37.6,424,34.4,421.9,33.3z"/>
		</g>
		<g>
			<path class="st3" d="M535.6,21.7c-3.2-1.1-6.4-1.1-10.6,0c-3.2,1.1-6.4,4.3-7.4,7.4c0,2.1,2.1,5.3,4.3,6.4
				c5.3,3.2,9.6,2.1,13.8-1.1c2.1-1.1,3.2-3.2,5.3-5.3C544.1,27,539.9,22.7,535.6,21.7z"/>
		</g>
	</g>
	<g>
		<g>
			<path class="st4" d="M315.6,113c5.3-4.3,0-21.3-4.3-22.3C206.2,90.7,106.3,96,0,102.4C106.3,107.7,209.4,112,315.6,113z"/>
		</g>
		<g>
			<g>
				<path class="st5" d="M169,93.9c-2.1,0-4.3,0-5.3,0c-1.1,4.3-3.2,10.6-9.6,15.9c2.1,0,5.3,0,7.4,0
					C165.8,103.5,167.9,98.2,169,93.9z"/>
			</g>
			<g>
				<path class="st5" d="M145.6,93.9c-2.1,0-4.3,0-5.3,0c-1.1,4.3-3.2,8.5-8.5,13.8c2.1,0,5.3,0,7.4,0
					C143.5,103.5,144.5,98.2,145.6,93.9z"/>
			</g>
			<g>
				<path class="st5" d="M98.8,96c-2.1,0-4.3,0-5.3,0c-1.1,3.2-3.2,6.4-5.3,9.6c2.1,0,4.3,0,6.4,0C96.7,103.5,97.8,99.2,98.8,96z"/>
			</g>
			<g>
				<path class="st5" d="M122.2,95c-2.1,0-4.3,0-5.3,0c-1.1,3.2-3.2,7.4-7.4,11.7c2.1,0,4.3,0,7.4,0
					C120.1,103.5,121.2,99.2,122.2,95z"/>
			</g>
			<g>
				<path class="st5" d="M72.3,105.6c2.1-3.2,3.2-5.3,3.2-7.4c-2.1,0-4.3,0-6.4,0c-1.1,2.1-2.1,4.3-4.3,7.4
					C68,105.6,70.1,105.6,72.3,105.6z"/>
			</g>
			<g>
				<path class="st5" d="M238,91.8c-2.1,0-3.2,0-5.3,0c0,5.3-3.2,12.8-12.8,20.2c3.2,0,5.3,0,8.5,0C235.9,104.5,238,96,238,91.8z"/>
			</g>
			<g>
				<path class="st5" d="M307.1,90.7c-2.1,0-3.2,0-5.3,0c0,5.3-2.1,14.9-14.9,22.3c3.2,0,6.4,0,9.6,0C305,104.5,307.1,96,307.1,90.7
					z"/>
			</g>
			<g>
				<path class="st5" d="M284.8,90.7c-2.1,0-3.2,0-5.3,0c0,5.3-2.1,13.8-13.8,21.3c3.2,0,6.4,0,8.5,0
					C281.6,104.5,283.7,96,284.8,90.7z"/>
			</g>
			<g>
				<path class="st5" d="M192.4,92.9c-2.1,0-3.2,0-5.3,0c-1.1,4.3-3.2,11.7-10.6,17c2.1,0,5.3,0,7.4,0
					C189.2,103.5,191.3,97.1,192.4,92.9z"/>
			</g>
			<g>
				<path class="st5" d="M261.4,90.7c-2.1,0-3.2,0-5.3,0c0,5.3-3.2,13.8-13.8,21.3c3.2,0,5.3,0,8.5,0
					C259.3,104.5,261.4,96,261.4,90.7z"/>
			</g>
			<g>
				<path class="st5" d="M214.7,91.8c-2.1,0-3.2,0-5.3,0c-1.1,5.3-3.2,11.7-11.7,18.1c3.2,0,5.3,0,8.5,0
					C212.5,104.5,214.7,97.1,214.7,91.8z"/>
			</g>
		</g>
	</g>
</g>
</svg>
