<?xml version="1.0" encoding="utf-8"?>
<!-- Generator: Adobe Illustrator 20.1.0, SVG Export Plug-In . SVG Version: 6.00 Build 0)  -->
<svg version="1.1" id="Layer_1" xmlns="http://www.w3.org/2000/svg" xmlns:xlink="http://www.w3.org/1999/xlink" x="0px" y="0px"
	 viewBox="0 0 455 220" style="enable-background:new 0 0 455 220;" xml:space="preserve">
<style type="text/css">
	.st0{fill:#34384B;}
	.st1{fill:#2E3242;}
	.st2{fill:#E8DACA;}
	.st3{fill:#24323B;}
	.st4{fill:#373B4F;}
</style>
<g>
	<g>
		<path class="st0" d="M149.9,53.9C165,49.4,176,14.2,187.9,7.5c11.9-7.1,17.7-6.5,21.9-5.8c0.6,0,1.3,1.3-1,2.9
			c-6.1,5.2-9.7,31-4.2,41.3c4.5,8.1,17.7,10.6,17.7,10.6L149.9,53.9z"/>
	</g>
	<g>
		<g>
			<g>
				<path class="st1" d="M360.6,158.8l16.1,16.5c0,0,6.8,6.5,11.9,3.9c7.4-3.5,15.2-11.3,18.7-13.2c2.9-1.6,8.7-5.8,11.9-6.1
					c3.9-0.6,4.2-3.2,3.2-3.9C400.3,142.3,378.6,148.8,360.6,158.8z"/>
			</g>
		</g>
		<g>
			<g>
				<path class="st0" d="M360.9,158.5l16.5,16.5c0,0,6.1,6.8,3.2,11.9c-3.9,7.4-11.9,14.8-14.2,18.1c-1.9,2.6-6.1,8.4-6.8,11.6
					c-0.6,3.9-3.5,3.9-4.2,2.9C343.5,196.9,349.9,175.9,360.9,158.5z"/>
			</g>
		</g>
	</g>
	<g>
		<path class="st0" d="M10.8,144c0,0-12.3,0.3-10.6-7.7c1.3-8.1,13.6-10.6,13.6-10.6s1.6-11.3,7.7-21.6
			c10.6-18.1,75.5-52.3,149.4-51.6c65.5,0.3,103.6,11.9,146.2,45.8c40,31.6,52.6,61,52.6,61c0.6,8.7-5.2,9.4-12.6,4.8
			c0,0-25.5-18.1-55.5-19c-30.3-1-62.3,3.9-101,7.7c-41.3,4.2-160.4,3.9-189.7-2.3c-3.5-0.6-4.5-6.1-4.5-6.1L10.8,144z"/>
	</g>
	<g>
		<path class="st2" d="M124.1,144.9c-31.9-16.5-58.1-20.3-74.5-14.5c-14.8,5.2-19,11.6-38.7,13.6c-1.3,0-5.2,0.6-5.2,0.6
			s1,5.5,4.5,6.1c21.6,4.2,91,5.8,142.9,4.5C146.3,154.6,132.1,150.4,124.1,144.9z"/>
	</g>
	<g>
		<path class="st2" d="M322.5,134.9c2.6-10.3-15.5-17.7-29.7-18.4c-14.2-0.6-27.7,2.6-40,17.7c-8.7,11-29.7,15.5-44.2,17.4
			c-0.3,0-0.6,0-1,0.3c30-3.2,55.8-6.5,80.3-7.1c0.3-1,1-1.6,1.9-2.3C302.8,129.8,320.6,142.3,322.5,134.9z"/>
	</g>
	<g>
		<path class="st2" d="M102.8,102c0.6,1.6-12.6,11-29,14.5c-16.5,3.5-30.3,5.5-31.6-0.3c-1.3-5.8,8.7-19.7,25.2-23.6
			C83.7,89.4,100.8,96.5,102.8,102z"/>
	</g>
	<g>
		<g>
			<circle class="st3" cx="43.4" cy="117.5" r="2.9"/>
		</g>
	</g>
	<g>
		<path class="st4" d="M122.8,144.9c2.9,8.7,7.1,21.3,19,29.7c14.2,10.3,38.1,6.5,49,2.6c2.3-0.6,3.2-2.9,1.3-3.2
			c-7.1-1-13.6-7.4-20-14.5c-17.7-19.4-25.5-7.4-39-18.1C128.2,138.1,121.1,140.7,122.8,144.9z"/>
	</g>
</g>
</svg>
