<?xml version="1.0" encoding="utf-8"?>
<!-- Generator: Adobe Illustrator 20.1.0, SVG Export Plug-In . SVG Version: 6.00 Build 0)  -->
<svg version="1.1" id="Layer_1" xmlns="http://www.w3.org/2000/svg" xmlns:xlink="http://www.w3.org/1999/xlink" x="0px" y="0px"
	 viewBox="0 0 455 220" style="enable-background:new 0 0 455 220;" xml:space="preserve">
<style type="text/css">
	.st0{fill:#FFD200;}
	.st1{fill:#71CEF4;}
	.st2{fill:#80A7B3;}
	.st3{fill:#153E47;}
	.st4{fill:#668287;}
	.st5{fill:#FFFFFF;}
	.st6{fill:#68B3C6;}
	.st7{fill:#00ACED;}
</style>
<g>
	<g>
		<path class="st0" d="M214.9,52c1.2,4.9,4.9,7.4,8.6,11c2.5,1.2,3.7,3.7,6.1,3.7s4.9-2.5,3.7-4.9c4.9-2.5,9.8,2.5,13.5,2.5
			c6.1,0,3.7-6.1,2.5-9.8c1.2-1.2,1.2-2.5,2.5-2.5c-1.2-6.1-15.9-6.1-20.8-6.1c-4.9,1.2-11,1.2-15.9,1.2"/>
		<path class="st0" d="M100.9,182c-7.4,1.2-9.8,11-11,17.2c0,3.7-1.2,7.4,1.2,11c1.2,2.5,1.2,2.5,1.2,4.9c0,2.5-1.2,3.7,1.2,4.9
			c7.4-4.9,6.1-12.3,8.6-18.4c2.5,4.9,4.9,7.4,4.9,0C105.8,195.5,103.3,188.1,100.9,182"/>
		<path class="st1" d="M87.4,101.1c3.7-3.7,4.9-2.5,9.8-2.5c7.4,0,8.6,2.5,9.8,9.8c1.2,6.1,2.5,11,0,15.9c-1.2,3.7-3.7,6.1-3.7,9.8
			c0,13.5,1.2,28.2,1.2,41.7c0,3.7,1.2,11-1.2,13.5c-1.2,1.2-9.8,4.9-11,3.7c-1.2-1.2-1.2-6.1-1.2-7.4c0-3.7-2.5-6.1-2.5-9.8
			c-2.5-11-3.7-22.1-6.1-33.1c-2.5-8.6-3.7-18.4-2.5-27c1.2-6.1,3.7-11,6.1-15.9"/>
		<path class="st0" d="M120.5,79c1.2,1.2,1.2,2.5,2.5,2.5c4.9,2.5,8.6,3.7,13.5,7.4c7.4,4.9,14.7,11,22.1,15.9
			c4.9,4.9,12.3,6.1,18.4,9.8c11,6.1,23.3,2.5,30.7-8.6c4.9-6.1,4.9-14.7,1.2-20.8c-3.7-3.7-8.6-4.9-13.5-6.1
			c-15.9-4.9-29.4-15.9-44.1-22.1c-6.1-3.7-20.8-7.4-28.2-4.9c-6.1,1.2-14.7,6.1-12.3,13.5"/>
		<path class="st1" d="M92.3,96.2c2.5-1.2,3.7-6.1,4.9-8.6c1.2-3.7,2.5-6.1,6.1-9.8c7.4-6.1,20.8-15.9,30.7-9.8
			c7.4,4.9,14.7,9.8,20.8,14.7c11,8.6,23.3,12.3,36.8,14.7c9.8,1.2,9.8,6.1,9.8,14.7c-1.2,11-4.9,20.8-12.3,28.2
			c-14.7,14.7-34.3,6.1-51.5-1.2c-9.8-4.9-20.8-7.4-28.2-15.9c-6.1-7.4-15.9-15.9-18.4-24.5"/>
		<path class="st1" d="M126.6,71.6c1.2,3.7,2.5,7.4,6.1,8.6c11,4.9,23.3-7.4,33.1-11s22.1-3.7,33.1-6.1c4.9-1.2,13.5-1.2,18.4-2.5
			c2.5-1.2,8.6-3.7,8.6-7.4s-6.1-4.9-8.6-6.1c-8.6-3.7-18.4-2.5-27,0c-13.5,2.5-25.7,8.6-38,9.8c-11,1.2-19.6,3.7-28.2,7.4"/>
		<path class="st0" d="M289.7,102.3c2.5,3.7,6.1,0,8.6-1.2c2.5-2.5,7.4-3.7,11-4.9c17.2-4.9,34.3-4.9,51.5-6.1
			c-8.6-6.1-7.4-15.9-3.7-24.5c-2.5,0-4.9,0-7.4,0c-2.5-1.2-7.4-3.7-7.4-6.1c-4.9,2.5-9.8,7.4-14.7,11c-6.1,3.7-11,7.4-15.9,9.8
			c-6.1,3.7-12.3,8.6-17.2,12.3c-2.5,2.5-7.4,4.9-7.4,8.6"/>
		<path class="st0" d="M273.8,151.3c-2.5-7.4,13.5-7.4,19.6-8.6c18.4,0,35.6,7.4,54,4.9c-3.7,2.5-4.9,9.8-4.9,13.5
			c-1.2,4.9,3.7,11,7.4,14.7c-7.4-1.2-22.1,1.2-27,7.4c-3.7-1.2-7.4-4.9-11-7.4c-7.4-4.9-14.7-8.6-22.1-12.3
			C282.4,159.9,275,159.9,273.8,151.3"/>
		<path class="st2" d="M161,146.4c8.6,15.9,33.1,17.2,49,17.2c13.5,0,27-1.2,40.5-3.7c7.4-1.2,14.7-2.5,20.8-6.1
			c2.5-1.2,7.4-3.7,3.7-6.1c-1.2-1.2-6.1,0-7.4,0c-11,0-22.1,1.2-31.9-3.7c-2.5-1.2-14.7-8.6-13.5-12.3c1.2-3.7,17.2-3.7,20.8-4.9
			c11-2.5,22.1-7.4,31.9-12.3c6.1-2.5,19.6-7.4,20.8-14.7c-3.7-1.2-2.5-4.9-8.6-2.5c-3.7,1.2-7.4,4.9-11,6.1
			c-8.6,3.7-14.7,4.9-23.3,4.9c-11,0-24.5-1.2-35.6-4.9c-6.1-2.5-13.5-4.9-19.6-2.5c-7.4,3.7-13.5,13.5-20.8,18.4
			C169.5,125.6,156.1,137.8,161,146.4z"/>
		<path class="st3" d="M49.4,65.5c2.5,4.9,3.7,9.8-1.2,12.3C42,81.4,34.7,72.9,32.2,68C29.8,63.1,24.9,52,34.7,52
			c2.5,0,3.7,3.7,4.9,4.9c3.7,3.7,7.4,6.1,9.8,9.8"/>
		<path class="st2" d="M114.4,71.6c4.9,20.8-23.3,34.3-40.5,31.9c-8.6-2.5-19.6-7.4-24.5-14.7c-3.7-4.9-7.4-18.4-4.9-24.5
			c3.7-6.1,9.8-11,14.7-14.7c4.9-2.5,8.6-4.9,13.5-7.4c3.7-1.2,6.1-3.7,9.8-3.7c1.2-1.2,2.5,0,4.9,0c7.4,1.2,9.8,1.2,17.2,6.1
			c4.9,4.9,8.6,8.6,12.3,14.7c3.7,7.4,0,12.3-6.1,17.2"/>
		<path class="st4" d="M54.3,60.6c0-1.2,0-1.2-1.2-1.2c1.2-1.2,1.2-1.2,0,0c-1.2-2.5-7.4,3.7-7.4,7.4c-2.5,3.7-1.2,8.6,0,12.3
			c2.5,11,8.6,15.9,17.2,20.8c8.6,3.7,17.2,6.1,25.7,3.7c3.7-1.2,18.4-8.6,18.4-13.5c-4.9-1.2-9.8,3.7-14.7,3.7
			c-3.7,0-6.1-1.2-9.8-1.2c-3.7-1.2-8.6,0-12.3-1.2s-9.8-6.1-12.3-8.6c-2.5-2.5-3.7-3.7-4.9-7.4c-1.2-4.9-1.2-11,0-15.9"/>
		<path class="st3" d="M99.7,64.3c1.2,7.4-2.5,9.8-7.4,12.3c-3.7,2.5-8.6,3.7-13.5,6.1c-7.4,3.7-4.9,8.6-6.1,15.9
			c-2.5,7.4-15.9,6.1-22.1,3.7c-3.7-2.5-4.9-7.4-4.9-12.3c0-12.3,11-17.2,19.6-25.7C72.7,55.7,97.2,44.7,99.7,64.3z"/>
		<path class="st1" d="M66.5,99.8c-3.7,1.2-11,0-14.7-1.2c-3.7-1.2-3.7-4.9-3.7-8.6c1.2-7.4,7.4-12.3,13.5-18.4
			c2.5-1.2,3.7-2.5,6.1-4.9c2.5-2.5,7.4-6.1,11-7.4c4.9-2.5,11-2.5,13.5-1.2c2.5,1.2,3.7,2.5,3.7,6.1c1.2,3.7-1.2,4.9-6.1,8.6
			c-1.2,1.2-3.7,1.2-4.9,2.5l-6.1,2.5c0,0-1.2,1.2-2.5,1.2C69,82.7,69,87.6,69,92.5c0,1.2,0,3.7,0,4.9C69,97.4,69,98.6,66.5,99.8
			L66.5,99.8z"/>
		<path class="st5" d="M87.4,71.6c-1.2-3.7-12.3-1.2-14.7-1.2c-3.7,0-6.1-1.2-8.6,0c-2.5,1.2-2.5,2.5-4.9,3.7
			C61.6,75.3,86.2,71.6,87.4,71.6z"/>
		<path class="st5" d="M72.7,77.8C72.7,79,72.7,79,72.7,77.8c-2.5,2.5-6.1,2.5-8.6,2.5c-1.2,1.2-11,3.7-11,2.5
			C50.6,79,71.5,77.8,72.7,77.8"/>
		<path class="st4" d="M173.2,128c0,0,0,0-1.2-1.2c-4.9,2.5-4.9,13.5-2.5,18.4s12.3,9.8,18.4,12.3c9.8,3.7,22.1,6.1,33.1,7.4
			c6.1,0,13.5-2.5,20.8-3.7c3.7,0,12.3-1.2,13.5-4.9c-1.2,0-3.7,1.2-6.1,1.2c-4.9,0-11,0-15.9,0c-7.4,1.2-13.5,0-20.8-2.5
			c-9.8-3.7-17.2-7.4-25.7-13.5C181.8,137.8,175.7,134.2,173.2,128"/>
		<path class="st6" d="M161,134.2c0,4.9-1.2,6.1-7.4,7.4c-4.9,0-9.8-1.2-14.7-3.7c-6.1-2.5-11-6.1-15.9-9.8c-3.7-2.5-11-4.9-11-9.8
			c6.1,0,12.3,6.1,18.4,8.6c6.1,2.5,11,3.7,17.2,4.9C152.4,132.9,157.3,132.9,161,134.2"/>
		<path class="st6" d="M86.2,112.1c-8.6,8.6-2.5,25.7-1.2,35.6c1.2,6.1,3.7,13.5,4.9,20.8c1.2,6.1,2.5,12.3,4.9,18.4
			c6.1-1.2-2.5-30.7-3.7-35.6c-2.5-9.8-6.1-18.4-7.4-28.2c-1.2-6.1,1.2-9.8,2.5-14.7"/>
		<path class="st6" d="M217.4,58.1c1.2,0,1.2,0,1.2-1.2c2.5,7.4-19.6,3.7-23.3,3.7c-8.6,1.2-18.4,4.9-27,4.9
			c2.5-6.1,14.7-7.4,19.6-7.4c6.1,0,13.5-1.2,19.6-1.2C210,56.9,214.9,55.7,217.4,58.1"/>
	</g>
	<ellipse transform="matrix(0.9188 -0.3946 0.3946 0.9188 0.3899 61.1767)" class="st7" cx="148.9" cy="29.6" rx="6.1" ry="6.1"/>
	<ellipse transform="matrix(0.919 -0.3943 0.3943 0.919 -17.377 7.7004)" class="st7" cx="10" cy="46.1" rx="7.4" ry="7.4"/>
	<ellipse transform="matrix(0.9185 -0.3955 0.3955 0.9185 2.3512 35.9358)" class="st7" cx="88.3" cy="12.3" rx="12.3" ry="12.3"/>
	<ellipse transform="matrix(0.9185 -0.3955 0.3955 0.9185 -0.8678 9.0689)" class="st7" cx="21.6" cy="6.6" rx="3.7" ry="3.7"/>
	<ellipse transform="matrix(0.9182 -0.3961 0.3961 0.9182 -3.8906 17.0585)" class="st7" cx="39.4" cy="17.9" rx="4.9" ry="4.9"/>
	<ellipse transform="matrix(0.9188 -0.3947 0.3947 0.9188 -11.9021 22.0651)" class="st7" cx="47.7" cy="40" rx="4.9" ry="4.9"/>
</g>
</svg>
