<?xml version="1.0" encoding="utf-8"?>
<!-- Generator: Adobe Illustrator 20.1.0, SVG Export Plug-In . SVG Version: 6.00 Build 0)  -->
<svg version="1.1" id="Layer_1" xmlns="http://www.w3.org/2000/svg" xmlns:xlink="http://www.w3.org/1999/xlink" x="0px" y="0px"
	 viewBox="0 0 455 220" style="enable-background:new 0 0 455 220;" xml:space="preserve">
<style type="text/css">
	.st0{fill:#001539;}
	.st1{fill:#FAC7B3;}
	.st2{fill:#FFDFBE;}
	.st3{fill:#F6921E;}
	.st4{fill:url(#SVGID_1_);}
</style>
<g>
	<g>
		<g>
			<g>
				<ellipse transform="matrix(0.9883 -0.1525 0.1525 0.9883 -17.1366 6.1933)" class="st0" cx="31.8" cy="114.8" rx="9" ry="9"/>
			</g>
		</g>
	</g>
	<path class="st1" d="M423.3,92.7c0,0,4.5,13.5,9,13.5c4.5,0,18,18,0,18c-13.5,4.5-31.5,4.5-40.5,9c-9,4.5-13.5,18-36,22.5
		c-27,4.5-36,0-45,9c-9,4.5-18,18-40.5,22.5s-36,4.5-45,9c-4.5,4.5-22.5,22.5-67.5,22.5s-103.5-4.5-126.1-9
		c-22.5-9-31.5-13.5-31.5-27c0-13.5,18-31.5,18-31.5h36l229.6-45L423.3,92.7z"/>
	<path class="st2" d="M144.2,29.7c-9,4.5-22.5,4.5-36,4.5c-18,0-36,0-49.5,9s-22.5,36-27,54c0,13.5,0,45-13.5,54
		c-9,9-4.5,31.5,58.5,36c58.5,9,72,9,108.1-4.5c36-13.5,36-27,36-27s18,0,31.5-4.5c13.5-4.5,13.5-13.5,13.5-13.5s22.5,4.5,40.5,0
		s18-13.5,18-13.5s22.5,4.5,40.5-4.5c18-9,18-9,18-9s36,0,36-13.5c0-22.5-9-40.5-27-58.5c-9-9-22.5-18-40.5-22.5
		c-13.5-4.5-31.5-13.5-45-13.5s-27,4.5-40.5,0c-13.5,0-31.5-4.5-45,0s-22.5,9-36,13.5c-13.5,4.5-27,4.5-36,9
		C153.2,29.7,148.7,29.7,144.2,29.7z"/>
	<path class="st3" d="M36.1,178.2c0,4.5-4.5,4.5-4.5,4.5c-4.5,0-4.5-4.5-4.5-4.5c0-4.5,4.5-4.5,4.5-4.5
		C36.1,173.7,36.1,178.2,36.1,178.2z M36.1,146.7c0,0-4.5,0-4.5,4.5s0,4.5,4.5,4.5c0,0,4.5,0,4.5-4.5L36.1,146.7z M63.1,164.7
		c-4.5,0-9,4.5-9,9s4.5,9,9,9c4.5,0,9-4.5,9-9C67.6,169.2,63.1,164.7,63.1,164.7z M58.6,133.2c-4.5,0-4.5,0-4.5,4.5s4.5,4.5,4.5,4.5
		c4.5,0,4.5,0,4.5-4.5C67.6,137.7,63.1,133.2,58.6,133.2z M45.1,106.2c-4.5,0-9,4.5-9,9s4.5,9,9,9c4.5,0,9-4.5,9-9
		S49.6,106.2,45.1,106.2z M72.1,119.7c-4.5,0-4.5,4.5-4.5,4.5c0,4.5,0,4.5,4.5,4.5s4.5-4.5,4.5-4.5S76.6,119.7,72.1,119.7z
		 M94.7,142.2c-4.5,0-4.5,4.5-4.5,9s4.5,9,4.5,9c4.5,0,4.5-4.5,4.5-9C103.7,146.7,99.2,142.2,94.7,142.2z M90.2,173.7
		c-4.5,0-4.5,4.5-4.5,4.5c0,4.5,4.5,4.5,4.5,4.5l4.5-4.5C99.2,178.2,94.7,173.7,90.2,173.7z M117.2,173.7L117.2,173.7
		c-4.5,4.5,0,9,0,9S121.7,178.2,117.2,173.7C121.7,173.7,121.7,173.7,117.2,173.7z M103.7,191.7c-4.5,0-4.5,4.5-4.5,9s4.5,9,4.5,9
		c4.5,0,4.5-4.5,4.5-9S108.2,191.7,103.7,191.7z M148.7,191.7c-4.5,0-9,4.5-9,9s4.5,9,9,9c4.5,0,9-4.5,9-9
		C157.7,196.3,153.2,191.7,148.7,191.7z M148.7,164.7c-4.5,0-4.5,4.5-4.5,4.5c0,4.5,4.5,4.5,4.5,4.5c4.5,0,4.5-4.5,4.5-4.5
		C153.2,164.7,148.7,164.7,148.7,164.7z M184.7,160.2c-4.5,0-4.5,4.5-4.5,4.5c0,4.5,0,4.5,4.5,4.5c4.5,0,4.5-4.5,4.5-4.5
		C189.2,160.2,189.2,160.2,184.7,160.2z M180.2,178.2c-4.5,0-9,4.5-9,4.5c0,4.5,4.5,4.5,9,4.5c4.5,0,9-4.5,9-4.5
		C189.2,182.7,184.7,178.2,180.2,178.2z M211.7,173.7c-4.5,0-4.5,4.5-4.5,9s4.5,9,4.5,9s4.5-4.5,4.5-9
		C216.2,178.2,216.2,173.7,211.7,173.7z M202.7,133.2c-4.5,0-9,4.5-9,4.5c0,4.5,4.5,4.5,9,4.5c4.5,0,9-4.5,9-4.5
		C211.7,137.7,207.2,133.2,202.7,133.2z M99.2,106.2c-4.5,0-4.5,4.5-4.5,4.5c0,4.5,4.5,4.5,4.5,4.5c4.5,0,4.5-4.5,4.5-4.5
		C103.7,110.7,99.2,106.2,99.2,106.2z M76.6,88.2c-4.5,0-4.5,0-4.5,4.5s4.5,4.5,4.5,4.5c4.5,0,4.5,0,4.5-4.5
		C81.1,88.2,76.6,88.2,76.6,88.2z M63.1,74.7C58.6,74.7,58.6,79.2,63.1,74.7c-4.5,4.5,0,9,0,9S63.1,83.7,63.1,74.7
		C63.1,79.2,63.1,74.7,63.1,74.7z M85.6,61.2C85.6,61.2,81.1,61.2,85.6,61.2c-4.5,4.5,0,4.5,0,4.5C90.2,70.2,90.2,65.7,85.6,61.2
		C90.2,61.2,90.2,61.2,85.6,61.2z M103.7,79.2c0,0-4.5,0-4.5,4.5c0,4.5,0,4.5,4.5,4.5c0,0,4.5,0,4.5-4.5
		C108.2,83.7,108.2,79.2,103.7,79.2z M112.7,56.7c-4.5,0-4.5,0-4.5,4.5s4.5,4.5,4.5,4.5s4.5,0,4.5-4.5
		C117.2,61.2,117.2,56.7,112.7,56.7z M234.2,151.2c-4.5,0-9,4.5-9,9s4.5,9,9,9c4.5,0,9-4.5,9-9C243.2,151.2,238.7,151.2,234.2,151.2
		z M234.2,119.7c-4.5,0-4.5,4.5-4.5,4.5c0,4.5,4.5,4.5,4.5,4.5c4.5,0,4.5-4.5,4.5-4.5C238.7,124.2,234.2,119.7,234.2,119.7z
		 M220.7,97.2c-4.5,0-4.5,0-4.5,4.5c0,4.5,4.5,4.5,4.5,4.5c4.5,0,4.5,0,4.5-4.5C229.7,101.7,225.2,97.2,220.7,97.2z M238.7,83.7
		c-4.5,0-9,4.5-9,4.5c0,4.5,4.5,4.5,9,4.5c4.5,0,9-4.5,9-4.5C247.7,83.7,243.2,83.7,238.7,83.7z M265.7,106.2c-4.5,0-4.5,4.5-4.5,9
		s4.5,9,4.5,9s4.5-4.5,4.5-9S265.7,106.2,265.7,106.2z M265.7,128.7c-4.5,0-4.5,4.5-4.5,9s0,9,4.5,9s4.5-4.5,4.5-9
		S265.7,128.7,265.7,128.7z M288.2,128.7c-4.5,0-4.5,0-4.5,4.5s4.5,4.5,4.5,4.5s4.5,0,4.5-4.5C297.2,133.2,292.7,128.7,288.2,128.7z
		 M292.7,151.2C288.2,151.2,288.2,151.2,292.7,151.2c-4.5,4.5-4.5,9,0,9C292.7,160.2,297.2,155.7,292.7,151.2
		C297.2,151.2,292.7,151.2,292.7,151.2z M319.8,124.2c-4.5,0-4.5,0-4.5,4.5s4.5,4.5,4.5,4.5c4.5,0,4.5,0,4.5-4.5
		S319.8,124.2,319.8,124.2z M342.3,133.2c-4.5,0-4.5,4.5-4.5,4.5c0,4.5,4.5,4.5,4.5,4.5c4.5,0,4.5-4.5,4.5-4.5
		C346.8,137.7,342.3,133.2,342.3,133.2z M346.8,110.7c-4.5,0-9,4.5-9,4.5c0,4.5,4.5,4.5,9,4.5c4.5,0,9-4.5,9-4.5
		C351.3,110.7,351.3,110.7,346.8,110.7z M364.8,119.7c-4.5,0-4.5,4.5-4.5,4.5c0,4.5,0,4.5,4.5,4.5c4.5,0,4.5-4.5,4.5-4.5
		S369.3,119.7,364.8,119.7z M382.8,97.2c-4.5,0-9,4.5-9,4.5s4.5,4.5,9,4.5c4.5,0,9-4.5,9-4.5S387.3,97.2,382.8,97.2z M400.8,115.2
		c0,0-4.5,0-4.5,4.5c0,4.5,0,4.5,4.5,4.5c4.5,0,4.5,0,4.5-4.5C405.3,115.2,405.3,115.2,400.8,115.2z M409.8,97.2
		c-4.5,0-4.5,0-4.5,4.5c0,0,0,4.5,4.5,4.5c4.5,0,4.5,0,4.5-4.5C414.3,97.2,414.3,97.2,409.8,97.2z M396.3,74.7
		c-4.5,0-4.5,4.5-4.5,4.5c0,4.5,4.5,4.5,4.5,4.5c4.5,0,4.5-4.5,4.5-4.5S400.8,74.7,396.3,74.7z M373.8,61.2c-4.5,0-9,4.5-9,4.5
		c0,4.5,4.5,4.5,9,4.5c4.5,0,9-4.5,9-4.5C382.8,61.2,378.3,61.2,373.8,61.2z M387.3,47.7c-4.5,0-4.5,4.5-4.5,4.5
		c0,4.5,0,4.5,4.5,4.5c4.5,0,4.5-4.5,4.5-4.5C391.8,47.7,391.8,47.7,387.3,47.7z M351.3,79.2c-4.5,0-4.5,4.5-4.5,4.5
		c0,4.5,4.5,4.5,4.5,4.5c4.5,0,4.5-4.5,4.5-4.5C360.3,83.7,355.8,79.2,351.3,79.2z M324.3,88.2c-4.5,0-9,4.5-9,9s4.5,9,9,9
		c4.5,0,9-4.5,9-9C328.8,88.2,324.3,88.2,324.3,88.2z M292.7,97.2c-4.5,0-4.5,4.5-4.5,4.5c0,4.5,4.5,4.5,4.5,4.5
		c4.5,0,4.5-4.5,4.5-4.5C297.2,97.2,297.2,97.2,292.7,97.2z M270.2,65.7c-4.5,0-9,4.5-9,9s4.5,9,9,9c4.5,0,9-4.5,9-9
		C279.2,70.2,274.7,65.7,270.2,65.7z M301.8,56.7c-4.5,0-4.5,4.5-4.5,4.5c0,4.5,4.5,4.5,4.5,4.5c4.5,0,4.5-4.5,4.5-4.5
		C306.3,61.2,301.8,56.7,301.8,56.7z M324.3,47.7c-4.5,0-9,4.5-9,4.5c0,4.5,4.5,4.5,9,4.5c4.5,0,9-4.5,9-4.5S328.8,47.7,324.3,47.7z
		 M337.8,29.7c-4.5,0-9,4.5-9,4.5c0,4.5,4.5,4.5,9,4.5c4.5,0,9-4.5,9-4.5C346.8,29.7,342.3,29.7,337.8,29.7z M360.3,47.7
		c-4.5,0-4.5,0-4.5,4.5s0,4.5,4.5,4.5s4.5,0,4.5-4.5C364.8,52.2,364.8,47.7,360.3,47.7z M297.2,20.7c-4.5,0-4.5,4.5-4.5,4.5
		c0,4.5,4.5,4.5,4.5,4.5c4.5,0,4.5-4.5,4.5-4.5C306.3,25.2,301.8,20.7,297.2,20.7z M283.7,38.7c0,0-4.5,0-4.5,4.5s0,4.5,4.5,4.5
		c0,0,4.5,0,4.5-4.5S288.2,38.7,283.7,38.7z M265.7,25.2c-4.5,0-4.5,0-4.5,4.5s4.5,4.5,4.5,4.5c4.5,0,4.5,0,4.5-4.5
		C270.2,29.7,270.2,25.2,265.7,25.2z M247.7,43.2C247.7,43.2,243.2,43.2,247.7,43.2c-4.5,9,0,9,0,9S252.2,47.7,247.7,43.2
		C252.2,43.2,252.2,43.2,247.7,43.2z M216.2,29.7C211.7,29.7,211.7,29.7,216.2,29.7c-4.5,4.5,0,4.5,0,4.5S216.2,34.2,216.2,29.7
		L216.2,29.7z M211.7,52.2c-4.5,0-4.5,0-4.5,4.5s4.5,4.5,4.5,4.5c4.5,0,4.5,0,4.5-4.5C216.2,56.7,211.7,52.2,211.7,52.2z
		 M234.2,65.7C229.7,65.7,229.7,65.7,234.2,65.7c-4.5,4.5,0,9,0,9C234.2,74.7,238.7,70.2,234.2,65.7
		C238.7,65.7,234.2,65.7,234.2,65.7z"/>
	
		<linearGradient id="SVGID_1_" gradientUnits="userSpaceOnUse" x1="59.2215" y1="213.2513" x2="395.3558" y2="128.2959" gradientTransform="matrix(1 0 0 -1 0 222)">
		<stop  offset="0" style="stop-color:#433F00"/>
		<stop  offset="1" style="stop-color:#3C3900"/>
	</linearGradient>
	<path class="st4" d="M72.1,61.2c31.5,4.5,63,31.5,63,31.5s9,9-18-4.5c-40.5-27-72-13.5-72-13.5S36.1,61.2,72.1,61.2z M139.7,61.2
		c22.5,18,36,54,40.5,49.5c4.5,0-9-31.5-36-63c-4.5-4.5-9-9-18-13.5c-4.5-4.5-18,0-18,0C121.7,38.7,130.7,56.7,139.7,61.2z
		 M256.7,88.2c4.5,31.5,9,45,13.5,36c0-4.5-4.5-22.5-13.5-58.5c-9-31.5-40.5-49.5-49.5-54c-9-4.5-22.5,4.5-22.5,4.5
		C216.2,20.7,247.7,61.2,256.7,88.2z M270.2,2.7c0,0,18,0,27,18c4.5,18,18,72,18,85.5c4.5,9,9,13.5,9,9s-4.5-22.5-9-54
		C310.8,29.7,310.8-1.8,270.2,2.7z M373.8,20.7c-4.5-4.5-18-9-18-9s9,9,18,36c9,27,9,49.5,9,49.5C396.3,97.2,373.8,25.2,373.8,20.7z
		"/>
	<g>
		<g>
			<g>
				
					<ellipse transform="matrix(1.063816e-03 -1 1 1.063816e-03 29.9452 306.5987)" class="st0" cx="168.4" cy="138.3" rx="13.5" ry="13.5"/>
			</g>
		</g>
	</g>
	<ellipse class="st3" cx="180.2" cy="79.2" rx="4.5" ry="9"/>
	<ellipse class="st3" cx="148.7" cy="110.7" rx="9" ry="4.5"/>
	<ellipse class="st3" cx="126.2" cy="142.2" rx="4.5" ry="4.5"/>
</g>
</svg>
