<?xml version="1.0" encoding="utf-8"?>
<!-- Generator: Adobe Illustrator 20.1.0, SVG Export Plug-In . SVG Version: 6.00 Build 0)  -->
<svg version="1.1" id="Layer_1" xmlns="http://www.w3.org/2000/svg" xmlns:xlink="http://www.w3.org/1999/xlink" x="0px" y="0px"
	 viewBox="0 0 455 220" style="enable-background:new 0 0 455 220;" xml:space="preserve">
<style type="text/css">
	.st0{fill:#85B2B7;}
	.st1{fill:#8AB8BD;}
	.st2{fill:#91C1C6;}
	.st3{fill:#2E3F4A;}
	.st4{fill:#5F7D90;}
</style>
<g>
	<g>
		<g>
			<path class="st0" d="M419.4,155.7c3,2.9,8.2,0.2,10-1.4c10-8.6,10-13.8,13.2-25.6c1.7-6.2,16.7-13.3,12.3-21.2
				c-4.5-8-63,10.5-63,10.5l-6.2,8.6L419.4,155.7z"/>
		</g>
		<g>
			<path class="st1" d="M420.2,154.8c3.3,2.6,1.4,8.2,0.2,10c-7,11.2-12.1,12.1-23.3,17c-5.9,2.6-10.6,18.5-19.1,15.4
				c-8.6-3.2,0.8-63.9,0.8-63.9l7.6-7.4L420.2,154.8z"/>
		</g>
	</g>
	<g>
		<path class="st1" d="M22.1,30.6c45-11.1,159.9-10.8,211.9,0c110.7,22.9,158.9,87.7,158.9,87.7c5.6,11.7-0.8,21.4-16.7,15.8
			c0,0-42.7-10.3-76.6-9.5c-36,0.9-81.6,39.5-145.1,39.8c-39.1,0.2-64.8,6.8-103.6-1.1c-25-11.2-26.8-17.7-32-22.1
			C0.5,125.7-13.6,39.4,22.1,30.6z"/>
	</g>
	<g>
		<path class="st2" d="M207.5,133.5c0,0,35.9-0.5,40.9,9.8c6.7,13.8,0.8,27.3-13.5,30.1c-6.1,1.2-11.8-6.7-17-12.9
			c-3.9-4.5-10-7.7-12.6-10.5C195.4,142.4,203,134.2,207.5,133.5z"/>
	</g>
	<g>
		<g>
			<path class="st3" d="M179.2,110.4c0,2.1-1.7,3.8-3.8,3.8s-3.8-1.7-3.8-3.8c0-2.1,1.7-3.8,3.8-3.8
				C177.5,106.5,179.2,108.3,179.2,110.4z"/>
		</g>
	</g>
	<path class="st4" d="M145.6,155.1c-1.4-0.3-2.9-0.5-4.2-0.5c-3.5,0.2-6.7,0.5-9.8,0.8c-12.9,1.2-24.7,2.6-35,3.6
		c-18.3,2.1-31.2,3.6-33.6,3.9c-0.6,0.2-2.3,0.5-3.2,0.9c-0.3,0.2-1.1,0.8-1.1,0.8s1.1,0.2,2.3,0.3c0.2,0,1.5-0.3,1.7-0.3
		c0,0,13.6-1.5,34.1-3.9c10.1-1.1,22.1-2.4,34.8-3.8c3.2-0.3,6.5-0.6,9.7-0.8c1.2,0,2.6,0.2,3.8,0.3c0,0,1.1,0.3,1.2-0.5
		C146.5,155.4,145.6,155.1,145.6,155.1z"/>
</g>
</svg>
