<?xml version="1.0" encoding="utf-8"?>
<!-- Generator: Adobe Illustrator 20.1.0, SVG Export Plug-In . SVG Version: 6.00 Build 0)  -->
<svg version="1.1" id="Layer_1" xmlns="http://www.w3.org/2000/svg" xmlns:xlink="http://www.w3.org/1999/xlink" x="0px" y="0px"
	 viewBox="0 0 1280 800" style="enable-background:new 0 0 1280 800;" xml:space="preserve">
<style type="text/css">
	.st0{fill:none;stroke:#175987;stroke-miterlimit:10;}
	.st1{fill:none;stroke:#165A87;stroke-miterlimit:10;}
	.st2{fill:none;stroke:#195A87;stroke-miterlimit:10;}
	.st3{fill:none;stroke:#185A87;stroke-miterlimit:10;}
	.st4{fill:none;stroke:#1A5A86;stroke-miterlimit:10;}
	.st5{fill:none;stroke:#195B86;stroke-miterlimit:10;}
	.st6{fill:none;stroke:#1B5B86;stroke-miterlimit:10;}
	.st7{fill:none;stroke:#1D5B86;stroke-miterlimit:10;}
	.st8{fill:none;stroke:#1E5C85;stroke-miterlimit:10;}
	.st9{fill:none;stroke:#1E5C86;stroke-miterlimit:10;}
	.st10{fill:none;stroke:#1F5C85;stroke-miterlimit:10;}
	.st11{fill:none;stroke:#215D85;stroke-miterlimit:10;}
	.st12{fill:none;stroke:#225D84;stroke-miterlimit:10;}
	.st13{fill:none;stroke:#215E84;stroke-miterlimit:10;}
	.st14{fill:none;stroke:#235E84;stroke-miterlimit:10;}
	.st15{fill:none;stroke:#245E84;stroke-miterlimit:10;}
	.st16{fill:none;stroke:#245E83;stroke-miterlimit:10;}
	.st17{fill:none;stroke:#255F84;stroke-miterlimit:10;}
	.st18{fill:none;stroke:#255E83;stroke-miterlimit:10;}
	.st19{fill:none;stroke:#265F83;stroke-miterlimit:10;}
	.st20{fill:none;stroke:#285F83;stroke-miterlimit:10;}
	.st21{fill:none;stroke:#275F82;stroke-miterlimit:10;}
	.st22{fill:none;stroke:#286082;stroke-miterlimit:10;}
	.st23{fill:none;stroke:#296082;stroke-miterlimit:10;}
	.st24{fill:none;stroke:#2A6182;stroke-miterlimit:10;}
	.st25{fill:none;stroke:#2C6182;stroke-miterlimit:10;}
	.st26{fill:none;stroke:#2B6281;stroke-miterlimit:10;}
	.st27{fill:none;stroke:#2D6181;stroke-miterlimit:10;}
	.st28{fill:none;stroke:#2C6281;stroke-miterlimit:10;}
	.st29{fill:none;stroke:#2D6281;stroke-miterlimit:10;}
	.st30{fill:none;stroke:#2E6280;stroke-miterlimit:10;}
	.st31{fill:none;stroke:#2F6380;stroke-miterlimit:10;}
	.st32{fill:none;stroke:#306480;stroke-miterlimit:10;}
	.st33{fill:none;stroke:#316480;stroke-miterlimit:10;}
	.st34{fill:#26EAEF;}
</style>
<g>
	<g>
		<path class="st0" d="M-2.2,712.7c30.3,19.3,14.9,26.5,62.3,36.5c19.2,4,44.8-7.1,73.2-5.1c21.2,1.5,44.7,16.8,71.5,16.1
			c21.9-0.6,44.8-16.9,70.7-19.5c22.2-2.2,47.9,9.4,73.1,5.3c37.1-6,70.2-25.1,103.2-28.3c37.7-3.6,73.7,9.1,106.6,8.3
			c38.2-0.9,73.6-15,106.1-13.3c38.6,2,72.3,20.2,104.3,23.9c39,4.6,75.3-5.1,106.8-1.6c25.9,2.9,53.5,20.3,83.7,21.2
			c27.3,0.8,55.4-14.5,84.4-17.4c27.8-2.8,58.6,6.8,86.2-1.1c26.8-7.7,47.5-31.8,72.7-46c23.9-13.5,55.5-18.5,76.5-39.3"/>
	</g>
	<g>
		<path class="st1" d="M-2.2,712.6c30.3,19.3,14.9,26.5,62.3,36.5c19.2,4,44.8-7.1,73.2-5.1c21.2,1.5,44.7,16.8,71.5,16.1
			c21.9-0.6,44.8-16.9,70.7-19.5c22.2-2.2,47.9,9.4,73.1,5.3c37.1-6,70.2-25.1,103.2-28.3c37.7-3.6,73.7,9.1,106.6,8.3
			c38.2-0.9,73.6-15,106.1-13.3c38.6,2,72.3,20.2,104.3,23.9c39,4.6,75.3-5.1,106.8-1.6c25.9,2.9,53.5,20.3,83.7,21.2
			c27.3,0.8,55.4-14.5,84.4-17.4c27.8-2.8,58.6,6.8,86.2-1.1c26.8-7.7,47.5-31.8,72.7-46c23.9-13.5,55.5-18.5,76.5-39.3"/>
	</g>
	<g>
		<path class="st2" d="M-2.2,712.5C28.1,731.8,12.7,739,60.1,749c19.2,4,44.8-7.1,73.2-5.1c21.2,1.5,44.7,16.8,71.5,16.1
			c21.9-0.6,44.8-16.9,70.7-19.5c22.2-2.2,47.9,9.4,73.1,5.3c37.1-6,70.2-25.1,103.2-28.3c37.7-3.6,73.7,9.1,106.6,8.3
			c38.2-0.9,73.6-15,106.1-13.3c38.6,2,72.3,20.2,104.3,23.9c39,4.6,75.3-5.1,106.8-1.6c25.9,2.9,53.5,20.3,83.7,21.2
			c27.3,0.8,55.4-14.5,84.4-17.4c27.8-2.8,58.6,6.8,86.2-1.1c26.8-7.7,47.5-31.8,72.7-46c23.9-13.5,55.5-18.5,76.5-39.3"/>
	</g>
	<g>
		<path class="st3" d="M-2.2,712.4c30.3,19.3,14.9,26.5,62.3,36.5c19.2,4,44.8-7.1,73.2-5.1c21.2,1.5,44.7,16.8,71.5,16.1
			c21.9-0.6,44.8-16.9,70.7-19.5c22.2-2.2,47.9,9.4,73.1,5.3c37.1-6,70.2-25.1,103.2-28.3c37.7-3.6,73.7,9.1,106.6,8.3
			c38.2-0.9,73.6-15,106.1-13.3c38.6,2,72.3,20.2,104.3,23.9c39,4.6,75.3-5.1,106.8-1.6c25.9,2.9,53.5,20.3,83.7,21.2
			c27.3,0.8,55.4-14.5,84.4-17.4c27.8-2.8,58.6,6.8,86.2-1.1c26.8-7.7,47.5-31.8,72.7-46c23.9-13.5,55.5-18.5,76.5-39.3"/>
	</g>
	<g>
		<path class="st4" d="M-2.2,712.3c30.3,19.3,14.9,26.5,62.3,36.5c19.2,4,44.8-7.1,73.2-5.1c21.2,1.5,44.7,16.8,71.5,16.1
			c21.9-0.6,44.8-16.9,70.7-19.5c22.2-2.2,47.9,9.4,73.1,5.3c37.1-6,70.2-25.1,103.2-28.3c37.7-3.6,73.7,9.1,106.6,8.3
			c38.2-0.9,73.6-15,106.1-13.3c38.6,2,72.3,20.2,104.3,23.9c39,4.6,75.3-5.1,106.8-1.6c25.9,2.9,53.5,20.3,83.7,21.2
			c27.3,0.8,55.4-14.5,84.4-17.4c27.8-2.8,58.6,6.8,86.2-1.1c26.8-7.7,47.5-31.8,72.7-46c23.9-13.5,55.5-18.5,76.5-39.3"/>
	</g>
	<g>
		<path class="st5" d="M-2.2,712.3c30.3,19.3,14.9,26.5,62.3,36.5c19.2,4,44.8-7.1,73.2-5.1c21.2,1.5,44.7,16.8,71.5,16.1
			c21.9-0.6,44.8-16.9,70.7-19.5c22.2-2.2,47.9,9.4,73.1,5.3c37.1-6,70.2-25.1,103.2-28.3c37.7-3.6,73.7,9.1,106.6,8.3
			c38.2-0.9,73.6-15,106.1-13.3c38.6,2,72.3,20.2,104.3,23.9c39,4.6,75.3-5.1,106.8-1.6c25.9,2.9,53.5,20.3,83.7,21.2
			c27.3,0.8,55.4-14.5,84.4-17.4c27.8-2.8,58.6,6.8,86.2-1.1c26.8-7.7,47.5-31.8,72.7-46c23.9-13.5,55.5-18.5,76.5-39.3"/>
	</g>
	<g>
		<path class="st5" d="M-2.2,712.2c30.3,19.3,14.9,26.5,62.3,36.5c19.2,4,44.8-7.1,73.2-5.1c21.2,1.5,44.7,16.8,71.5,16.1
			c21.9-0.6,44.8-16.9,70.7-19.5c22.2-2.2,47.9,9.4,73.1,5.3c37.1-6,70.2-25.1,103.2-28.3c37.7-3.6,73.7,9.1,106.6,8.3
			c38.2-0.9,73.6-15,106.1-13.3c38.6,2,72.3,20.2,104.3,23.9c39,4.6,75.3-5.1,106.8-1.6c25.9,2.9,53.5,20.3,83.7,21.2
			c27.3,0.8,55.4-14.5,84.4-17.4c27.8-2.8,58.6,6.8,86.2-1.1c26.8-7.7,47.5-31.8,72.7-46c23.9-13.5,55.5-18.5,76.5-39.3"/>
	</g>
	<g>
		<path class="st6" d="M-2.2,712.1c30.3,19.3,14.9,26.5,62.3,36.5c19.2,4,44.8-7.1,73.2-5.1c21.2,1.5,44.7,16.8,71.5,16.1
			c21.9-0.6,44.8-16.9,70.7-19.5c22.2-2.2,47.9,9.4,73.1,5.3c37.1-6,70.2-25.1,103.2-28.3c37.7-3.6,73.7,9.1,106.6,8.3
			c38.2-0.9,73.6-15,106.1-13.3c38.6,2,72.3,20.2,104.3,23.9c39,4.6,75.3-5.1,106.8-1.6c25.9,2.9,53.5,20.3,83.7,21.2
			c27.3,0.8,55.4-14.5,84.4-17.4c27.8-2.8,58.6,6.8,86.2-1.1c26.8-7.7,47.5-31.8,72.7-46c23.9-13.5,55.5-18.5,76.5-39.3"/>
	</g>
	<g>
		<path class="st6" d="M-2.2,712c30.3,19.3,14.9,26.5,62.3,36.5c19.2,4,44.8-7.1,73.2-5.1c21.2,1.5,44.7,16.8,71.5,16.1
			c21.9-0.6,44.8-16.9,70.7-19.5c22.2-2.2,47.9,9.4,73.1,5.3c37.1-6,70.2-25.1,103.2-28.3c37.7-3.6,73.7,9.1,106.6,8.3
			c38.2-0.9,73.6-15,106.1-13.3c38.6,2,72.3,20.2,104.3,23.9c39,4.6,75.3-5.1,106.8-1.6c25.9,2.9,53.5,20.3,83.7,21.2
			c27.3,0.8,55.4-14.5,84.4-17.4c27.8-2.8,58.6,6.8,86.2-1.1c26.8-7.7,47.5-31.8,72.7-46c23.9-13.5,55.5-18.5,76.5-39.3"/>
	</g>
	<g>
		<path class="st7" d="M-2.2,711.9c30.3,19.3,14.9,26.5,62.3,36.5c19.2,4,44.8-7.1,73.2-5.1c21.2,1.5,44.7,16.8,71.5,16.1
			c21.9-0.6,44.8-16.9,70.7-19.5c22.2-2.2,47.9,9.4,73.1,5.3c37.1-6,70.2-25.1,103.2-28.3c37.7-3.6,73.7,9.1,106.6,8.3
			c38.2-0.9,73.6-15,106.1-13.3c38.6,2,72.3,20.2,104.3,23.9c39,4.6,75.3-5.1,106.8-1.6c25.9,2.9,53.5,20.3,83.7,21.2
			c27.3,0.8,55.4-14.5,84.4-17.4c27.8-2.8,58.6,6.8,86.2-1.1c26.8-7.7,47.5-31.8,72.7-46c23.9-13.5,55.5-18.5,76.5-39.3"/>
	</g>
	<g>
		<path class="st7" d="M-2.2,711.9c30.3,19.3,14.9,26.5,62.3,36.5c19.2,4,44.8-7.1,73.2-5.1c21.2,1.5,44.7,16.8,71.5,16.1
			c21.9-0.6,44.8-16.9,70.7-19.5c22.2-2.2,47.9,9.4,73.1,5.3c37.1-6,70.2-25.1,103.2-28.3c37.7-3.6,73.7,9.1,106.6,8.3
			c38.2-0.9,73.6-15,106.1-13.3c38.6,2,72.3,20.2,104.3,23.9c39,4.6,75.3-5.1,106.8-1.6c25.9,2.9,53.5,20.3,83.7,21.2
			c27.3,0.8,55.4-14.5,84.4-17.4c27.8-2.8,58.6,6.8,86.2-1.1c26.8-7.7,47.5-31.8,72.7-46c23.9-13.5,55.5-18.5,76.5-39.3"/>
	</g>
	<g>
		<path class="st8" d="M-2.2,711.8c30.3,19.3,14.9,26.5,62.3,36.5c19.2,4,44.8-7.1,73.2-5.1c21.2,1.5,44.7,16.8,71.5,16.1
			c21.9-0.6,44.8-16.9,70.7-19.5c22.2-2.2,47.9,9.4,73.1,5.3c37.1-6,70.2-25.1,103.2-28.3c37.7-3.6,73.7,9.1,106.6,8.3
			c38.2-0.9,73.6-15,106.1-13.3c38.6,2,72.3,20.2,104.3,23.9c39,4.6,75.3-5.1,106.8-1.6c25.9,2.9,53.5,20.3,83.7,21.2
			c27.3,0.8,55.4-14.5,84.4-17.4c27.8-2.8,58.6,6.8,86.2-1.1c26.8-7.7,47.5-31.8,72.7-46c23.9-13.5,55.5-18.5,76.5-39.3"/>
	</g>
	<g>
		<path class="st9" d="M-2.2,711.7c30.3,19.3,14.9,26.5,62.3,36.5c19.2,4,44.8-7.1,73.2-5.1c21.2,1.5,44.7,16.8,71.5,16.1
			c21.9-0.6,44.8-16.9,70.7-19.5c22.2-2.2,47.9,9.4,73.1,5.3c37.1-6,70.2-25.1,103.2-28.3c37.7-3.6,73.7,9.1,106.6,8.3
			c38.2-0.9,73.6-15,106.1-13.3c38.6,2,72.3,20.2,104.3,23.9c39,4.6,75.3-5.1,106.8-1.6c25.9,2.9,53.5,20.3,83.7,21.2
			c27.3,0.8,55.4-14.5,84.4-17.4c27.8-2.8,58.6,6.8,86.2-1.1c26.8-7.7,47.5-31.8,72.7-46c23.9-13.5,55.5-18.5,76.5-39.3"/>
	</g>
	<g>
		<path class="st8" d="M-2.2,711.6c30.3,19.3,14.9,26.5,62.3,36.5c19.2,4,44.8-7.1,73.2-5.1c21.2,1.5,44.7,16.8,71.5,16.1
			c21.9-0.6,44.8-16.9,70.7-19.5c22.2-2.2,47.9,9.4,73.1,5.3c37.1-6,70.2-25.1,103.2-28.3c37.7-3.6,73.7,9.1,106.6,8.3
			c38.2-0.9,73.6-15,106.1-13.3c38.6,2,72.3,20.2,104.3,23.9c39,4.6,75.3-5.1,106.8-1.6c25.9,2.9,53.5,20.3,83.7,21.2
			c27.3,0.8,55.4-14.5,84.4-17.4c27.8-2.8,58.6,6.8,86.2-1.1c26.8-7.7,47.5-31.8,72.7-46c23.9-13.5,55.5-18.5,76.5-39.3"/>
	</g>
	<g>
		<path class="st10" d="M-2.2,711.5c30.3,19.3,14.9,26.5,62.3,36.5c19.2,4,44.8-7.1,73.2-5.1c21.2,1.5,44.7,16.8,71.5,16.1
			c21.9-0.6,44.8-16.9,70.7-19.5c22.2-2.2,47.9,9.4,73.1,5.3c37.1-6,70.2-25.1,103.2-28.3c37.7-3.6,73.7,9.1,106.6,8.3
			c38.2-0.9,73.6-15,106.1-13.3c38.6,2,72.3,20.2,104.3,23.9c39,4.6,75.3-5.1,106.8-1.6c25.9,2.9,53.5,20.3,83.7,21.2
			c27.3,0.8,55.4-14.5,84.4-17.4c27.8-2.8,58.6,6.8,86.2-1.1c26.8-7.7,47.5-31.8,72.7-46c23.9-13.5,55.5-18.5,76.5-39.3"/>
	</g>
	<g>
		<path class="st10" d="M-2.2,711.5c30.3,19.3,14.9,26.5,62.3,36.5c19.2,4,44.8-7.1,73.2-5.1c21.2,1.5,44.7,16.8,71.5,16.1
			c21.9-0.6,44.8-16.9,70.7-19.5c22.2-2.2,47.9,9.4,73.1,5.3c37.1-6,70.2-25.1,103.2-28.3c37.7-3.6,73.7,9.1,106.6,8.3
			c38.2-0.9,73.6-15,106.1-13.3c38.6,2,72.3,20.2,104.3,23.9c39,4.6,75.3-5.1,106.8-1.6c25.9,2.9,53.5,20.3,83.7,21.2
			c27.3,0.8,55.4-14.5,84.4-17.4c27.8-2.8,58.6,6.8,86.2-1.1c26.8-7.7,47.5-31.8,72.7-46c23.9-13.5,55.5-18.5,76.5-39.3"/>
	</g>
	<g>
		<path class="st11" d="M-2.2,711.4c30.3,19.3,14.9,26.5,62.3,36.5c19.2,4,44.8-7.1,73.2-5.1c21.2,1.5,44.7,16.8,71.5,16.1
			c21.9-0.6,44.8-16.9,70.7-19.5c22.2-2.2,47.9,9.4,73.1,5.3c37.1-6,70.2-25.1,103.2-28.3c37.7-3.6,73.7,9.1,106.6,8.3
			c38.2-0.9,73.6-15,106.1-13.3c38.6,2,72.3,20.2,104.3,23.9c39,4.6,75.3-5.1,106.8-1.6c25.9,2.9,53.5,20.3,83.7,21.2
			c27.3,0.8,55.4-14.5,84.4-17.4c27.8-2.8,58.6,6.8,86.2-1.1c26.8-7.7,47.5-31.8,72.7-46c23.9-13.5,55.5-18.5,76.5-39.3"/>
	</g>
	<g>
		<path class="st11" d="M-2.2,711.3c30.3,19.3,14.9,26.5,62.3,36.5c19.2,4,44.8-7.1,73.2-5.1c21.2,1.5,44.7,16.8,71.5,16.1
			c21.9-0.6,44.8-16.9,70.7-19.5c22.2-2.2,47.9,9.4,73.1,5.3c37.1-6,70.2-25.1,103.2-28.3c37.7-3.6,73.7,9.1,106.6,8.3
			c38.2-0.9,73.6-15,106.1-13.3c38.6,2,72.3,20.2,104.3,23.9c39,4.6,75.3-5.1,106.8-1.6c25.9,2.9,53.5,20.3,83.7,21.2
			c27.3,0.8,55.4-14.5,84.4-17.4c27.8-2.8,58.6,6.8,86.2-1.1c26.8-7.7,47.5-31.8,72.7-46c23.9-13.5,55.5-18.5,76.5-39.3"/>
	</g>
	<g>
		<path class="st12" d="M-2.2,711.2c30.3,19.3,14.9,26.5,62.3,36.5c19.2,4,44.8-7.1,73.2-5.1c21.2,1.5,44.7,16.8,71.5,16.1
			c21.9-0.6,44.8-16.9,70.7-19.5c22.2-2.2,47.9,9.4,73.1,5.3c37.1-6,70.2-25.1,103.2-28.3c37.7-3.6,73.7,9.1,106.6,8.3
			c38.2-0.9,73.6-15,106.1-13.3c38.6,2,72.3,20.2,104.3,23.9c39,4.6,75.3-5.1,106.8-1.6c25.9,2.9,53.5,20.3,83.7,21.2
			c27.3,0.8,55.4-14.5,84.4-17.4c27.8-2.8,58.6,6.8,86.2-1.1c26.8-7.7,47.5-31.8,72.7-46c23.9-13.5,55.5-18.5,76.5-39.3"/>
	</g>
	<g>
		<path class="st12" d="M-2.2,711.1c30.3,19.3,14.9,26.5,62.3,36.5c19.2,4,44.8-7.1,73.2-5.1c21.2,1.5,44.7,16.8,71.5,16.1
			c21.9-0.6,44.8-16.9,70.7-19.5c22.2-2.2,47.9,9.4,73.1,5.3c37.1-6,70.2-25.1,103.2-28.3c37.7-3.6,73.7,9.1,106.6,8.3
			c38.2-0.9,73.6-15,106.1-13.3c38.6,2,72.3,20.2,104.3,23.9c39,4.6,75.3-5.1,106.8-1.6c25.9,2.9,53.5,20.3,83.7,21.2
			c27.3,0.8,55.4-14.5,84.4-17.4c27.8-2.8,58.6,6.8,86.2-1.1c26.8-7.7,47.5-31.8,72.7-46c23.9-13.5,55.5-18.5,76.5-39.3"/>
	</g>
	<g>
		<path class="st13" d="M-2.2,711.1c30.3,19.3,14.9,26.5,62.3,36.5c19.2,4,44.8-7.1,73.2-5.1c21.2,1.5,44.7,16.8,71.5,16.1
			c21.9-0.6,44.8-16.9,70.7-19.5c22.2-2.2,47.9,9.4,73.1,5.3c37.1-6,70.2-25.1,103.2-28.3c37.7-3.6,73.7,9.1,106.6,8.3
			c38.2-0.9,73.6-15,106.1-13.3c38.6,2,72.3,20.2,104.3,23.9c39,4.6,75.3-5.1,106.8-1.6c25.9,2.9,53.5,20.3,83.7,21.2
			c27.3,0.8,55.4-14.5,84.4-17.4c27.8-2.8,58.6,6.8,86.2-1.1c26.8-7.7,47.5-31.8,72.7-46c23.9-13.5,55.5-18.5,76.5-39.3"/>
	</g>
	<g>
		<path class="st14" d="M-2.2,711c30.3,19.3,14.9,26.5,62.3,36.5c19.2,4,44.8-7.1,73.2-5.1c21.2,1.5,44.7,16.8,71.5,16.1
			c21.9-0.6,44.8-16.9,70.7-19.5c22.2-2.2,47.9,9.4,73.1,5.3c37.1-6,70.2-25.1,103.2-28.3c37.7-3.6,73.7,9.1,106.6,8.3
			c38.2-0.9,73.6-15,106.1-13.3c38.6,2,72.3,20.2,104.3,23.9c39,4.6,75.3-5.1,106.8-1.6c25.9,2.9,53.5,20.3,83.7,21.2
			c27.3,0.8,55.4-14.5,84.4-17.4c27.8-2.8,58.6,6.8,86.2-1.1c26.8-7.7,47.5-31.8,72.7-46c23.9-13.5,55.5-18.5,76.5-39.3"/>
	</g>
	<g>
		<path class="st14" d="M-2.2,710.9c30.3,19.3,14.9,26.5,62.3,36.5c19.2,4,44.8-7.1,73.2-5.1c21.2,1.5,44.7,16.8,71.5,16.1
			c21.9-0.6,44.8-16.9,70.7-19.5c22.2-2.2,47.9,9.4,73.1,5.3c37.1-6,70.2-25.1,103.2-28.3c37.7-3.6,73.7,9.1,106.6,8.3
			c38.2-0.9,73.6-15,106.1-13.3c38.6,2,72.3,20.2,104.3,23.9c39,4.6,75.3-5.1,106.8-1.6c25.9,2.9,53.5,20.3,83.7,21.2
			c27.3,0.8,55.4-14.5,84.4-17.4c27.8-2.8,58.6,6.8,86.2-1.1c26.8-7.7,47.5-31.8,72.7-46c23.9-13.5,55.5-18.5,76.5-39.3"/>
	</g>
	<g>
		<path class="st15" d="M-2.2,710.8c30.3,19.3,14.9,26.5,62.3,36.5c19.2,4,44.8-7.1,73.2-5.1c21.2,1.5,44.7,16.8,71.5,16.1
			c21.9-0.6,44.8-16.9,70.7-19.5c22.2-2.2,47.9,9.4,73.1,5.3c37.1-6,70.2-25.1,103.2-28.3c37.7-3.6,73.7,9.1,106.6,8.3
			c38.2-0.9,73.6-15,106.1-13.3c38.6,2,72.3,20.2,104.3,23.9c39,4.6,75.3-5.1,106.8-1.6c25.9,2.9,53.5,20.3,83.7,21.2
			c27.3,0.8,55.4-14.5,84.4-17.4c27.8-2.8,58.6,6.8,86.2-1.1c26.8-7.7,47.5-31.8,72.7-46c23.9-13.5,55.5-18.5,76.5-39.3"/>
	</g>
	<g>
		<path class="st15" d="M-2.2,710.7c30.3,19.3,14.9,26.5,62.3,36.5c19.2,4,44.8-7.1,73.2-5.1c21.2,1.5,44.7,16.8,71.5,16.1
			c21.9-0.6,44.8-16.9,70.7-19.5c22.2-2.2,47.9,9.4,73.1,5.3c37.1-6,70.2-25.1,103.2-28.3c37.7-3.6,73.7,9.1,106.6,8.3
			c38.2-0.9,73.6-15,106.1-13.3c38.6,2,72.3,20.2,104.3,23.9c39,4.6,75.3-5.1,106.8-1.6c25.9,2.9,53.5,20.3,83.7,21.2
			c27.3,0.8,55.4-14.5,84.4-17.4c27.8-2.8,58.6,6.8,86.2-1.1c26.8-7.7,47.5-31.8,72.7-46c23.9-13.5,55.5-18.5,76.5-39.3"/>
	</g>
	<g>
		<path class="st16" d="M-2.2,710.7c30.3,19.3,14.9,26.5,62.3,36.5c19.2,4,44.8-7.1,73.2-5.1c21.2,1.5,44.7,16.8,71.5,16.1
			c21.9-0.6,44.8-16.9,70.7-19.5c22.2-2.2,47.9,9.4,73.1,5.3c37.1-6,70.2-25.1,103.2-28.3c37.7-3.6,73.7,9.1,106.6,8.3
			c38.2-0.9,73.6-15,106.1-13.3c38.6,2,72.3,20.2,104.3,23.9c39,4.6,75.3-5.1,106.8-1.6c25.9,2.9,53.5,20.3,83.7,21.2
			c27.3,0.8,55.4-14.5,84.4-17.4c27.8-2.8,58.6,6.8,86.2-1.1c26.8-7.7,47.5-31.8,72.7-46c23.9-13.5,55.5-18.5,76.5-39.3"/>
	</g>
	<g>
		<path class="st17" d="M-2.2,710.6c30.3,19.3,14.9,26.5,62.3,36.5c19.2,4,44.8-7.1,73.2-5.1c21.2,1.5,44.7,16.8,71.5,16.1
			c21.9-0.6,44.8-16.9,70.7-19.5c22.2-2.2,47.9,9.4,73.1,5.3c37.1-6,70.2-25.1,103.2-28.3c37.7-3.6,73.7,9.1,106.6,8.3
			c38.2-0.9,73.6-15,106.1-13.3c38.6,2,72.3,20.2,104.3,23.9c39,4.6,75.3-5.1,106.8-1.6c25.9,2.9,53.5,20.3,83.7,21.2
			c27.3,0.8,55.4-14.5,84.4-17.4c27.8-2.8,58.6,6.8,86.2-1.1c26.8-7.7,47.5-31.8,72.7-46c23.9-13.5,55.5-18.5,76.5-39.3"/>
	</g>
	<g>
		<path class="st18" d="M-2.2,710.5C28.1,729.8,12.7,737,60.1,747c19.2,4,44.8-7.1,73.2-5.1c21.2,1.5,44.7,16.8,71.5,16.1
			c21.9-0.6,44.8-16.9,70.7-19.5c22.2-2.2,47.9,9.4,73.1,5.3c37.1-6,70.2-25.1,103.2-28.3c37.7-3.6,73.7,9.1,106.6,8.3
			c38.2-0.9,73.6-15,106.1-13.3c38.6,2,72.3,20.2,104.3,23.9c39,4.6,75.3-5.1,106.8-1.6c25.9,2.9,53.5,20.3,83.7,21.2
			c27.3,0.8,55.4-14.5,84.4-17.4c27.8-2.8,58.6,6.8,86.2-1.1c26.8-7.7,47.5-31.8,72.7-46c23.9-13.5,55.5-18.5,76.5-39.3"/>
	</g>
	<g>
		<path class="st19" d="M-2.2,710.4c30.3,19.3,14.9,26.5,62.3,36.5c19.2,4,44.8-7.1,73.2-5.1c21.2,1.5,44.7,16.8,71.5,16.1
			c21.9-0.6,44.8-16.9,70.7-19.5c22.2-2.2,47.9,9.4,73.1,5.3c37.1-6,70.2-25.1,103.2-28.3c37.7-3.6,73.7,9.1,106.6,8.3
			c38.2-0.9,73.6-15,106.1-13.3c38.6,2,72.3,20.2,104.3,23.9c39,4.6,75.3-5.1,106.8-1.6c25.9,2.9,53.5,20.3,83.7,21.2
			c27.3,0.8,55.4-14.5,84.4-17.4c27.8-2.8,58.6,6.8,86.2-1.1c26.8-7.7,47.5-31.8,72.7-46c23.9-13.5,55.5-18.5,76.5-39.3"/>
	</g>
	<g>
		<path class="st19" d="M-2.2,710.3c30.3,19.3,14.9,26.5,62.3,36.5c19.2,4,44.8-7.1,73.2-5.1c21.2,1.5,44.7,16.8,71.5,16.1
			c21.9-0.6,44.8-16.9,70.7-19.5c22.2-2.2,47.9,9.4,73.1,5.3c37.1-6,70.2-25.1,103.2-28.3c37.7-3.6,73.7,9.1,106.6,8.3
			c38.2-0.9,73.6-15,106.1-13.3c38.6,2,72.3,20.2,104.3,23.9c39,4.6,75.3-5.1,106.8-1.6c25.9,2.9,53.5,20.3,83.7,21.2
			c27.3,0.8,55.4-14.5,84.4-17.4c27.8-2.8,58.6,6.8,86.2-1.1c26.8-7.7,47.5-31.8,72.7-46c23.9-13.5,55.5-18.5,76.5-39.3"/>
	</g>
	<g>
		<path class="st20" d="M-2.2,710.2c30.3,19.3,14.9,26.5,62.3,36.5c19.2,4,44.8-7.1,73.2-5.1c21.2,1.5,44.7,16.8,71.5,16.1
			c21.9-0.6,44.8-16.9,70.7-19.5c22.2-2.2,47.9,9.4,73.1,5.3c37.1-6,70.2-25.1,103.2-28.3c37.7-3.6,73.7,9.1,106.6,8.3
			c38.2-0.9,73.6-15,106.1-13.3c38.6,2,72.3,20.2,104.3,23.9c39,4.6,75.3-5.1,106.8-1.6c25.9,2.9,53.5,20.3,83.7,21.2
			c27.3,0.8,55.4-14.5,84.4-17.4c27.8-2.8,58.6,6.8,86.2-1.1c26.8-7.7,47.5-31.8,72.7-46c23.9-13.5,55.5-18.5,76.5-39.3"/>
	</g>
	<g>
		<path class="st20" d="M-2.2,710.2c30.3,19.3,14.9,26.5,62.3,36.5c19.2,4,44.8-7.1,73.2-5.1c21.2,1.5,44.7,16.8,71.5,16.1
			c21.9-0.6,44.8-16.9,70.7-19.5c22.2-2.2,47.9,9.4,73.1,5.3c37.1-6,70.2-25.1,103.2-28.3c37.7-3.6,73.7,9.1,106.6,8.3
			c38.2-0.9,73.6-15,106.1-13.3c38.6,2,72.3,20.2,104.3,23.9c39,4.6,75.3-5.1,106.8-1.6c25.9,2.9,53.5,20.3,83.7,21.2
			c27.3,0.8,55.4-14.5,84.4-17.4c27.8-2.8,58.6,6.8,86.2-1.1c26.8-7.7,47.5-31.8,72.7-46c23.9-13.5,55.5-18.5,76.5-39.3"/>
	</g>
	<g>
		<path class="st21" d="M-2.2,710.1c30.3,19.3,14.9,26.5,62.3,36.5c19.2,4,44.8-7.1,73.2-5.1c21.2,1.5,44.7,16.8,71.5,16.1
			c21.9-0.6,44.8-16.9,70.7-19.5c22.2-2.2,47.9,9.4,73.1,5.3c37.1-6,70.2-25.1,103.2-28.3c37.7-3.6,73.7,9.1,106.6,8.3
			c38.2-0.9,73.6-15,106.1-13.3c38.6,2,72.3,20.2,104.3,23.9c39,4.6,75.3-5.1,106.8-1.6c25.9,2.9,53.5,20.3,83.7,21.2
			c27.3,0.8,55.4-14.5,84.4-17.4c27.8-2.8,58.6,6.8,86.2-1.1c26.8-7.7,47.5-31.8,72.7-46c23.9-13.5,55.5-18.5,76.5-39.3"/>
	</g>
	<g>
		<path class="st22" d="M-2.2,710c30.3,19.3,14.9,26.5,62.3,36.5c19.2,4,44.8-7.1,73.2-5.1c21.2,1.5,44.7,16.8,71.5,16.1
			c21.9-0.6,44.8-16.9,70.7-19.5c22.2-2.2,47.9,9.4,73.1,5.3c37.1-6,70.2-25.1,103.2-28.3c37.7-3.6,73.7,9.1,106.6,8.3
			c38.2-0.9,73.6-15,106.1-13.3c38.6,2,72.3,20.2,104.3,23.9c39,4.6,75.3-5.1,106.8-1.6c25.9,2.9,53.5,20.3,83.7,21.2
			c27.3,0.8,55.4-14.5,84.4-17.4c27.8-2.8,58.6,6.8,86.2-1.1c26.8-7.7,47.5-31.8,72.7-46c23.9-13.5,55.5-18.5,76.5-39.3"/>
	</g>
	<g>
		<path class="st22" d="M-2.2,709.9c30.3,19.3,14.9,26.5,62.3,36.5c19.2,4,44.8-7.1,73.2-5.1c21.2,1.5,44.7,16.8,71.5,16.1
			c21.9-0.6,44.8-16.9,70.7-19.5c22.2-2.2,47.9,9.4,73.1,5.3c37.1-6,70.2-25.1,103.2-28.3c37.7-3.6,73.7,9.1,106.6,8.3
			c38.2-0.9,73.6-15,106.1-13.3c38.6,2,72.3,20.2,104.3,23.9c39,4.6,75.3-5.1,106.8-1.6c25.9,2.9,53.5,20.3,83.7,21.2
			c27.3,0.8,55.4-14.5,84.4-17.4c27.8-2.8,58.6,6.8,86.2-1.1c26.8-7.7,47.5-31.8,72.7-46c23.9-13.5,55.5-18.5,76.5-39.3"/>
	</g>
	<g>
		<path class="st23" d="M-2.2,709.8c30.3,19.3,14.9,26.5,62.3,36.5c19.2,4,44.8-7.1,73.2-5.1c21.2,1.5,44.7,16.8,71.5,16.1
			c21.9-0.6,44.8-16.9,70.7-19.5c22.2-2.2,47.9,9.4,73.1,5.3c37.1-6,70.2-25.1,103.2-28.3c37.7-3.6,73.7,9.1,106.6,8.3
			c38.2-0.9,73.6-15,106.1-13.3c38.6,2,72.3,20.2,104.3,23.9c39,4.6,75.3-5.1,106.8-1.6c25.9,2.9,53.5,20.3,83.7,21.2
			c27.3,0.8,55.4-14.5,84.4-17.4c27.8-2.8,58.6,6.8,86.2-1.1c26.8-7.7,47.5-31.8,72.7-46c23.9-13.5,55.5-18.5,76.5-39.3"/>
	</g>
	<g>
		<path class="st23" d="M-2.2,709.8c30.3,19.3,14.9,26.5,62.3,36.5c19.2,4,44.8-7.1,73.2-5.1c21.2,1.5,44.7,16.8,71.5,16.1
			c21.9-0.6,44.8-16.9,70.7-19.5c22.2-2.2,47.9,9.4,73.1,5.3c37.1-6,70.2-25.1,103.2-28.3c37.7-3.6,73.7,9.1,106.6,8.3
			c38.2-0.9,73.6-15,106.1-13.3c38.6,2,72.3,20.2,104.3,23.9c39,4.6,75.3-5.1,106.8-1.6c25.9,2.9,53.5,20.3,83.7,21.2
			c27.3,0.8,55.4-14.5,84.4-17.4c27.8-2.8,58.6,6.8,86.2-1.1c26.8-7.7,47.5-31.8,72.7-46c23.9-13.5,55.5-18.5,76.5-39.3"/>
	</g>
	<g>
		<path class="st24" d="M-2.2,709.7c30.3,19.3,14.9,26.5,62.3,36.5c19.2,4,44.8-7.1,73.2-5.1c21.2,1.5,44.7,16.8,71.5,16.1
			c21.9-0.6,44.8-16.9,70.7-19.5c22.2-2.2,47.9,9.4,73.1,5.3c37.1-6,70.2-25.1,103.2-28.3c37.7-3.6,73.7,9.1,106.6,8.3
			c38.2-0.9,73.6-15,106.1-13.3c38.6,2,72.3,20.2,104.3,23.9c39,4.6,75.3-5.1,106.8-1.6c25.9,2.9,53.5,20.3,83.7,21.2
			c27.3,0.8,55.4-14.5,84.4-17.4c27.8-2.8,58.6,6.8,86.2-1.1c26.8-7.7,47.5-31.8,72.7-46c23.9-13.5,55.5-18.5,76.5-39.3"/>
	</g>
	<g>
		<path class="st24" d="M-2.2,709.6c30.3,19.3,14.9,26.5,62.3,36.5c19.2,4,44.8-7.1,73.2-5.1c21.2,1.5,44.7,16.8,71.5,16.1
			c21.9-0.6,44.8-16.9,70.7-19.5c22.2-2.2,47.9,9.4,73.1,5.3c37.1-6,70.2-25.1,103.2-28.3c37.7-3.6,73.7,9.1,106.6,8.3
			c38.2-0.9,73.6-15,106.1-13.3c38.6,2,72.3,20.2,104.3,23.9c39,4.6,75.3-5.1,106.8-1.6c25.9,2.9,53.5,20.3,83.7,21.2
			c27.3,0.8,55.4-14.5,84.4-17.4c27.8-2.8,58.6,6.8,86.2-1.1c26.8-7.7,47.5-31.8,72.7-46c23.9-13.5,55.5-18.5,76.5-39.3"/>
	</g>
	<g>
		<path class="st24" d="M-2.2,709.5C28.1,728.8,12.7,736,60.1,746c19.2,4,44.8-7.1,73.2-5.1c21.2,1.5,44.7,16.8,71.5,16.1
			c21.9-0.6,44.8-16.9,70.7-19.5c22.2-2.2,47.9,9.4,73.1,5.3c37.1-6,70.2-25.1,103.2-28.3c37.7-3.6,73.7,9.1,106.6,8.3
			c38.2-0.9,73.6-15,106.1-13.3c38.6,2,72.3,20.2,104.3,23.9c39,4.6,75.3-5.1,106.8-1.6c25.9,2.9,53.5,20.3,83.7,21.2
			c27.3,0.8,55.4-14.5,84.4-17.4c27.8-2.8,58.6,6.8,86.2-1.1c26.8-7.7,47.5-31.8,72.7-46c23.9-13.5,55.5-18.5,76.5-39.3"/>
	</g>
	<g>
		<path class="st25" d="M-2.2,709.4c30.3,19.3,14.9,26.5,62.3,36.5c19.2,4,44.8-7.1,73.2-5.1c21.2,1.5,44.7,16.8,71.5,16.1
			c21.9-0.6,44.8-16.9,70.7-19.5c22.2-2.2,47.9,9.4,73.1,5.3c37.1-6,70.2-25.1,103.2-28.3c37.7-3.6,73.7,9.1,106.6,8.3
			c38.2-0.9,73.6-15,106.1-13.3c38.6,2,72.3,20.2,104.3,23.9c39,4.6,75.3-5.1,106.8-1.6c25.9,2.9,53.5,20.3,83.7,21.2
			c27.3,0.8,55.4-14.5,84.4-17.4c27.8-2.8,58.6,6.8,86.2-1.1c26.8-7.7,47.5-31.8,72.7-46c23.9-13.5,55.5-18.5,76.5-39.3"/>
	</g>
	<g>
		<path class="st26" d="M-2.2,709.4c30.3,19.3,14.9,26.5,62.3,36.5c19.2,4,44.8-7.1,73.2-5.1c21.2,1.5,44.7,16.8,71.5,16.1
			c21.9-0.6,44.8-16.9,70.7-19.5c22.2-2.2,47.9,9.4,73.1,5.3c37.1-6,70.2-25.1,103.2-28.3c37.7-3.6,73.7,9.1,106.6,8.3
			c38.2-0.9,73.6-15,106.1-13.3c38.6,2,72.3,20.2,104.3,23.9c39,4.6,75.3-5.1,106.8-1.6c25.9,2.9,53.5,20.3,83.7,21.2
			c27.3,0.8,55.4-14.5,84.4-17.4c27.8-2.8,58.6,6.8,86.2-1.1c26.8-7.7,47.5-31.8,72.7-46c23.9-13.5,55.5-18.5,76.5-39.3"/>
	</g>
	<g>
		<path class="st27" d="M-2.2,709.3c30.3,19.3,14.9,26.5,62.3,36.5c19.2,4,44.8-7.1,73.2-5.1c21.2,1.5,44.7,16.8,71.5,16.1
			c21.9-0.6,44.8-16.9,70.7-19.5c22.2-2.2,47.9,9.4,73.1,5.3c37.1-6,70.2-25.1,103.2-28.3c37.7-3.6,73.7,9.1,106.6,8.3
			c38.2-0.9,73.6-15,106.1-13.3c38.6,2,72.3,20.2,104.3,23.9c39,4.6,75.3-5.1,106.8-1.6c25.9,2.9,53.5,20.3,83.7,21.2
			c27.3,0.8,55.4-14.5,84.4-17.4c27.8-2.8,58.6,6.8,86.2-1.1c26.8-7.7,47.5-31.8,72.7-46c23.9-13.5,55.5-18.5,76.5-39.3"/>
	</g>
	<g>
		<path class="st28" d="M-2.2,709.2c30.3,19.3,14.9,26.5,62.3,36.5c19.2,4,44.8-7.1,73.2-5.1c21.2,1.5,44.7,16.8,71.5,16.1
			c21.9-0.6,44.8-16.9,70.7-19.5c22.2-2.2,47.9,9.4,73.1,5.3c37.1-6,70.2-25.1,103.2-28.3c37.7-3.6,73.7,9.1,106.6,8.3
			c38.2-0.9,73.6-15,106.1-13.3c38.6,2,72.3,20.2,104.3,23.9c39,4.6,75.3-5.1,106.8-1.6c25.9,2.9,53.5,20.3,83.7,21.2
			c27.3,0.8,55.4-14.5,84.4-17.4c27.8-2.8,58.6,6.8,86.2-1.1c26.8-7.7,47.5-31.8,72.7-46c23.9-13.5,55.5-18.5,76.5-39.3"/>
	</g>
	<g>
		<path class="st28" d="M-2.2,709.1c30.3,19.3,14.9,26.5,62.3,36.5c19.2,4,44.8-7.1,73.2-5.1c21.2,1.5,44.7,16.8,71.5,16.1
			c21.9-0.6,44.8-16.9,70.7-19.5c22.2-2.2,47.9,9.4,73.1,5.3c37.1-6,70.2-25.1,103.2-28.3c37.7-3.6,73.7,9.1,106.6,8.3
			c38.2-0.9,73.6-15,106.1-13.3c38.6,2,72.3,20.2,104.3,23.9c39,4.6,75.3-5.1,106.8-1.6c25.9,2.9,53.5,20.3,83.7,21.2
			c27.3,0.8,55.4-14.5,84.4-17.4c27.8-2.8,58.6,6.8,86.2-1.1c26.8-7.7,47.5-31.8,72.7-46c23.9-13.5,55.5-18.5,76.5-39.3"/>
	</g>
	<g>
		<path class="st29" d="M-2.2,709c30.3,19.3,14.9,26.5,62.3,36.5c19.2,4,44.8-7.1,73.2-5.1c21.2,1.5,44.7,16.8,71.5,16.1
			c21.9-0.6,44.8-16.9,70.7-19.5c22.2-2.2,47.9,9.4,73.1,5.3c37.1-6,70.2-25.1,103.2-28.3c37.7-3.6,73.7,9.1,106.6,8.3
			c38.2-0.9,73.6-15,106.1-13.3c38.6,2,72.3,20.2,104.3,23.9c39,4.6,75.3-5.1,106.8-1.6c25.9,2.9,53.5,20.3,83.7,21.2
			c27.3,0.8,55.4-14.5,84.4-17.4c27.8-2.8,58.6,6.8,86.2-1.1c26.8-7.7,47.5-31.8,72.7-46c23.9-13.5,55.5-18.5,76.5-39.3"/>
	</g>
	<g>
		<path class="st29" d="M-2.2,709c30.3,19.3,14.9,26.5,62.3,36.5c19.2,4,44.8-7.1,73.2-5.1c21.2,1.5,44.7,16.8,71.5,16.1
			c21.9-0.6,44.8-16.9,70.7-19.5c22.2-2.2,47.9,9.4,73.1,5.3c37.1-6,70.2-25.1,103.2-28.3c37.7-3.6,73.7,9.1,106.6,8.3
			c38.2-0.9,73.6-15,106.1-13.3c38.6,2,72.3,20.2,104.3,23.9c39,4.6,75.3-5.1,106.8-1.6c25.9,2.9,53.5,20.3,83.7,21.2
			c27.3,0.8,55.4-14.5,84.4-17.4c27.8-2.8,58.6,6.8,86.2-1.1c26.8-7.7,47.5-31.8,72.7-46c23.9-13.5,55.5-18.5,76.5-39.3"/>
	</g>
	<g>
		<path class="st30" d="M-2.2,708.9c30.3,19.3,14.9,26.5,62.3,36.5c19.2,4,44.8-7.1,73.2-5.1c21.2,1.5,44.7,16.8,71.5,16.1
			c21.9-0.6,44.8-16.9,70.7-19.5c22.2-2.2,47.9,9.4,73.1,5.3c37.1-6,70.2-25.1,103.2-28.3c37.7-3.6,73.7,9.1,106.6,8.3
			c38.2-0.9,73.6-15,106.1-13.3c38.6,2,72.3,20.2,104.3,23.9c39,4.6,75.3-5.1,106.8-1.6c25.9,2.9,53.5,20.3,83.7,21.2
			c27.3,0.8,55.4-14.5,84.4-17.4c27.8-2.8,58.6,6.8,86.2-1.1c26.8-7.7,47.5-31.8,72.7-46c23.9-13.5,55.5-18.5,76.5-39.3"/>
	</g>
	<g>
		<path class="st30" d="M1279.1,648.7"/>
		<path class="st30" d="M-2.2,708.8c30.3,19.3,14.9,26.5,62.3,36.5c19.2,4,44.8-7.1,73.2-5.1c21.2,1.5,44.7,16.8,71.5,16.1
			c21.9-0.6,44.8-16.9,70.7-19.5c22.2-2.2,47.9,9.4,73.1,5.3c37.1-6,70.2-25.1,103.2-28.3c37.7-3.6,73.7,9.1,106.6,8.3
			c38.2-0.9,73.6-15,106.1-13.3c38.6,2,72.3,20.2,104.3,23.9c39,4.6,75.3-5.1,106.8-1.6c25.9,2.9,53.5,20.3,83.7,21.2
			c27.3,0.8,55.4-14.5,84.4-17.4c27.8-2.8,58.6,6.8,86.2-1.1c26.8-7.7,47.5-31.8,72.7-46"/>
	</g>
	<g>
		<path class="st31" d="M-2.2,708.7c30.3,19.3,14.9,26.5,62.3,36.5c19.2,4,44.8-7.1,73.2-5.1c21.2,1.5,44.7,16.8,71.5,16.1
			c21.9-0.6,44.8-16.9,70.7-19.5c22.2-2.2,47.9,9.4,73.1,5.3c37.1-6,70.2-25.1,103.2-28.3c37.7-3.6,73.7,9.1,106.6,8.3
			c38.2-0.9,73.6-15,106.1-13.3c38.6,2,72.3,20.2,104.3,23.9c39,4.6,75.3-5.1,106.8-1.6c25.9,2.9,53.5,20.3,83.7,21.2
			c27.3,0.8,55.4-14.5,84.4-17.4c27.8-2.8,58.6,6.8,86.2-1.1c26.8-7.7,47.5-31.8,72.7-46c23.9-13.5,55.5-18.5,76.5-39.3"/>
	</g>
	<g>
		<path class="st31" d="M-2.2,708.6c30.3,19.3,14.9,26.5,62.3,36.5c19.2,4,44.8-7.1,73.2-5.1c21.2,1.5,44.7,16.8,71.5,16.1
			c21.9-0.6,44.8-16.9,70.7-19.5c22.2-2.2,47.9,9.4,73.1,5.3c37.1-6,70.2-25.1,103.2-28.3c37.7-3.6,73.7,9.1,106.6,8.3
			c38.2-0.9,73.6-15,106.1-13.3c38.6,2,72.3,20.2,104.3,23.9c39,4.6,75.3-5.1,106.8-1.6c25.9,2.9,53.5,20.3,83.7,21.2
			c27.3,0.8,55.4-14.5,84.4-17.4c27.8-2.8,58.6,6.8,86.2-1.1c26.8-7.7,47.5-31.8,72.7-46c23.9-13.5,55.5-18.5,76.5-39.3"/>
	</g>
	<g>
		<path class="st31" d="M-2.2,708.5c30.3,19.3,14.9,26.5,62.3,36.5c19.2,4,44.8-7.1,73.2-5.1c21.2,1.5,44.7,16.8,71.5,16.1
			c21.9-0.6,44.8-16.9,70.7-19.5c22.2-2.2,47.9,9.4,73.1,5.3c37.1-6,70.2-25.1,103.2-28.3c37.7-3.6,73.7,9.1,106.6,8.3
			c38.2-0.9,73.6-15,106.1-13.3c38.6,2,72.3,20.2,104.3,23.9c39,4.6,75.3-5.1,106.8-1.6c25.9,2.9,53.5,20.3,83.7,21.2
			c27.3,0.8,55.4-14.5,84.4-17.4c27.8-2.8,58.6,6.8,86.2-1.1c26.8-7.7,47.5-31.8,72.7-46c23.9-13.5,55.5-18.5,76.5-39.3"/>
	</g>
	<g>
		<path class="st32" d="M-2.2,708.5c30.3,19.3,14.9,26.5,62.3,36.5c19.2,4,44.8-7.1,73.2-5.1c21.2,1.5,44.7,16.8,71.5,16.1
			c21.9-0.6,44.8-16.9,70.7-19.5c22.2-2.2,47.9,9.4,73.1,5.3c37.1-6,70.2-25.1,103.2-28.3c37.7-3.6,73.7,9.1,106.6,8.3
			c38.2-0.9,73.6-15,106.1-13.3c38.6,2,72.3,20.2,104.3,23.9c39,4.6,75.3-5.1,106.8-1.6c25.9,2.9,53.5,20.3,83.7,21.2
			c27.3,0.8,55.4-14.5,84.4-17.4c27.8-2.8,58.6,6.8,86.2-1.1c26.8-7.7,47.5-31.8,72.7-46c23.9-13.5,55.5-18.5,76.5-39.3"/>
	</g>
	<g>
		<path class="st32" d="M-2.2,708.4c30.3,19.3,14.9,26.5,62.3,36.5c19.2,4,44.8-7.1,73.2-5.1c21.2,1.5,44.7,16.8,71.5,16.1
			c21.9-0.6,44.8-16.9,70.7-19.5c22.2-2.2,47.9,9.4,73.1,5.3c37.1-6,70.2-25.1,103.2-28.3c37.7-3.6,73.7,9.1,106.6,8.3
			c38.2-0.9,73.6-15,106.1-13.3c38.6,2,72.3,20.2,104.3,23.9c39,4.6,75.3-5.1,106.8-1.6c25.9,2.9,53.5,20.3,83.7,21.2
			c27.3,0.8,55.4-14.5,84.4-17.4c27.8-2.8,58.6,6.8,86.2-1.1c26.8-7.7,47.5-31.8,72.7-46c23.9-13.5,55.5-18.5,76.5-39.3"/>
	</g>
	<g>
		<path class="st33" d="M-2.2,708.3c30.3,19.3,14.9,26.5,62.3,36.5c19.2,4,44.8-7.1,73.2-5.1c21.2,1.5,44.7,16.8,71.5,16.1
			c21.9-0.6,44.8-16.9,70.7-19.5c22.2-2.2,47.9,9.4,73.1,5.3c37.1-6,70.2-25.1,103.2-28.3c37.7-3.6,73.7,9.1,106.6,8.3
			c38.2-0.9,73.6-15,106.1-13.3c38.6,2,72.3,20.2,104.3,23.9c39,4.6,75.3-5.1,106.8-1.6c25.9,2.9,53.5,20.3,83.7,21.2
			c27.3,0.8,55.4-14.5,84.4-17.4c27.8-2.8,58.6,6.8,86.2-1.1c26.8-7.7,46.4-34,72.7-46c28.6-13,76.5-11.3,76.5-39.3"/>
	</g>
	<g>
		<path class="st34" d="M1279.1,648.2c0,29.5-52.6,25.8-76.5,39.3c-25.1,14.2-45.8,38.3-72.7,46c-27.6,7.9-58.4-1.7-86.2,1.1
			c-28.9,2.9-57,18.2-84.4,17.4c-30.2-0.9-57.8-18.2-83.7-21.2c-31.5-3.6-67.8,6.1-106.8,1.6c-32-3.7-65.7-21.9-104.3-23.9
			c-32.6-1.7-67.9,12.4-106.1,13.3c-32.9,0.8-69-12-106.6-8.3c-33,3.2-66.1,22.3-103.2,28.3c-25.3,4.1-50.9-7.5-73.1-5.3
			c-25.9,2.6-48.8,18.9-70.7,19.5c-26.7,0.7-50.3-14.6-71.5-16.1c-28.4-2-54,9.2-73.2,5.1c-47.4-10-32-17.2-62.3-36.5v91.6h1281.3
			C1279.1,799.9,1279.1,643.7,1279.1,648.2z"/>
	</g>
</g>
</svg>
