<?xml version="1.0" encoding="utf-8"?>
<!-- Generator: Adobe Illustrator 20.1.0, SVG Export Plug-In . SVG Version: 6.00 Build 0)  -->
<svg version="1.1" xmlns="http://www.w3.org/2000/svg" xmlns:xlink="http://www.w3.org/1999/xlink" x="0px" y="0px"
	 viewBox="0 0 1280 155" style="enable-background:new 0 0 1280 155;" xml:space="preserve">
<style type="text/css">
	.st0{fill:url(#SVGID_1_);}
	.st1{fill:#26EAEF;}
	.st2{fill-rule:evenodd;clip-rule:evenodd;fill:#231F20;}
	.st3{fill:#157E89;}
</style>
<g id="Layer_1">
	
		<linearGradient id="SVGID_1_" gradientUnits="userSpaceOnUse" x1="640" y1="1" x2="640" y2="164.5" gradientTransform="matrix(1 0 0 -1 0 156)">
		<stop  offset="0" style="stop-color:#520099"/>
		<stop  offset="0.2973" style="stop-color:#892982"/>
		<stop  offset="0.8815" style="stop-color:#FF7F50"/>
	</linearGradient>
	<rect y="-8.5" class="st0" width="1280" height="163.5"/>
	<rect x="-24.6" y="90.6" class="st1" width="1326.6" height="75.5"/>
	<path class="st2" d="M157.1,67v2.7h-1.6V67H157.1L157.1,67z M162.5,66.8h-1.6v2.7h1.6V66.8L162.5,66.8z M389.5,91.5
		c1.7-3.1,8.8-15.1,12.4-27.1l-14.6,0.2l-2.5-5.3v-5.5h-12.4l-1.4-5.8l0.5-4.4l0.8-0.2l0.1-1.8l-3-0.3l0.8-5.8l1.8-0.2l-2.4-3.3
		l-3.4-0.1v-4.6l0.3-0.4l0.4-0.8l-0.2-1l-0.4-0.2l0.5-0.2l3.9-0.2c0.1,0,0.1-0.1,0.1-0.1h0.1h0.1h0.1c0.1,0,0.1-0.1,0.2-0.1l0.1-0.1
		c0.1-0.1,0.1,0,0.1-0.1c0-0.1,0.1-0.1,0.1-0.2v-0.1v-0.1v-0.1v-0.1v-0.1v-0.1v-0.1v-0.1v-0.1v-0.1h-0.1v-0.1V23l-0.1-0.1h-0.1
		c-0.1,0-0.2,0-0.3,0l-10.5-0.1c-0.1,0-0.2,0-0.2,0h-0.1h-0.1h-0.1H360h-0.2h-0.2c-0.1,0-0.2,0-0.2,0h-0.1v0.1h-0.1h-0.1v0.1h-0.1
		V23h-0.1V23h-0.1v0.1l-0.1,0.1v0.1v0.1v0.1l0.1,0.1v0.1v0.1c0,0.1,0,0.1,0.1,0.1c0.1,0,0.1,0.1,0.1,0.2c0,0.1,0,0.1,0.1,0.1
		c0.1,0.1,0,0.1,0.1,0.1h0.2c0.1,0,0.3,0,0.4,0l4.5,0.2l-0.3,0.7l-0.2,1.5l1,1l0.3,4.2L348,31.6l-1.4,0.1l-0.7-6.8l2.1-1l0.9,1.8
		h1.2l0.1-1.6l1.4-0.9l-1-0.3v-1h-0.7l0.1-0.4l1.1-0.1l0.1-0.8c0,0-0.3-0.3-0.3-0.3c-0.1,0-0.3-0.1-0.4-0.1c-0.1,0-0.3-0.1-0.3-0.1
		c-0.2-0.1-1-0.1-1.3-0.1c-0.4,0-0.6,0.1-0.9,0.3v0.9l-1.8,0.2l-0.2,1.1l-0.8-0.1l-0.2-2.7l10-0.2v-0.6l-10.1,0.1l-1.4-12.7l0.7-0.5
		L344,4.1l-0.2,1.1l-0.4,0.1L343.3,4l-0.5,1.2l-1.1,0.1V6h-3.3l-0.3-2.2l-0.2,2.5l4.1,0.2l0.2,2.3l-5.3-1.1l-0.1,0.4l5.6,1.5
		l0.1,2.3l-3.5,0.2l-0.1,0.5l2.4,0.1l1.6,1.3l0.2,6.5l-1.4,12l-6.9,1.5l-1.4,1.6l-20,1.4c-0.1,0-0.4,0.2-0.7,0.2
		c-0.2,0-0.7,0.1-0.7,0.2c0,0.1-0.2,0.1-0.3,0.1c-0.2,0-0.4,0.2-0.6,0.2c-0.3,0-0.7,0-0.9,0.2c0,0-1.4,0-1.5,0c-0.6,0-1.1,0-1.7,0
		c-0.2,0-0.1,0.5-0.1,0.6l-0.9,3.1l-1.1-0.4l-0.7,0.1c0-0.1-0.2-0.9-0.2-0.9c-0.1-0.1-0.3-0.7-0.3-0.8c0-0.2-0.2-0.5-0.2-0.7
		c0-0.2-0.2-0.5-0.2-0.7c0-0.4-0.3-0.5-0.3-0.9c0-0.2-0.1-0.5-0.2-0.5c-0.2,0-0.4,0-0.6,0l-20.8,0.7c-0.1,0-0.2,0-0.3,0H281h-0.1
		h-0.1h-0.1c-0.1,0-0.2,0-0.3,0c-0.1,0-0.2,0-0.2,0.1c0,0.1-0.1,0.1-0.2,0.2v0.1H280v0.1l-0.1,0.3l-1.7,8.4l-11.3,0.4l-0.2,4.8h-0.5
		v1.1l-3.6-0.1l-2.9,6.5l-39.2,0.9c-0.1,0,0.9-0.9,0.9-1.5c0-0.9-0.5-0.9-1.3-0.9c-1.7,0-3.2,0.3-4.6,1l-4.7-19.1l-1.4,0.1l0.1-5
		l-2.3-0.1v0.7c-0.1,0-0.3-0.5-0.4-0.5c-0.1,0-0.6,0-0.7,0c-0.5,0-0.7,0.3-1,0.6c-0.1,0.1-0.1,0.7-0.1,0.9c0,0.2,0.2,0.6,0.2,0.6V37
		c0.1,0.1,0.1,0.1,0.1,0.2c0,0.3,0.2,0.4,0.5,0.6l-0.1,1.7l-5.9,0.1l0.1,0.5l4.2,1.6l0.3,8.9l-2.2,3.6v0.4h0.3v1.7
		c-0.1,0-0.2,0-0.3,0H202h-0.1h-0.1h-0.1h-0.1c-0.1,0-0.1,0-0.1,0.1c-0.1,0.1-0.2,0.1-0.3,0.1h-0.1h-0.1v0.1h-0.1h-0.1h-0.1h-0.1
		h-0.1v0.1h-0.1h-0.1c0,0-0.1,0.1-0.2,0.1c-0.1,0-0.3,0.1-0.4,0.2c-0.4-0.2-0.9,0-1.2,0.1c-0.1,0.1-0.1,0.2-0.1,0.3
		c0,0.1,0.1,0.4-0.1,0.4c-0.3,0-0.5,0.1-0.7,0.1l-0.3,0.1c0,0-0.1,0.2-0.1,0.2c-0.2,0.1-0.1,1-0.1,1.3H193l-6.6-0.6l-1-4.6l-4-3.1
		l-2.7-12.1h-11.5v0.5l4.6,1.9l0.3,15.3l-0.9-0.5l-0.9,0.1l-1.7,0.5v-2.5l1.7-0.1v-1.1l-2.7-0.9h-1.1l-2.7,0.8v1.5h1.2v0.2l-2.1,0.1
		L163,58l-7.9-0.1l-1.3-16.1l-0.4,0.1v1.3c0,0-1.1,1.7-1.1,1.7c-0.5,0.5-0.7,1.4-0.7,2.3c0,0.7-0.6,1.1-1,1.5
		c-0.2,0.2-0.2,0.7-0.4,0.9c-0.1,0.1-0.9,0.8-0.7,0.8h0.3c0.5-0.5,2.7-1.2,2.7-1.9v-0.3c0.1-0.1,1.3-1,1.4-1
		c-0.4,0,0.7,10.2,0.5,10.4l-0.4,0.6h-0.2h-0.2h-0.4h-0.4h-0.6c-0.2,0-0.6,0-0.8,0c-0.4,0-0.8,0-1.2,0c0-0.8,0-2,0-2.7
		c0-2,0.6-0.8,1.2-1.4c0.2-0.2-0.2-1.4-0.2-1.4c-0.8-0.4-6.3-0.6-6.3,0.4c0,0.6,0,1.1,0.6,1.2c1.7,0.2,1.3,3.4,1.4,3.3
		c0.2-0.6-1.4,1.4-1.6,1.6c-0.4,0.4,0.2,2.9-0.6,2.9c-1.4,0-2.9,0-4.3,0c-1,0-3.9-0.4-3.9,0.6c0,1-0.6,3.7-1,4.5
		c-0.8,1.8,0.6,3.9-1.2,5.7c-0.6,0-0.9,0-1,0.6c0,0.1,0,0.2,0,0.2l0,0c-0.1,0.7-0.2,1.4-0.2,2.1c0,0,0,0,0,0
		c-0.2,1.2-0.3,2.4-0.5,3.5c0,0,0,0.1,0,0.1c0,0.2-0.1,0.4-0.1,0.5c0,0,0,0,0,0c0,0.1,0,0.2,0,0.3c0,0,0,0.1,0,0.1c0,0,0,0.1,0,0.1
		c0,0,0,0,0,0c0,0.3-0.1,0.7-0.1,1c0,0,0,0,0,0c0,0.1,0,0.2,0,0.2c0,0,0,0,0,0c0,0.1,0,0.2,0,0.2c0,0,0,0,0,0c0,0.1,0,0.1,0,0.2
		c0,0,0,0,0,0c0,0.1,0,0.1,0,0.2c0,0,0,0.1,0,0.1c0,0.1,0,0.1,0,0.2c0,0,0,0,0,0c0,0.1,0,0.1,0,0.2c0,0,0,0,0,0.1c0,0.1,0,0.1,0,0.2
		c0,0,0,0,0,0.1c0,0,0,0.1,0,0.1c0,0,0,0,0,0.1c0,0,0,0.1,0,0.1c0,0,0,0,0,0.1c0,0,0,0.1,0,0.1c0,0,0,0,0,0.1c0,0,0,0.1,0,0.1
		c0,0,0,0,0,0c0,0.1,0,0.1,0,0.2c0,0,0,0,0,0c0,0,0,0.1,0,0.1c0,0,0,0,0,0c0,0,0,0.1,0,0.1c0,0,0,0,0,0c0,0,0,0.1,0,0.1c0,0,0,0,0,0
		c0,0,0,0.1,0,0.1c0,0,0,0,0,0c0,0,0,0.1,0,0.1c0,0,0,0,0,0c0,0,0,0.1,0,0.1c0,0,0,0,0,0c0,0,0,0.1,0,0.1c0,0,0,0,0,0
		c0,0,0,0.1,0,0.1c0,0,0,0,0,0.1c0,0,0,0.1,0,0.1c0,0,0,0,0,0c0,0,0,0.1,0,0.1c0,0,0,0,0,0c0,0,0,0.1,0,0.1c0,0,0,0,0,0
		c0,0,0,0.1,0,0.1c0,0,0,0,0,0c0,0,0,0.1,0,0.1c0,0,0,0,0,0c0,0,0,0.1,0,0.1c0,0,0,0,0,0c0,0,0,0,0,0.1c0,0,0,0,0,0c0,0,0,0,0,0.1
		c0,0,0,0,0,0c0,0,0,0,0,0.1c0,0,0,0,0,0c0,0,0,0,0,0.1c0,0,0,0,0,0c0,0,0,0,0,0.1c0,0,0,0,0,0c0,0,0,0,0,0c0,0,0,0,0,0c0,0,0,0,0,0
		c0,0,0,0,0,0c0,0,0,0,0,0c0,0,0,0,0,0c0,0,0,0,0.1,0c0,0,0,0,0,0c0,0,0,0,0.1,0l7.1,5.7c137.1,7.5,225.7,5.4,249.4-0.4c0,0,0,0,0,0
		c0,0,0,0,0,0c0,0,0,0,0,0c0,0,0,0,0,0c0,0,0,0,0,0c0,0,0,0,0,0c0,0,0,0,0-0.1c0,0,0,0,0,0c0,0,0-0.1,0-0.1c0,0,0,0,0,0
		C389.3,91.8,389.4,91.7,389.5,91.5C389.5,91.5,389.5,91.5,389.5,91.5L389.5,91.5z M371.9,35.3l-23.4-0.5c0-0.1-0.1-0.2-0.1-0.3
		l-0.4-2.6l-0.1,3l-14.6,1.7l14.4-1.3l-1.7,12.3l-5,0.1l5,0.2l21.6-0.2h-21.2l1.9-12.3l22,0.7v-0.3L371.9,35.3L371.9,35.3z
		 M367.5,37.2l-1.6-0.1l-0.6,3.7l1.7,0.1L367.5,37.2L367.5,37.2z M365,37.1l-1.6-0.1l-0.6,3.7l1.7,0.1L365,37.1L365,37.1z M362.4,37
		l-1.6-0.1l-0.6,3.7l1.7,0.1L362.4,37L362.4,37z M359.9,36.9l-1.6-0.1l-0.6,3.7l1.7,0.1L359.9,36.9L359.9,36.9z M357.4,37l-1.6-0.1
		l-0.6,3.7l1.7,0.1L357.4,37L357.4,37z M354.7,36.9l-1.6-0.1l-0.6,3.7l1.7,0.1L354.7,36.9L354.7,36.9z M352.2,36.9l-1.6-0.1
		l-0.6,3.7l1.7,0.1L352.2,36.9L352.2,36.9z M367.2,51l-1.8,0.1l0.7,4.1h1.7L367.2,51L367.2,51z M364.4,51l-1.8,0.1l0.7,4.1h1.7
		L364.4,51L364.4,51z M361.6,51l-1.8,0.1l0.7,4.1h1.7L361.6,51L361.6,51z M358.8,51.1l-1.8,0.1l0.7,4.1h1.7L358.8,51.1L358.8,51.1z
		 M356.1,51.1l-1.8,0.1l0.7,4.1h1.7L356.1,51.1L356.1,51.1z M353.3,51.1l-1.8,0.1l0.7,4.1h1.7L353.3,51.1L353.3,51.1z M350.5,51.1
		l-1.8,0.1l0.7,4.1h1.7L350.5,51.1L350.5,51.1z M345.7,37.1h-2.4v3.6h2.4V37.1L345.7,37.1z M334.6,39.4H333v2.8h1.6V39.4L334.6,39.4
		z M341.5,37.2H339v5.1h2.6V37.2L341.5,37.2z M327.8,39.9h-1.4v3h1.4V39.9L327.8,39.9z M337.9,51.7h-3.4v4.4h3.4V51.7L337.9,51.7z
		 M333.3,52h-3.1v4.3h3.1V52L333.3,52z M328.9,52.4h-3v4.3h3V52.4L328.9,52.4z M324.6,52.7h-3v4.4h3V52.7L324.6,52.7z M320.6,53
		h-3.1v4.3h3.1V53L320.6,53z M316.4,53.4h-3.1v4.2h3.1V53.4L316.4,53.4z M312.4,53.6h-3.1v4.4h3.1V53.6L312.4,53.6z M308.2,54h-3.1
		v4.3h3.1V54L308.2,54z M296.2,54.6h-3v4h3V54.6L296.2,54.6z M292,54.7h-2.7v4h2.7V54.7L292,54.7z M283.5,67h-1.7v2.9h1.7V67
		L283.5,67z M267.8,67.5h-1.6v2.7h1.6V67.5L267.8,67.5z M260,67.5h-1.6v2.7h1.6V67.5L260,67.5z M254.3,67.7h-1.6v2.7h1.6V67.7
		L254.3,67.7z M247,67.9h-1.6v2.7h1.6V67.9L247,67.9z M239.7,68.1h-1.6v2.7h1.6V68.1L239.7,68.1z M232.4,68.3h-1.6V71h1.6V68.3
		L232.4,68.3z M225.2,68.5h-1.6v2.7h1.6V68.5L225.2,68.5z M217.9,68.7h-1.6v2.7h1.6V68.7L217.9,68.7z M210.6,68.9H209v2.7h1.6V68.9
		L210.6,68.9z M203.4,69.1h-1.6v2.7h1.6V69.1L203.4,69.1z M196.1,69.3h-1.6v2.7h1.6V69.3L196.1,69.3z M168.1,67.2h-1.6v2.7h1.6V67.2
		L168.1,67.2z M342.9,15.6l-0.1-1.6l-1.3-1.1c0.4-0.2,1.3-0.3,1.6-0.2c0.1,0-0.6,0-0.7,0c-0.3,0,0.3,0.5,0.3,0.5
		C343,13.6,343.3,14.9,342.9,15.6L342.9,15.6z M342.5,11.7l-0.1-2C343.1,10.2,342.9,11.6,342.5,11.7L342.5,11.7z"/>
	<g>
		<g>
			<g>
				<path class="st3" d="M311.6,93.8c0,0-4.5-0.9-6.7-3.9c0,0-3.8,3.3-10.2,3.3c0,0,5.7,1.2,9.9-1.1C304.6,92.1,308,93.7,311.6,93.8
					z"/>
			</g>
			<g>
				<path class="st3" d="M307,97.5c0,0-12.4-2.4-18.7-10.7c0,0-10.7,9.1-28.6,9.2c0,0,16,3.2,27.7-3C287.4,92.9,297.1,97.5,307,97.5
					z"/>
			</g>
			<g>
				<path class="st3" d="M24.7,98.5c0,0,20.8-5.1,30.8-19.7c0,0,18.8,14.5,49.1,13.1c0,0-26.7,6.8-47.1-2.8
					C57.5,89.1,41.5,97.5,24.7,98.5z"/>
			</g>
			<g>
				<path class="st3" d="M228.8,97.5c0,0,15.8-0.8,25.1-10.1c0,0,11.7,13.2,33.9,16.3c0,0-20.3,1.3-33.8-8.5
					C254,95.2,241.2,99.1,228.8,97.5z"/>
			</g>
			<g>
				<path class="st3" d="M-30.1,96.9c0,0,23.8-1.7,37.6-16.1c0,0,18.1,19.5,51.6,23.5c0,0-30.7,2.6-51.4-11.8
					C7.8,92.6-11.5,98.9-30.1,96.9z"/>
			</g>
			<g>
				<path class="st3" d="M132.8,98.5c0,0-20.2-3.9-30.5-17.5c0,0-17.4,14.9-46.5,15c0,0,26,5.3,45.1-4.9
					C100.8,91.1,116.6,98.4,132.8,98.5z"/>
			</g>
			<g>
				<path class="st3" d="M252.6,108.8c0,0-19.5-6.4-28-21.3c0,0-19.2,12.5-48,8.8c0,0,25.1,8.6,45.3,0.9
					C221.9,97.2,236.6,106.5,252.6,108.8z"/>
			</g>
			<g>
				<path class="st3" d="M191,100.5c0,0-12.4-2.4-18.8-10.7c0,0-10.7,9.1-28.6,9.2c0,0,16,3.3,27.7-3
					C171.4,96,181.1,100.5,191,100.5z"/>
			</g>
			<g>
				<path class="st3" d="M97.3,99.9c0,0,23.8-1.7,37.6-16.1c0,0,18.1,19.5,51.7,23.5c0,0-30.7,2.6-51.4-11.7
					C135.2,95.6,116,102,97.3,99.9z"/>
			</g>
			<g>
				<path class="st3" d="M114.6,109.1c0,0-12.4-2.4-18.7-10.8c0,0-10.7,9.2-28.6,9.2c0,0,16,3.3,27.7-3
					C95,104.5,104.7,109,114.6,109.1z"/>
			</g>
			<g>
				<path class="st3" d="M259,110.6c0,0-12.4-2.4-18.7-10.7c0,0-10.7,9.1-28.6,9.2c0,0,16,3.3,27.7-3
					C239.4,106,249.1,110.5,259,110.6z"/>
			</g>
		</g>
		<g>
			<g>
				<path class="st3" d="M643.6,95.5c0,0-4.5-0.9-6.7-3.9c0,0-3.8,3.3-10.2,3.3c0,0,5.7,1.2,9.9-1.1
					C636.6,93.8,640.1,95.5,643.6,95.5z"/>
			</g>
			<g>
				<path class="st3" d="M639,99.2c0,0-12.4-2.4-18.7-10.7c0,0-10.7,9.1-28.6,9.2c0,0,16,3.2,27.7-3C619.4,94.7,629.1,99.2,639,99.2
					z"/>
			</g>
			<g>
				<path class="st3" d="M356.7,100.3c0,0,20.8-5.1,30.8-19.7c0,0,18.8,14.5,49.1,13.1c0,0-26.7,6.8-47.1-2.8
					C389.5,90.8,373.5,99.2,356.7,100.3z"/>
			</g>
			<g>
				<path class="st3" d="M560.9,99.2c0,0,15.8-0.8,25.1-10.1c0,0,11.7,13.2,33.9,16.3c0,0-20.3,1.3-33.8-8.5
					C586,97,573.2,100.9,560.9,99.2z"/>
			</g>
			<g>
				<path class="st3" d="M301.9,98.6c0,0,23.8-1.7,37.6-16.1c0,0,18.1,19.5,51.6,23.5c0,0-30.7,2.6-51.4-11.8
					C339.8,94.3,320.5,100.6,301.9,98.6z"/>
			</g>
			<g>
				<path class="st3" d="M464.8,100.3c0,0-20.2-3.9-30.5-17.5c0,0-17.4,14.9-46.5,15c0,0,26,5.3,45.1-4.9
					C432.8,92.8,448.6,100.1,464.8,100.3z"/>
			</g>
			<g>
				<path class="st3" d="M584.6,110.5c0,0-19.5-6.4-28-21.3c0,0-19.2,12.5-48,8.8c0,0,25.1,8.6,45.3,0.9
					C553.9,99,568.7,108.3,584.6,110.5z"/>
			</g>
			<g>
				<path class="st3" d="M523.1,102.3c0,0-12.4-2.4-18.8-10.7c0,0-10.7,9.1-28.6,9.2c0,0,16,3.3,27.7-3
					C503.4,97.7,513.1,102.2,523.1,102.3z"/>
			</g>
			<g>
				<path class="st3" d="M429.3,101.7c0,0,23.8-1.7,37.6-16.1c0,0,18.1,19.5,51.7,23.5c0,0-30.7,2.6-51.4-11.7
					C467.2,97.4,448,103.7,429.3,101.7z"/>
			</g>
			<g>
				<path class="st3" d="M446.6,110.8c0,0-12.4-2.4-18.7-10.8c0,0-10.7,9.2-28.6,9.2c0,0,16,3.3,27.7-3
					C427,106.3,436.7,110.7,446.6,110.8z"/>
			</g>
			<g>
				<path class="st3" d="M591,112.3c0,0-12.4-2.4-18.7-10.7c0,0-10.7,9.1-28.6,9.2c0,0,16,3.3,27.7-3
					C571.4,107.7,581.1,112.2,591,112.3z"/>
			</g>
		</g>
		<g>
			<g>
				<path class="st3" d="M975.2,95.5c0,0-4.5-0.9-6.7-3.9c0,0-3.8,3.3-10.2,3.3c0,0,5.7,1.2,9.9-1.1
					C968.1,93.8,971.6,95.5,975.2,95.5z"/>
			</g>
			<g>
				<path class="st3" d="M970.6,99.2c0,0-12.4-2.4-18.7-10.7c0,0-10.7,9.1-28.6,9.2c0,0,16,3.2,27.7-3
					C951,94.7,960.7,99.2,970.6,99.2z"/>
			</g>
			<g>
				<path class="st3" d="M688.3,100.3c0,0,20.8-5.1,30.8-19.7c0,0,18.8,14.5,49.1,13.1c0,0-26.7,6.8-47.1-2.8
					C721.1,90.8,705,99.2,688.3,100.3z"/>
			</g>
			<g>
				<path class="st3" d="M892.4,99.2c0,0,15.8-0.8,25.1-10.1c0,0,11.7,13.2,33.9,16.3c0,0-20.3,1.3-33.8-8.5
					C917.6,97,904.7,100.9,892.4,99.2z"/>
			</g>
			<g>
				<path class="st3" d="M633.4,98.6c0,0,23.8-1.7,37.6-16.1c0,0,18.1,19.5,51.6,23.5c0,0-30.7,2.6-51.4-11.8
					C671.3,94.3,652.1,100.6,633.4,98.6z"/>
			</g>
			<g>
				<path class="st3" d="M796.3,100.3c0,0-20.2-3.9-30.5-17.5c0,0-17.4,14.9-46.5,15c0,0,26,5.3,45.1-4.9
					C764.4,92.8,780.2,100.1,796.3,100.3z"/>
			</g>
			<g>
				<path class="st3" d="M916.2,110.5c0,0-19.5-6.4-28-21.3c0,0-19.2,12.5-48,8.8c0,0,25.1,8.6,45.3,0.9
					C885.5,99,900.2,108.3,916.2,110.5z"/>
			</g>
			<g>
				<path class="st3" d="M854.6,102.3c0,0-12.4-2.4-18.8-10.7c0,0-10.7,9.1-28.6,9.2c0,0,16,3.3,27.7-3
					C835,97.7,844.7,102.2,854.6,102.3z"/>
			</g>
			<g>
				<path class="st3" d="M760.9,101.7c0,0,23.8-1.7,37.6-16.1c0,0,18.1,19.5,51.7,23.5c0,0-30.7,2.6-51.4-11.7
					C798.8,97.4,779.5,103.7,760.9,101.7z"/>
			</g>
			<g>
				<path class="st3" d="M778.2,110.8c0,0-12.4-2.4-18.7-10.8c0,0-10.7,9.2-28.6,9.2c0,0,16,3.3,27.7-3
					C758.5,106.3,768.3,110.7,778.2,110.8z"/>
			</g>
			<g>
				<path class="st3" d="M922.6,112.3c0,0-12.4-2.4-18.7-10.7c0,0-10.7,9.1-28.6,9.2c0,0,16,3.3,27.7-3
					C902.9,107.7,912.6,112.2,922.6,112.3z"/>
			</g>
		</g>
		<g>
			<g>
				<path class="st3" d="M975.2,95.5c0,0-4.5-0.9-6.7-3.9c0,0-3.8,3.3-10.2,3.3c0,0,5.7,1.2,9.9-1.1
					C968.1,93.8,971.6,95.5,975.2,95.5z"/>
			</g>
			<g>
				<path class="st3" d="M970.6,99.2c0,0-12.4-2.4-18.7-10.7c0,0-10.7,9.1-28.6,9.2c0,0,16,3.2,27.7-3
					C951,94.7,960.7,99.2,970.6,99.2z"/>
			</g>
			<g>
				<path class="st3" d="M688.3,100.3c0,0,20.8-5.1,30.8-19.7c0,0,18.8,14.5,49.1,13.1c0,0-26.7,6.8-47.1-2.8
					C721.1,90.8,705,99.2,688.3,100.3z"/>
			</g>
			<g>
				<path class="st3" d="M892.4,99.2c0,0,15.8-0.8,25.1-10.1c0,0,11.7,13.2,33.9,16.3c0,0-20.3,1.3-33.8-8.5
					C917.6,97,904.7,100.9,892.4,99.2z"/>
			</g>
			<g>
				<path class="st3" d="M633.4,98.6c0,0,23.8-1.7,37.6-16.1c0,0,18.1,19.5,51.6,23.5c0,0-30.7,2.6-51.4-11.8
					C671.3,94.3,652.1,100.6,633.4,98.6z"/>
			</g>
			<g>
				<path class="st3" d="M796.3,100.3c0,0-20.2-3.9-30.5-17.5c0,0-17.4,14.9-46.5,15c0,0,26,5.3,45.1-4.9
					C764.4,92.8,780.2,100.1,796.3,100.3z"/>
			</g>
			<g>
				<path class="st3" d="M916.2,110.5c0,0-19.5-6.4-28-21.3c0,0-19.2,12.5-48,8.8c0,0,25.1,8.6,45.3,0.9
					C885.5,99,900.2,108.3,916.2,110.5z"/>
			</g>
			<g>
				<path class="st3" d="M854.6,102.3c0,0-12.4-2.4-18.8-10.7c0,0-10.7,9.1-28.6,9.2c0,0,16,3.3,27.7-3
					C835,97.7,844.7,102.2,854.6,102.3z"/>
			</g>
			<g>
				<path class="st3" d="M760.9,101.7c0,0,23.8-1.7,37.6-16.1c0,0,18.1,19.5,51.7,23.5c0,0-30.7,2.6-51.4-11.7
					C798.8,97.4,779.5,103.7,760.9,101.7z"/>
			</g>
			<g>
				<path class="st3" d="M778.2,110.8c0,0-12.4-2.4-18.7-10.8c0,0-10.7,9.2-28.6,9.2c0,0,16,3.3,27.7-3
					C758.5,106.3,768.3,110.7,778.2,110.8z"/>
			</g>
			<g>
				<path class="st3" d="M922.6,112.3c0,0-12.4-2.4-18.7-10.7c0,0-10.7,9.1-28.6,9.2c0,0,16,3.3,27.7-3
					C902.9,107.7,912.6,112.2,922.6,112.3z"/>
			</g>
		</g>
		<g>
			<g>
				<path class="st3" d="M1307.4,95.5c0,0-4.5-0.9-6.7-3.9c0,0-3.8,3.3-10.2,3.3c0,0,5.7,1.2,9.9-1.1
					C1300.4,93.8,1303.9,95.5,1307.4,95.5z"/>
			</g>
			<g>
				<path class="st3" d="M1302.8,99.2c0,0-12.4-2.4-18.7-10.7c0,0-10.7,9.1-28.6,9.2c0,0,16,3.2,27.7-3
					C1283.2,94.7,1292.9,99.2,1302.8,99.2z"/>
			</g>
			<g>
				<path class="st3" d="M1020.5,100.3c0,0,20.8-5.1,30.8-19.7c0,0,18.8,14.5,49.1,13.1c0,0-26.7,6.8-47.1-2.8
					C1053.3,90.8,1037.3,99.2,1020.5,100.3z"/>
			</g>
			<g>
				<path class="st3" d="M1224.7,99.2c0,0,15.8-0.8,25.1-10.1c0,0,11.7,13.2,33.9,16.3c0,0-20.3,1.3-33.8-8.5
					C1249.8,97,1237,100.9,1224.7,99.2z"/>
			</g>
			<g>
				<path class="st3" d="M965.7,98.6c0,0,23.8-1.7,37.6-16.1c0,0,18.1,19.5,51.6,23.5c0,0-30.7,2.6-51.4-11.8
					C1003.6,94.3,984.3,100.6,965.7,98.6z"/>
			</g>
			<g>
				<path class="st3" d="M1128.6,100.3c0,0-20.2-3.9-30.5-17.5c0,0-17.4,14.9-46.5,15c0,0,26,5.3,45.1-4.9
					C1096.6,92.8,1112.4,100.1,1128.6,100.3z"/>
			</g>
			<g>
				<path class="st3" d="M1248.4,110.5c0,0-19.5-6.4-28-21.3c0,0-19.2,12.5-48,8.8c0,0,25.1,8.6,45.3,0.9
					C1217.7,99,1232.4,108.3,1248.4,110.5z"/>
			</g>
			<g>
				<path class="st3" d="M1186.9,102.3c0,0-12.4-2.4-18.8-10.7c0,0-10.7,9.1-28.6,9.2c0,0,16,3.3,27.7-3
					C1167.2,97.7,1176.9,102.2,1186.9,102.3z"/>
			</g>
			<g>
				<path class="st3" d="M1093.1,101.7c0,0,23.8-1.7,37.6-16.1c0,0,18.1,19.5,51.7,23.5c0,0-30.7,2.6-51.4-11.7
					C1131,97.4,1111.8,103.7,1093.1,101.7z"/>
			</g>
			<g>
				<path class="st3" d="M1110.4,110.8c0,0-12.4-2.4-18.7-10.8c0,0-10.7,9.2-28.6,9.2c0,0,16,3.3,27.7-3
					C1090.8,106.3,1100.5,110.7,1110.4,110.8z"/>
			</g>
			<g>
				<path class="st3" d="M1254.8,112.3c0,0-12.4-2.4-18.7-10.7c0,0-10.7,9.1-28.6,9.2c0,0,16,3.3,27.7-3
					C1235.2,107.7,1244.9,112.2,1254.8,112.3z"/>
			</g>
		</g>
	</g>
</g>
<g id="Layer_2">
</g>
</svg>
