<?xml version="1.0" encoding="utf-8"?>
<!-- Generator: Adobe Illustrator 20.1.0, SVG Export Plug-In . SVG Version: 6.00 Build 0)  -->
<svg version="1.1" id="Layer_1" xmlns="http://www.w3.org/2000/svg" xmlns:xlink="http://www.w3.org/1999/xlink" x="0px" y="0px"
	 viewBox="0 0 1280 153.3" style="enable-background:new 0 0 1280 153.3;" xml:space="preserve">
<style type="text/css">
	.st0{fill:none;stroke:#2E6280;stroke-miterlimit:10;}
	.st1{fill:none;stroke:#316480;stroke-miterlimit:10;}
	.st2{fill:#26EAEF;}
</style>
<g>
	<g>
		<path class="st0" d="M1280.1,4"/>
		<path class="st0" d="M-1.2,64.1c30.3,19.3,14.9,26.5,62.3,36.5c19.2,4,44.8-7.1,73.2-5.1c21.2,1.5,44.7,16.8,71.5,16.1
			c21.9-0.6,44.8-16.9,70.7-19.5c22.2-2.2,47.9,9.4,73.1,5.3c37.1-6,70.2-25.1,103.2-28.3c37.7-3.6,73.7,9.1,106.6,8.3
			c38.2-0.9,73.6-15,106.1-13.3c38.6,2,72.3,20.2,104.3,23.9c39,4.6,75.3-5.1,106.8-1.6c25.9,2.9,53.5,20.3,83.7,21.2
			c27.3,0.8,55.4-14.5,84.4-17.4c27.8-2.8,58.6,6.8,86.2-1.1c26.8-7.7,47.5-31.8,72.7-46"/>
	</g>
	<g>
		<path class="st1" d="M-1.2,63.6c30.3,19.3,14.9,26.5,62.3,36.5c19.2,4,44.8-7.1,73.2-5.1c21.2,1.5,44.7,16.8,71.5,16.1
			c21.9-0.6,44.8-16.9,70.7-19.5c22.2-2.2,47.9,9.4,73.1,5.3c37.1-6,70.2-25.1,103.2-28.3c37.7-3.6,73.7,9.1,106.6,8.3
			c38.2-0.9,73.6-15,106.1-13.3c38.6,2,72.3,20.2,104.3,23.9c39,4.6,75.3-5.1,106.8-1.6c25.9,2.9,53.5,20.3,83.7,21.2
			c27.3,0.8,55.4-14.5,84.4-17.4c27.8-2.8,58.6,6.8,86.2-1.1c26.8-7.7,46.4-34,72.7-46c28.6-13,77.4-12.5,77.4-40.5"/>
	</g>
	<g>
		<path class="st2" d="M1281,2.1c0,29.5-52.6,25.8-76.5,39.3c-33.2,16.8-45.8,38.3-72.7,46c-27.6,7.9-58.4-1.7-86.2,1.1
			c-28.9,2.9-57,18.2-84.4,17.4c-30.2-0.9-57.8-18.2-83.7-21.2c-31.5-3.6-67.8,6.1-106.8,1.6c-32-3.7-65.7-21.9-104.3-23.9
			c-32.6-1.7-67.9,12.4-106.1,13.3c-32.9,0.8-69-12-106.6-8.3c-33,3.2-66.1,22.3-103.2,28.3c-25.3,4.1-50.9-7.5-73.1-5.3
			c-25.9,2.6-48.8,18.9-70.7,19.5c-26.7,0.7-50.3-14.6-71.5-16.1c-28.4-2-54,9.2-73.2,5.1c-47.4-10-32-17.2-62.3-36.5V154H1281
			C1281,153.8,1281-2.4,1281,2.1z"/>
	</g>
</g>
</svg>
