<?xml version="1.0" encoding="utf-8"?>
<!-- Generator: Adobe Illustrator 20.1.0, SVG Export Plug-In . SVG Version: 6.00 Build 0)  -->
<svg version="1.1" id="Layer_1" xmlns="http://www.w3.org/2000/svg" xmlns:xlink="http://www.w3.org/1999/xlink" x="0px" y="0px"
	 viewBox="0 0 1310.6 220" style="enable-background:new 0 0 1310.6 220;" xml:space="preserve">
<style type="text/css">
	.st0{fill:#002E6E;}
	.st1{fill:#BED630;}
	.st2{fill:#000002;}
</style>
<g>
	<path class="st0" d="M984.2,155.9c15.2,0,22.8,7.6,38,22.8c15.2,15.2,22.8,15.2,45.6,15.2c22.8,0,30.4,7.6,53.2,7.6
		s38,7.6,53.2,7.6c15.2,0,45.6,7.6,30.4-15.2c-7.6-7.6-22.8-15.2-30.4-22.8c-7.6,0-22.8,0-30.4-7.6c0-7.6,0-15.2-7.6-15.2
		c-7.6-7.6-15.2-7.6-22.8-7.6c-15.2,0-22.8-7.6-30.4-15.2c-15.2-7.6-30.4-7.6-45.6-7.6c-22.8,0-60.8-30.4-83.5-7.6
		c-7.6,7.6-7.6,7.6,0,7.6c0,0,7.6,0,7.6,7.6c7.6,7.6,7.6,7.6,7.6,15.2C961.5,140.7,969.1,148.3,984.2,155.9"/>
	<path class="st1" d="M186.9,34.4c0,0-75.9-7.6-106.3-15.2c-83.5-7.6-83.5,15.2-68.3,38c15.2,15.2,45.6,15.2,45.6,15.2
		s-15.2,0-30.4,7.6S35,95.2,73,87.6s326.5-7.6,364.5,7.6s-45.6,15.2-106.3,15.2c-144.3-7.6-136.7,159.5,288.6,83.5
		c432.8-75.9,402.5-22.8,455.6-7.6c53.2,7.6,68.3-30.4-30.4-60.8c-98.7-30.4-227.8-15.2-334.1,7.6
		c-106.3,30.4-326.5,30.4-341.7,30.4c-38,0-91.1-15.2-7.6-7.6c106.3,0,235.4-15.2,197.4-60.7C521,34.4,399.5,57.2,186.9,34.4z"/>
	<circle class="st2" cx="57.8" cy="57.2" r="7.6"/>
	<path class="st0" d="M88.2,19.2c0,0,15.2-15.2,38-7.6c30.4,7.6,38,7.6,60.7,0s22.8,15.2,45.6,15.2S285.6-3.5,316,11.6
		c22.8,15.2,30.4,30.4,60.8,15.2c22.8-7.6,53.2-22.8,75.9,0c15.2,22.8,38,22.8,53.2,22.8s30.4,15.2,30.4,38c0,15.2,0-7.6-45.6-22.8
		C445.1,49.6,437.5,49.6,354,49.6c-75.9,0-159.5-7.6-205-15.2C111,26.8,88.2,19.2,88.2,19.2z"/>
	<circle class="st0" cx="490.6" cy="95.2" r="7.6"/>
	<circle class="st0" cx="460.3" cy="80" r="0"/>
	<circle class="st0" cx="521" cy="102.8" r="7.6"/>
	<circle class="st0" cx="467.9" cy="125.6" r="0"/>
	<circle class="st0" cx="498.2" cy="125.6" r="7.6"/>
	<circle class="st0" cx="407.1" cy="72.4" r="7.6"/>
	<circle class="st0" cx="543.8" cy="110.4" r="7.6"/>
	<circle class="st0" cx="103.4" cy="49.6" r="7.6"/>
	<circle class="st0" cx="80.6" cy="34.4" r="7.6"/>
	<circle class="st0" cx="156.5" cy="64.8" r="7.6"/>
</g>
</svg>
