<?xml version="1.0" encoding="utf-8"?>
<!-- Generator: Adobe Illustrator 20.1.0, SVG Export Plug-In . SVG Version: 6.00 Build 0)  -->
<svg version="1.1" id="Layer_1" xmlns="http://www.w3.org/2000/svg" xmlns:xlink="http://www.w3.org/1999/xlink" x="0px" y="0px"
	 viewBox="0 0 455 220" style="enable-background:new 0 0 455 220;" xml:space="preserve">
<style type="text/css">
	.st0{clip-path:url(#SVGID_2_);}
	.st1{fill:#785B25;}
	.st2{fill:#9E7E43;}
	.st3{fill:#132F4D;}
	.st4{fill:#07111C;}
	.st5{fill:#B5BACC;}
	.st6{fill:#9399A6;}
	.st7{fill:#D0D7EB;}
	.st8{fill:#1F2D3D;}
	.st9{fill:#F4F8FF;}
	.st10{fill:#702323;}
	.st11{fill:#521919;}
	.st12{fill:#0E233B;}
	.st13{fill:url(#SVGID_3_);}
	.st14{fill:#451515;}
</style>
<g>
	<g>
		<defs>
			<rect id="SVGID_1_" x="-0.2" y="4.7" width="311.5" height="215.3"/>
		</defs>
		<clipPath id="SVGID_2_">
			<use xlink:href="#SVGID_1_"  style="overflow:visible;"/>
		</clipPath>
		<g class="st0">
			<g>
				
					<rect x="34.5" y="170.3" transform="matrix(0.6403 -0.7682 0.7682 0.6403 -133.6214 106.7601)" class="st1" width="25.4" height="51.5"/>
				<path class="st2" d="M39.8,199.2c4.7,4.1,6.6,12.8,6.6,12.8l-27.2-22.7l3.6-4.3C22.8,185,35.1,195.1,39.8,199.2z"/>
				
					<rect x="50.8" y="162.7" transform="matrix(0.6399 -0.7685 0.7685 0.6399 -125.4903 109.014)" class="st2" width="5.6" height="51.5"/>
				<path class="st3" d="M13.5,167.3L5,177.5l15.1,12.6l8.9-10.7C24.5,174.6,19.7,169.9,13.5,167.3z"/>
				<path class="st3" d="M21.3,157.9l-7.8,9.4c6.2,2.7,11,7.3,15.6,12.1l7.3-8.8L21.3,157.9z"/>
				
					<rect x="13.4" y="164.1" transform="matrix(0.6403 -0.7681 0.7681 0.6403 -126.1489 78.4961)" class="st4" width="14.7" height="19.7"/>
			</g>
			<g>
				
					<rect x="107" y="82.6" transform="matrix(0.6404 -0.768 0.768 0.6404 -40.4062 130.9867)" class="st1" width="25.4" height="52"/>
				<path class="st2" d="M118.3,116.7c4.1,3.6,3.4,10.1,3.4,10.1l-30.1-25.1l3.6-4.3C95.2,97.4,114.2,113.1,118.3,116.7z"/>
				
					<rect x="123.2" y="74.9" transform="matrix(0.6405 -0.768 0.768 0.6405 -32.1984 133.0611)" class="st2" width="5.6" height="52"/>
				<path class="st3" d="M102.1,91.7l7.1-8.5L94.1,70.6l-5.8,7C93.4,82.1,97.9,86.8,102.1,91.7z"/>
				<path class="st3" d="M88.2,77.6L77.8,90.1l15.1,12.6l9.2-11C97.9,86.8,93.4,82.1,88.2,77.6z"/>
				
					<rect x="86.2" y="76.8" transform="matrix(0.6404 -0.768 0.768 0.6404 -32.9125 102.975)" class="st4" width="14.7" height="19.7"/>
			</g>
			<g>
				<polygon class="st5" points="43,224 41.4,217.8 75.4,177 82.7,176.5 				"/>
				<path class="st6" d="M211.7,22L9.1,266.1c2.3,1.9,4.5,3.8,6.8,5.7L220.1,28.7L211.7,22z"/>
				<path class="st7" d="M47,297.6l0.3-0.3c-0.2,0-0.4,0-0.6,0C46.7,297.4,46.9,297.5,47,297.6z"/>
				<path class="st7" d="M264.4,38.2l-2.7-2.2l-14.4-11.8l-5.3,6.4l-7.1-5.9l-7.2,8.6l-6.2-5.1L17,272.6
					c9.9,8.3,19.7,16.4,29.6,24.7c0.2,0,0.4,0,0.6,0L241.7,65L264.4,38.2z"/>
				<g>
					<path class="st5" d="M245.3,46.8L40.7,292.4c1.2,1,2.4,2,3.6,3C150.6,167.9,248.9,49.9,248.9,49.9L245.3,46.8z"/>
					<path class="st8" d="M97.2,230.1c0.5,0.4,0.6,1.2,0.2,1.7l-4.1,4.9c-0.4,0.5-1.2,0.6-1.7,0.2l-1.8-1.5
						c-0.5-0.4-0.6-1.2-0.2-1.7l4.1-4.9c0.4-0.5,1.2-0.6,1.7-0.2L97.2,230.1z"/>
					<path class="st8" d="M104.3,221.5c0.5,0.4,0.6,1.2,0.2,1.7l-4.1,4.9c-0.4,0.5-1.2,0.6-1.7,0.2l-1.8-1.5
						c-0.5-0.4-0.6-1.2-0.2-1.7l4.1-4.9c0.4-0.5,1.2-0.6,1.7-0.2L104.3,221.5z"/>
					<path class="st8" d="M111.4,213c0.5,0.4,0.6,1.2,0.2,1.7l-4.1,4.9c-0.4,0.5-1.2,0.6-1.7,0.2l-1.8-1.5c-0.5-0.4-0.6-1.2-0.2-1.7
						l4.1-4.9c0.4-0.5,1.2-0.6,1.7-0.2L111.4,213z"/>
					<path class="st8" d="M192,116.4c0.5,0.4,0.6,1.2,0.2,1.7l-4.1,4.9c-0.4,0.5-1.2,0.6-1.7,0.2l-1.8-1.5c-0.5-0.4-0.6-1.2-0.2-1.7
						l4.1-4.9c0.4-0.5,1.2-0.6,1.7-0.2L192,116.4z"/>
					<path class="st8" d="M199.1,107.8c0.5,0.4,0.6,1.2,0.2,1.7l-4.1,4.9c-0.4,0.5-1.2,0.6-1.7,0.2l-1.8-1.5
						c-0.5-0.4-0.6-1.2-0.2-1.7l4.1-4.9c0.4-0.5,1.2-0.6,1.7-0.2L199.1,107.8z"/>
					<path class="st8" d="M206.1,99.4c0.5,0.4,0.6,1.2,0.2,1.7l-4.1,4.9c-0.4,0.5-1.2,0.6-1.7,0.2l-1.8-1.5
						c-0.5-0.4-0.6-1.2-0.2-1.7l4.1-4.9c0.4-0.5,1.2-0.6,1.7-0.2L206.1,99.4z"/>
					<path class="st8" d="M213.2,90.8c0.5,0.4,0.6,1.2,0.2,1.7l-4.1,4.9c-0.4,0.5-1.2,0.6-1.7,0.2l-1.8-1.5
						c-0.5-0.4-0.6-1.2-0.2-1.7l4.1-4.9c0.4-0.5,1.2-0.6,1.7-0.2L213.2,90.8z"/>
					<path class="st8" d="M220.3,82.3c0.5,0.4,0.6,1.2,0.2,1.7l-4.1,4.9c-0.4,0.5-1.2,0.6-1.7,0.2l-1.8-1.5
						c-0.5-0.4-0.6-1.2-0.2-1.7l4.1-4.9c0.4-0.5,1.2-0.6,1.7-0.2L220.3,82.3z"/>
					<path class="st8" d="M227.4,73.8c0.5,0.4,0.6,1.2,0.2,1.7l-4.1,4.9c-0.4,0.5-1.2,0.6-1.7,0.2l-1.8-1.5
						c-0.5-0.4-0.6-1.2-0.2-1.7l4.1-4.9c0.4-0.5,1.2-0.6,1.7-0.2L227.4,73.8z"/>
					<path class="st8" d="M234.5,65.3c0.5,0.4,0.6,1.2,0.2,1.7l-4.1,4.9c-0.4,0.5-1.2,0.6-1.7,0.2l-1.8-1.5
						c-0.5-0.4-0.6-1.2-0.2-1.7L231,64c0.4-0.5,1.2-0.6,1.7-0.2L234.5,65.3z"/>
					<path class="st8" d="M241.7,56.7c0.5,0.4,0.6,1.2,0.2,1.7l-4.1,4.9c-0.4,0.5-1.2,0.6-1.7,0.2l-1.8-1.5
						c-0.5-0.4-0.6-1.2-0.2-1.7l4.1-4.9c0.4-0.5,1.2-0.6,1.7-0.2L241.7,56.7z"/>
					<path class="st8" d="M248.8,48.2c0.5,0.4,0.6,1.2,0.2,1.7l-4.1,4.9c-0.4,0.5-1.2,0.6-1.7,0.2l-1.8-1.5
						c-0.5-0.4-0.6-1.2-0.2-1.7l4.1-4.9c0.4-0.5,1.2-0.6,1.7-0.2L248.8,48.2z"/>
				</g>
				<g>
					<path class="st5" d="M238.4,41.1L33.8,286.7c1.2,1,2.4,2,3.6,3C141.9,164.4,242.1,44.2,242.1,44.2L238.4,41.1z"/>
					<path class="st8" d="M90.3,224.4c0.5,0.4,0.6,1.2,0.2,1.7l-4.1,4.9c-0.4,0.5-1.2,0.6-1.7,0.2l-1.8-1.5
						c-0.5-0.4-0.6-1.2-0.2-1.7l4.1-4.9c0.4-0.5,1.2-0.6,1.7-0.2L90.3,224.4z"/>
					<path class="st8" d="M97.4,215.9c0.5,0.4,0.6,1.2,0.2,1.7l-4.1,4.9c-0.4,0.5-1.2,0.6-1.7,0.2l-1.8-1.5
						c-0.5-0.4-0.6-1.2-0.2-1.7l4.1-4.9c0.4-0.5,1.2-0.6,1.7-0.2L97.4,215.9z"/>
					<path class="st8" d="M104.6,207.3c0.5,0.4,0.6,1.2,0.2,1.7l-4.1,4.9c-0.4,0.5-1.2,0.6-1.7,0.2l-1.8-1.5
						c-0.5-0.4-0.6-1.2-0.2-1.7l4.1-4.9c0.4-0.5,1.2-0.6,1.7-0.2L104.6,207.3z"/>
					<path class="st8" d="M185.1,110.7c0.5,0.4,0.6,1.2,0.2,1.7l-4.1,4.9c-0.4,0.5-1.2,0.6-1.7,0.2l-1.8-1.5
						c-0.5-0.4-0.6-1.2-0.2-1.7l4.1-4.9c0.4-0.5,1.2-0.6,1.7-0.2L185.1,110.7z"/>
					<path class="st8" d="M192.2,102.1c0.5,0.4,0.6,1.2,0.2,1.7l-4.1,4.9c-0.4,0.5-1.2,0.6-1.7,0.2l-1.8-1.5
						c-0.5-0.4-0.6-1.2-0.2-1.7l4.1-4.9c0.4-0.5,1.2-0.6,1.7-0.2L192.2,102.1z"/>
					<path class="st8" d="M199.3,93.7c0.5,0.4,0.6,1.2,0.2,1.7l-4.1,4.9c-0.4,0.5-1.2,0.6-1.7,0.2l-1.8-1.5
						c-0.5-0.4-0.6-1.2-0.2-1.7l4.1-4.9c0.4-0.5,1.2-0.6,1.7-0.2L199.3,93.7z"/>
					<path class="st8" d="M206.4,85.2c0.5,0.4,0.6,1.2,0.2,1.7l-4.1,4.9c-0.4,0.5-1.2,0.6-1.7,0.2l-1.8-1.5
						c-0.5-0.4-0.6-1.2-0.2-1.7l4.1-4.9c0.4-0.5,1.2-0.6,1.7-0.2L206.4,85.2z"/>
					<path class="st8" d="M213.5,76.6c0.5,0.4,0.6,1.2,0.2,1.7l-4.1,4.9c-0.4,0.5-1.2,0.6-1.7,0.2l-1.8-1.5
						c-0.5-0.4-0.6-1.2-0.2-1.7l4.1-4.9c0.4-0.5,1.2-0.6,1.7-0.2L213.5,76.6z"/>
					<path class="st8" d="M220.6,68.1c0.5,0.4,0.6,1.2,0.2,1.7l-4.1,4.9c-0.4,0.5-1.2,0.6-1.7,0.2l-1.8-1.5
						c-0.5-0.4-0.6-1.2-0.2-1.7l4.1-4.9c0.4-0.5,1.2-0.6,1.7-0.2L220.6,68.1z"/>
					<path class="st8" d="M227.7,59.6c0.5,0.4,0.6,1.2,0.1,1.7l-4.1,4.9c-0.4,0.5-1.2,0.6-1.7,0.2l-1.8-1.5
						c-0.5-0.4-0.6-1.2-0.2-1.7l4.1-4.9c0.4-0.5,1.2-0.6,1.7-0.2L227.7,59.6z"/>
					<path class="st8" d="M234.8,51c0.5,0.4,0.6,1.2,0.1,1.7l-4.1,4.9c-0.4,0.5-1.2,0.6-1.7,0.2l-1.8-1.5c-0.5-0.4-0.6-1.2-0.2-1.7
						l4.1-4.9c0.4-0.5,1.2-0.6,1.7-0.2L234.8,51z"/>
					<path class="st8" d="M241.9,42.5c0.5,0.4,0.6,1.2,0.2,1.7l-4.1,4.9c-0.4,0.5-1.2,0.6-1.7,0.2l-1.8-1.5
						c-0.5-0.4-0.6-1.2-0.2-1.7l4.1-4.9c0.4-0.5,1.2-0.6,1.7-0.2L241.9,42.5z"/>
				</g>
				<g>
					<path class="st5" d="M231.6,35.1L26.8,280.8c1.2,1,2.4,2,3.6,3C131.2,163,235.3,38.2,235.3,38.2L231.6,35.1z"/>
					<path class="st8" d="M76.4,226.9c0.5,0.4,0.6,1.2,0.2,1.7l-4.1,4.9c-0.4,0.5-1.2,0.6-1.7,0.2l-1.8-1.5
						c-0.5-0.4-0.6-1.2-0.2-1.7l4.1-4.9c0.4-0.5,1.2-0.6,1.7-0.2L76.4,226.9z"/>
					<path class="st8" d="M83.5,218.4c0.5,0.4,0.6,1.2,0.2,1.7l-4.1,4.9c-0.4,0.5-1.2,0.6-1.7,0.2l-1.8-1.5
						c-0.5-0.4-0.6-1.2-0.2-1.7l4.1-4.9c0.4-0.5,1.2-0.6,1.7-0.2L83.5,218.4z"/>
					<path class="st8" d="M90.6,209.8c0.5,0.4,0.6,1.2,0.2,1.7l-4.1,4.9c-0.4,0.5-1.2,0.6-1.7,0.1l-1.8-1.5
						c-0.5-0.4-0.6-1.2-0.2-1.7l4.1-4.9c0.4-0.5,1.2-0.6,1.7-0.2L90.6,209.8z"/>
					<path class="st8" d="M97.7,201.3c0.5,0.4,0.6,1.2,0.2,1.7l-4.1,4.9c-0.4,0.5-1.2,0.6-1.7,0.1l-1.8-1.5
						c-0.5-0.4-0.6-1.2-0.2-1.7l4.1-4.9c0.4-0.5,1.2-0.6,1.7-0.2L97.7,201.3z"/>
					<path class="st8" d="M178.3,104.6c0.5,0.4,0.6,1.2,0.2,1.7l-4.1,4.9c-0.4,0.5-1.2,0.6-1.7,0.1l-1.8-1.5
						c-0.5-0.4-0.6-1.2-0.2-1.7l4.1-4.9c0.4-0.5,1.2-0.6,1.7-0.2L178.3,104.6z"/>
					<path class="st8" d="M185.4,96.1c0.5,0.4,0.6,1.2,0.2,1.7l-4.1,4.9c-0.4,0.5-1.2,0.6-1.7,0.1l-1.8-1.5
						c-0.5-0.4-0.6-1.2-0.2-1.7l4.1-4.9c0.4-0.5,1.2-0.6,1.7-0.2L185.4,96.1z"/>
					<path class="st8" d="M192.4,87.7c0.5,0.4,0.6,1.2,0.2,1.7l-4.1,4.9c-0.4,0.5-1.2,0.6-1.7,0.2L185,93c-0.5-0.4-0.6-1.2-0.2-1.7
						l4.1-4.9c0.4-0.5,1.2-0.6,1.7-0.2L192.4,87.7z"/>
					<path class="st8" d="M199.5,79.1c0.5,0.4,0.6,1.2,0.2,1.7l-4.1,4.9c-0.4,0.5-1.2,0.6-1.7,0.1l-1.8-1.5
						c-0.5-0.4-0.6-1.2-0.2-1.7l4.1-4.9c0.4-0.5,1.2-0.6,1.7-0.1L199.5,79.1z"/>
					<path class="st8" d="M206.7,70.6c0.5,0.4,0.6,1.2,0.2,1.7l-4.1,4.9c-0.4,0.5-1.2,0.6-1.7,0.2l-1.8-1.5
						c-0.5-0.4-0.6-1.2-0.2-1.7l4.1-4.9c0.4-0.5,1.2-0.6,1.7-0.2L206.7,70.6z"/>
					<path class="st8" d="M213.8,62.1c0.5,0.4,0.6,1.2,0.2,1.7l-4.1,4.9c-0.4,0.5-1.2,0.6-1.7,0.2l-1.8-1.5
						c-0.5-0.4-0.6-1.2-0.2-1.7l4.1-4.9c0.4-0.5,1.2-0.6,1.7-0.1L213.8,62.1z"/>
					<path class="st8" d="M220.9,53.5c0.5,0.4,0.6,1.2,0.2,1.7l-4.1,4.9c-0.4,0.5-1.2,0.6-1.7,0.1l-1.8-1.5
						c-0.5-0.4-0.6-1.2-0.2-1.7l4.1-4.9c0.4-0.5,1.2-0.6,1.7-0.2L220.9,53.5z"/>
					<path class="st8" d="M228,45c0.5,0.4,0.6,1.2,0.2,1.7l-4.1,4.9c-0.4,0.5-1.2,0.6-1.7,0.1l-1.8-1.5c-0.5-0.4-0.6-1.2-0.2-1.7
						l4.1-4.9c0.4-0.5,1.2-0.6,1.7-0.2L228,45z"/>
					<path class="st8" d="M235.1,36.5c0.5,0.4,0.6,1.2,0.2,1.7l-4.1,4.9c-0.4,0.5-1.2,0.6-1.7,0.2l-1.8-1.5
						c-0.5-0.4-0.6-1.2-0.2-1.7l4.1-4.9c0.4-0.5,1.2-0.6,1.7-0.2L235.1,36.5z"/>
				</g>
				<g>
					<path class="st5" d="M223.2,29.5L19.1,274.4c1.2,1,2.4,2,3.6,3C119.9,160.8,226.9,32.6,226.9,32.6L223.2,29.5z"/>
					<path class="st8" d="M68.7,220.5c0.5,0.4,0.6,1.2,0.2,1.7l-4.1,4.9c-0.4,0.5-1.2,0.6-1.7,0.2l-1.8-1.5
						c-0.5-0.4-0.6-1.2-0.2-1.7l4.1-4.9c0.4-0.5,1.2-0.6,1.7-0.2L68.7,220.5z"/>
					<path class="st8" d="M75.8,211.9c0.5,0.4,0.6,1.2,0.2,1.7l-4.1,4.9c-0.4,0.5-1.2,0.6-1.7,0.2l-1.8-1.5
						c-0.5-0.4-0.6-1.2-0.1-1.7l4.1-4.9c0.4-0.5,1.2-0.6,1.7-0.1L75.8,211.9z"/>
					<path class="st8" d="M82.9,203.4c0.5,0.4,0.6,1.2,0.2,1.7L79,210c-0.4,0.5-1.2,0.6-1.7,0.2l-1.8-1.5c-0.5-0.4-0.6-1.2-0.2-1.7
						l4.1-4.9c0.4-0.5,1.2-0.6,1.7-0.2L82.9,203.4z"/>
					<path class="st8" d="M90,194.9c0.5,0.4,0.6,1.2,0.2,1.7l-4.1,4.9c-0.4,0.5-1.2,0.6-1.7,0.2l-1.8-1.5c-0.5-0.4-0.6-1.2-0.2-1.7
						l4.1-4.9c0.4-0.5,1.2-0.6,1.7-0.2L90,194.9z"/>
					<path class="st8" d="M124.4,197.4c0.5,0.4,0.6,1.2,0.2,1.7l-4.1,4.9c-0.4,0.5-1.2,0.6-1.7,0.2l-1.8-1.5
						c-0.5-0.4-0.6-1.2-0.2-1.7l4.1-4.9c0.4-0.5,1.2-0.6,1.7-0.1L124.4,197.4z"/>
					<path class="st8" d="M131.5,188.9c0.5,0.4,0.6,1.2,0.2,1.7l-4.1,4.9c-0.4,0.5-1.2,0.6-1.7,0.2l-1.8-1.5
						c-0.5-0.4-0.6-1.2-0.2-1.7l4.1-4.9c0.4-0.5,1.2-0.6,1.7-0.2L131.5,188.9z"/>
					<path class="st8" d="M138.6,180.4c0.5,0.4,0.6,1.2,0.2,1.7l-4.1,4.9c-0.4,0.5-1.2,0.6-1.7,0.1l-1.8-1.5
						c-0.5-0.4-0.6-1.2-0.1-1.7l4.1-4.9c0.4-0.5,1.2-0.6,1.7-0.2L138.6,180.4z"/>
					<path class="st8" d="M145.7,171.8c0.5,0.4,0.6,1.2,0.2,1.7l-4.1,4.9c-0.4,0.5-1.2,0.6-1.7,0.2l-1.8-1.5
						c-0.5-0.4-0.6-1.2-0.2-1.7l4.1-4.9c0.4-0.5,1.2-0.6,1.7-0.2L145.7,171.8z"/>
					<path class="st8" d="M152.8,163.3c0.5,0.4,0.6,1.2,0.2,1.7l-4.1,4.9c-0.4,0.5-1.2,0.6-1.7,0.2l-1.8-1.5
						c-0.5-0.4-0.6-1.2-0.2-1.7l4.1-4.9c0.4-0.5,1.2-0.6,1.7-0.1L152.8,163.3z"/>
					<path class="st8" d="M159.9,154.8c0.5,0.4,0.6,1.2,0.2,1.7l-4.1,4.9c-0.4,0.5-1.2,0.6-1.7,0.2l-1.8-1.6
						c-0.5-0.4-0.6-1.2-0.2-1.7l4.1-4.9c0.4-0.5,1.2-0.6,1.7-0.2L159.9,154.8z"/>
					<path class="st8" d="M167,146.2c0.5,0.4,0.6,1.2,0.2,1.7l-4.1,4.9c-0.4,0.5-1.2,0.6-1.7,0.2l-1.8-1.5c-0.5-0.4-0.6-1.2-0.2-1.7
						l4.1-4.9c0.4-0.5,1.2-0.6,1.7-0.2L167,146.2z"/>
					<path class="st8" d="M117.5,191.7c0.5,0.4,0.6,1.2,0.2,1.7l-4.1,4.9c-0.4,0.5-1.2,0.6-1.7,0.2l-1.8-1.5
						c-0.5-0.4-0.6-1.2-0.2-1.7l4.1-4.9c0.4-0.5,1.2-0.6,1.7-0.2L117.5,191.7z"/>
					<path class="st8" d="M124.7,183.2c0.5,0.4,0.6,1.2,0.1,1.7l-4.1,4.9c-0.4,0.5-1.2,0.6-1.7,0.2l-1.8-1.5
						c-0.5-0.4-0.6-1.2-0.2-1.7l4.1-4.9c0.4-0.5,1.2-0.6,1.7-0.2L124.7,183.2z"/>
					<path class="st8" d="M131.8,174.7c0.5,0.4,0.6,1.2,0.2,1.7l-4.1,4.9c-0.4,0.5-1.2,0.6-1.7,0.2l-1.8-1.5
						c-0.5-0.4-0.6-1.2-0.2-1.7l4.1-4.9c0.4-0.5,1.2-0.6,1.7-0.2L131.8,174.7z"/>
					<path class="st8" d="M138.9,166.1c0.5,0.4,0.6,1.2,0.2,1.7l-4.1,4.9c-0.4,0.5-1.2,0.6-1.7,0.2l-1.8-1.5
						c-0.5-0.4-0.6-1.2-0.2-1.7l4.1-4.9c0.4-0.5,1.2-0.6,1.7-0.2L138.9,166.1z"/>
					<path class="st8" d="M146,157.6c0.5,0.4,0.6,1.2,0.2,1.7l-4.1,4.9c-0.4,0.5-1.2,0.6-1.7,0.2l-1.8-1.5c-0.5-0.4-0.6-1.2-0.2-1.7
						l4.1-4.9c0.4-0.5,1.2-0.6,1.7-0.1L146,157.6z"/>
					<path class="st8" d="M153.1,149.1c0.5,0.4,0.6,1.2,0.2,1.7l-4.1,4.9c-0.4,0.5-1.2,0.6-1.7,0.1l-1.8-1.5
						c-0.5-0.4-0.6-1.2-0.2-1.7l4.1-4.9c0.4-0.5,1.2-0.6,1.7-0.1L153.1,149.1z"/>
					<path class="st8" d="M160.2,140.5c0.5,0.4,0.6,1.2,0.2,1.7l-4.1,4.9c-0.4,0.5-1.2,0.6-1.7,0.2l-1.8-1.5
						c-0.5-0.4-0.6-1.2-0.2-1.7l4.1-4.9c0.4-0.5,1.2-0.6,1.7-0.2L160.2,140.5z"/>
					<path class="st8" d="M110.7,185.7c0.5,0.4,0.6,1.2,0.2,1.7l-4.1,4.9c-0.4,0.5-1.2,0.6-1.7,0.2l-1.8-1.5
						c-0.5-0.4-0.6-1.2-0.2-1.7l4.1-4.9c0.4-0.5,1.2-0.6,1.7-0.2L110.7,185.7z"/>
					<path class="st8" d="M117.8,177.2c0.5,0.4,0.6,1.2,0.2,1.7l-4.1,4.9c-0.4,0.5-1.2,0.6-1.7,0.1l-1.8-1.5
						c-0.5-0.4-0.6-1.2-0.2-1.7l4.1-4.9c0.4-0.5,1.2-0.6,1.7-0.1L117.8,177.2z"/>
					<path class="st8" d="M124.9,168.6c0.5,0.4,0.6,1.2,0.2,1.7l-4.1,4.9c-0.4,0.5-1.2,0.6-1.7,0.1l-1.8-1.5
						c-0.5-0.4-0.6-1.2-0.2-1.7l4.1-4.9c0.4-0.5,1.2-0.6,1.7-0.2L124.9,168.6z"/>
					<path class="st8" d="M132,160.1c0.5,0.4,0.6,1.2,0.2,1.7l-4.1,4.9c-0.4,0.5-1.2,0.6-1.7,0.2l-1.8-1.5c-0.5-0.4-0.6-1.2-0.2-1.7
						l4.1-4.9c0.4-0.5,1.2-0.6,1.7-0.2L132,160.1z"/>
					<path class="st8" d="M139.2,151.6c0.5,0.4,0.6,1.2,0.2,1.7l-4.1,4.9c-0.4,0.5-1.2,0.6-1.7,0.1l-1.8-1.5
						c-0.5-0.4-0.6-1.2-0.2-1.7l4.1-4.9c0.4-0.5,1.2-0.6,1.7-0.2L139.2,151.6z"/>
					<path class="st8" d="M146.3,143c0.5,0.4,0.6,1.2,0.2,1.7l-4.1,4.9c-0.4,0.5-1.2,0.6-1.7,0.1l-1.8-1.5c-0.5-0.4-0.6-1.2-0.2-1.7
						l4.1-4.9c0.4-0.5,1.2-0.6,1.7-0.2L146.3,143z"/>
					<path class="st8" d="M153.4,134.5c0.5,0.4,0.6,1.2,0.2,1.7l-4.1,4.9c-0.4,0.5-1.2,0.6-1.7,0.1l-1.8-1.5
						c-0.5-0.4-0.6-1.2-0.2-1.7l4.1-4.9c0.4-0.5,1.2-0.6,1.7-0.2L153.4,134.5z"/>
					<path class="st8" d="M103,179.3c0.5,0.4,0.6,1.2,0.2,1.7l-4.1,4.9c-0.4,0.5-1.2,0.6-1.7,0.1l-1.8-1.5c-0.5-0.4-0.6-1.2-0.2-1.7
						l4.1-4.9c0.4-0.5,1.2-0.6,1.7-0.2L103,179.3z"/>
					<path class="st8" d="M110.1,170.7c0.5,0.4,0.6,1.2,0.2,1.7l-4.1,4.9c-0.4,0.5-1.2,0.6-1.7,0.2l-1.8-1.5
						c-0.5-0.4-0.6-1.2-0.2-1.7l4.1-4.9c0.4-0.5,1.2-0.6,1.7-0.2L110.1,170.7z"/>
					<path class="st8" d="M117.2,162.2c0.5,0.4,0.6,1.2,0.2,1.7l-4.1,4.9c-0.4,0.5-1.2,0.6-1.7,0.2l-1.8-1.5
						c-0.5-0.4-0.6-1.2-0.2-1.7l4.1-4.9c0.4-0.5,1.2-0.6,1.7-0.2L117.2,162.2z"/>
					<path class="st8" d="M124.3,153.7c0.5,0.4,0.6,1.2,0.2,1.7l-4.1,4.9c-0.4,0.5-1.2,0.6-1.7,0.2l-1.8-1.5
						c-0.5-0.4-0.6-1.2-0.2-1.7l4.1-4.9c0.4-0.5,1.2-0.6,1.7-0.2L124.3,153.7z"/>
					<path class="st8" d="M131.4,145.2c0.5,0.4,0.6,1.2,0.2,1.7l-4.1,4.9c-0.4,0.5-1.2,0.6-1.7,0.2l-1.8-1.5
						c-0.5-0.4-0.6-1.2-0.2-1.7l4.1-4.9c0.4-0.5,1.2-0.6,1.7-0.2L131.4,145.2z"/>
					<path class="st8" d="M138.6,136.6c0.5,0.4,0.6,1.2,0.2,1.7l-4.1,4.9c-0.4,0.5-1.2,0.6-1.7,0.2l-1.8-1.5
						c-0.5-0.4-0.6-1.2-0.2-1.7l4.1-4.9c0.4-0.5,1.2-0.6,1.7-0.1L138.6,136.6z"/>
					<path class="st8" d="M145.7,128.1c0.5,0.4,0.6,1.2,0.2,1.7l-4.1,4.9c-0.4,0.5-1.2,0.6-1.7,0.2l-1.8-1.5
						c-0.5-0.4-0.6-1.2-0.2-1.7l4.1-4.9c0.4-0.5,1.2-0.6,1.7-0.2L145.7,128.1z"/>
					<path class="st8" d="M170.6,98.2c0.5,0.4,0.6,1.2,0.2,1.7l-4.1,4.9c-0.4,0.5-1.2,0.6-1.7,0.1l-1.8-1.5
						c-0.5-0.4-0.6-1.2-0.2-1.7l4.1-4.9c0.4-0.5,1.2-0.6,1.7-0.1L170.6,98.2z"/>
					<path class="st8" d="M177.7,89.7c0.5,0.4,0.6,1.2,0.2,1.7l-4.1,4.9c-0.4,0.5-1.2,0.6-1.7,0.2l-1.8-1.5
						c-0.5-0.4-0.6-1.2-0.2-1.7l4.1-4.9c0.4-0.5,1.2-0.6,1.7-0.2L177.7,89.7z"/>
					<path class="st8" d="M184.7,81.2c0.5,0.4,0.6,1.2,0.2,1.7l-4.1,4.9c-0.4,0.5-1.2,0.6-1.7,0.2l-1.8-1.5
						c-0.5-0.4-0.6-1.2-0.2-1.7l4.1-4.9c0.4-0.5,1.2-0.6,1.7-0.2L184.7,81.2z"/>
					<path class="st8" d="M191.8,72.7c0.5,0.4,0.6,1.2,0.2,1.7l-4.1,4.9c-0.4,0.5-1.2,0.6-1.7,0.2l-1.8-1.5
						c-0.5-0.4-0.6-1.2-0.2-1.7l4.1-4.9c0.4-0.5,1.2-0.6,1.7-0.2L191.8,72.7z"/>
					<path class="st8" d="M198.9,64.2c0.5,0.4,0.6,1.2,0.2,1.7l-4.1,4.9c-0.4,0.5-1.2,0.6-1.7,0.2l-1.8-1.5
						c-0.5-0.4-0.6-1.2-0.2-1.7l4.1-4.9c0.4-0.5,1.2-0.6,1.7-0.2L198.9,64.2z"/>
					<path class="st8" d="M206.1,55.6c0.5,0.4,0.6,1.2,0.2,1.7l-4.1,4.9c-0.4,0.5-1.2,0.6-1.7,0.2l-1.8-1.5
						c-0.5-0.4-0.6-1.2-0.2-1.7l4.1-4.9c0.4-0.5,1.2-0.6,1.7-0.2L206.1,55.6z"/>
					<path class="st8" d="M213.2,47.1c0.5,0.4,0.6,1.2,0.2,1.7l-4.1,4.9c-0.4,0.5-1.2,0.6-1.7,0.2l-1.8-1.5
						c-0.5-0.4-0.6-1.2-0.2-1.7l4.1-4.9c0.4-0.5,1.2-0.6,1.7-0.2L213.2,47.1z"/>
					<path class="st8" d="M220.3,38.6c0.5,0.4,0.6,1.2,0.2,1.7l-4.1,4.9c-0.4,0.5-1.2,0.6-1.7,0.2l-1.8-1.5
						c-0.5-0.4-0.6-1.2-0.2-1.7l4.1-4.9c0.4-0.5,1.2-0.6,1.7-0.1L220.3,38.6z"/>
					<path class="st8" d="M248.8,36.2l-3.4,4.1c-0.4,0.5-1.2,0.6-1.7,0.2l-1.8-1.5c-0.5-0.4-0.6-1.2-0.2-1.7l3.4-4.1L248.8,36.2z"/>
					<path class="st8" d="M255.6,41.9l-3.4,4.1c-0.4,0.5-1.2,0.6-1.7,0.2l-1.8-1.5c-0.5-0.4-0.6-1.2-0.2-1.7l3.4-4.1L255.6,41.9z"/>
				</g>
				<path class="st6" d="M247.3,24.2L80.2,224.4c0.7,0.6,2.8-0.3,3.5,0.2L249.4,25.9L247.3,24.2z"/>
				<path class="st6" d="M254.3,29.6L92,224c0.7,0.6,2.8-0.2,3.6,0.4l160.9-193L254.3,29.6z"/>
				<path class="st6" d="M234.9,24.6l-166.2,199c0.7,0.6,2.8-0.3,3.5,0.2L237,26.3L234.9,24.6z"/>
				<path class="st5" d="M219.1,27.1L15.5,271.4c0.7,0.6,1.5,1.2,2.2,1.8L221.6,28.1L219.1,27.1z"/>
				<path class="st5" d="M192.3,32.7l-23.9,28.6l1.8,7.2L7.1,264.4c0.7,0.6,1.3,1.1,2,1.7L203.6,32L192.3,32.7z"/>
				<polygon class="st5" points="158.9,82.1 156.7,73.7 189.9,34.1 199.7,33.5 				"/>
				<polygon class="st6" points="158.8,81.1 157.1,74.9 191.1,34.1 198.4,33.5 				"/>
				<path class="st9" d="M205.7,31.8l-13.4,0.8l-33.9,40.9l0.1,1.6c0,0,16.5-22.2,25-28.6c6.3-4.8,8.4-5.2,8.4-5.2L205.7,31.8z"/>
				<path class="st9" d="M211.7,22l-115,134.7c0.7,0.6,20.1-18.8,20.1-19.6C116.8,136.3,211.7,22,211.7,22z"/>
			</g>
			<path class="st10" d="M276.8,119.7c0,0,5.4-3.3,9.8-4.9c2.2-0.8,2-0.4,2.2,2.1c0.2,2.6-0.6,6.9-0.6,6.9L276.8,119.7z"/>
			<path class="st11" d="M284.9,113.1c0,0,2,1.6,2.9,1.5c1,0-0.7-2.6-1.9-3.3c-1.1-0.7-1.2,1.4-1.2,1.4L284.9,113.1z"/>
			<path class="st11" d="M292.1,116.7c0,0-2-1.5-3-1.5s0.8,2.4,2,3.1c1.1,0.7,1.2-1.3,1.2-1.3L292.1,116.7z"/>
			<path class="st12" d="M280.7,117.5c2.3-4.8,9.5-25.1,15.2-42.2c-16.8-14-3.3-44.1-0.4-47.7c0.4-10.5-8.9-19.4-8.9-19.4
				L63.8,276.5c0,0-6.8,8.2-17.3,20.8c32.2,0.6,64.5,1.2,96.5,1.2c86.4-103.7,143.1-172.1,145.3-174.7
				C286.1,121.9,284.9,121,280.7,117.5z"/>
			
				<radialGradient id="SVGID_3_" cx="79.9902" cy="-46.7176" r="317.153" gradientTransform="matrix(1 0 0 -1 0 222)" gradientUnits="userSpaceOnUse">
				<stop  offset="0.3252" style="stop-color:#0E233B"/>
				<stop  offset="0.6157" style="stop-color:#0B1A2C"/>
				<stop  offset="1" style="stop-color:#07111C"/>
			</radialGradient>
			<path class="st13" d="M248.2,54.3L53.1,288.5c19.4,0.3,38.8,0.7,58.2,0.9c73.2-89.8,138.9-172.6,149.8-193.6
				c19.4-37.1,24.1-67,25.2-80.2C274.3,27.6,248.2,54.3,248.2,54.3z"/>
			<polygon class="st10" points="299.2,110.8 287.2,100.9 291.7,87.9 301.4,101.6 			"/>
			<polygon class="st11" points="298.9,110.1 288.5,101.4 290.8,95.3 300.1,105.1 			"/>
			<path class="st11" d="M111.1,298.3c10.6,0.1,21.3,0.2,31.9,0.2c63.9-76.8,108.3-130.2,130.2-156.5c0.3-12.9,0.3-25.7,0.4-38.7
				L111.1,298.3z"/>
			<path class="st10" d="M273.5,103.4c0,13-0.1,25.8-0.4,38.7c7.8-9.3,12.7-15.3,14.6-17.6c0.1-0.1,0.1-0.1,0.1-0.2
				c0.2-0.2,0.3-0.4,0.4-0.5c-2.3-1.9-3.4-2.8-7.6-6.3c0.1-0.3,0.3-0.6,0.5-1.1c0.1-0.1,0.1-0.3,0.2-0.4c0.1-0.3,0.3-0.6,0.4-0.9
				c0.1-0.2,0.2-0.5,0.3-0.7c0.1-0.3,0.3-0.6,0.4-1c0.1-0.3,0.2-0.6,0.4-0.9c0.1-0.3,0.3-0.7,0.4-1c0.1-0.4,0.3-0.8,0.4-1.2
				c0.1-0.3,0.2-0.6,0.4-1c0.2-0.5,0.4-1,0.5-1.5c0.1-0.3,0.2-0.6,0.3-0.9c0.2-0.6,0.4-1.2,0.7-1.8c0.1-0.3,0.2-0.5,0.3-0.7
				c0.2-0.7,0.5-1.4,0.8-2.1c0.1-0.2,0.1-0.4,0.2-0.6c0.3-0.8,0.6-1.6,0.9-2.4c0-0.1,0.1-0.3,0.1-0.4c0.3-0.9,0.7-1.9,1-2.8l0,0
				c2.1-6,4.4-12.6,6.5-18.8L273.5,103.4z"/>
			<path class="st10" d="M280.7,117.5c0.1-0.3,0.3-0.7,0.5-1.1c0-0.1,0.1-0.2,0.1-0.3c0.2-0.4,0.3-0.7,0.5-1.2
				c0-0.1,0.1-0.2,0.1-0.3c0.2-0.5,0.4-1,0.6-1.6v-0.1c0.3-0.7,0.5-1.4,0.8-2.1L219.1,188c0,0-38.1,64.6-10.1,31
				c43.1-51.8,74.3-89.2,78.7-94.5c0.1-0.1,0.1-0.1,0.1-0.2c0.2-0.2,0.3-0.4,0.4-0.5C286.1,121.9,284.9,121,280.7,117.5z"/>
			<path class="st12" d="M283.4,57.8L83.3,297.9c0.5,0,1,0,1.5,0L284.3,58.5L283.4,57.8z"/>
			<polygon class="st14" points="267.9,112.2 262.8,118.3 262.5,118 267.6,111.9 			"/>
			
				<rect x="262.9" y="116.3" transform="matrix(0.6405 -0.768 0.768 0.6405 6.4099 246.8772)" class="st14" width="8" height="0.5"/>
			<polygon class="st14" points="271.4,115.1 266.3,121.2 266,120.9 271.1,114.8 			"/>
			<polygon class="st14" points="273.2,116.5 268.1,122.7 267.7,122.4 272.8,116.3 			"/>
			<polygon class="st14" points="274.9,118 269.8,124.2 269.5,123.9 274.6,117.7 			"/>
			
				<rect x="269.9" y="122.2" transform="matrix(0.6404 -0.768 0.768 0.6404 4.4436 254.3977)" class="st11" width="8" height="0.5"/>
			
				<rect x="271.6" y="123.6" transform="matrix(0.6403 -0.7681 0.7681 0.6403 4.0293 256.2708)" class="st11" width="8" height="0.5"/>
			
				<rect x="273.4" y="125.1" transform="matrix(0.6407 -0.7678 0.7678 0.6407 3.4217 258.0439)" class="st11" width="8" height="0.5"/>
			
				<rect x="275.2" y="126.5" transform="matrix(0.6404 -0.7681 0.7681 0.6404 3.0558 259.9938)" class="st11" width="8" height="0.5"/>
			<polygon class="st11" points="283.7,125.3 278.5,131.4 278.2,131.1 283.3,125 			"/>
			
				<rect x="278.7" y="129.4" transform="matrix(0.6405 -0.768 0.768 0.6405 2.0552 263.6797)" class="st11" width="8" height="0.5"/>
			<path class="st11" d="M289.2,114.1c0.4,0.3,0.4,0.8,0.1,1.2l-0.1,0.1c-0.3,0.3-0.8,0.4-1.2,0.1l0,0c-0.4-0.3-0.4-0.8-0.1-1.2
				l0.1-0.1C288.3,113.8,288.8,113.8,289.2,114.1L289.2,114.1z"/>
		</g>
	</g>
</g>
</svg>
